<?xml version="1.0" encoding="utf-8"?>
<!-- Generator: Adobe Illustrator 25.2.3, SVG Export Plug-In . SVG Version: 6.00 Build 0)  -->
<svg version="1.1" id="Capa_1" xmlns="http://www.w3.org/2000/svg" xmlns:xlink="http://www.w3.org/1999/xlink" x="0px" y="0px"
	 viewBox="0 0 388.3 481.9" style="enable-background:new 0 0 388.3 481.9;" xml:space="preserve">
<style type="text/css">
	.st0{fill:#FFFFFF;}
</style>
<g>
	<path class="st0" d="M52.4,298v94.5c0,18.1,23.3,25.2,33.4,10.3l63.3-94.5c8.2-12.2-0.4-28.7-15.1-28.7H70.8
		C60.5,279.7,52.4,287.9,52.4,298z"/>
	<path class="st0" d="M52.4,199.7V47.8c0-10.2,8.2-18.4,18.2-18.4h230.9c14.6,0,23.3,16.4,15.1,28.7L214.8,210
		c-3.4,5.1-9.1,8.1-15.1,8.1H70.5C60.5,218,52.4,209.8,52.4,199.7z"/>
	<path class="st0" d="M335.9,298v136.1c0,10.2-8.2,18.4-18.2,18.4h-157c-14.6,0-23.3-16.4-15.1-28.7l91.2-136.1
		c3.4-5.1,9.1-8.1,15.1-8.1h65.8C327.7,279.7,335.9,287.9,335.9,298z"/>
</g>
</svg>
