<?xml version="1.0" encoding="UTF-8"?>
<svg id="Capa_1" xmlns="http://www.w3.org/2000/svg" version="1.1" viewBox="0 0 256 256">
  <!-- Generator: Adobe Illustrator 29.5.0, SVG Export Plug-In . SVG Version: 2.1.0 Build 137)  -->
  <defs>
    <style>
      .st0 {
        fill: #fff;
      }

      .st1 {
        display: none;
        fill: #14171a;
      }
    </style>
  </defs>
  <rect class="st1" x="-100.67" y="-2185.69" width="460.22" height="2523.21" transform="translate(8.55 1.16) rotate(-.53)"/>
  <path class="st0" d="M117.44,125.63H6.7c-3.62,0-6.55-2.93-6.55-6.55V43.22C.15,19.35,19.5,0,43.37,0h75.85c3.62,0,6.55,2.93,6.55,6.55v110.74c0,4.6-3.73,8.33-8.33,8.33h0Z"/>
  <path d="M93.35,52.11h-20.13v-20.13c0-4.14-3.36-7.5-7.5-7.5s-7.5,3.36-7.5,7.5v20.13h-20.13c-4.14,0-7.5,3.36-7.5,7.5s3.36,7.5,7.5,7.5h20.13v20.13c0,4.14,3.36,7.5,7.5,7.5s7.5-3.36,7.5-7.5v-20.13h20.13c4.14,0,7.5-3.36,7.5-7.5s-3.36-7.5-7.5-7.5Z"/>
  <path class="st0" d="M249.45,125.63h-110.74c-4.6,0-8.33-3.73-8.33-8.33V6.55c0-3.62,2.93-6.55,6.55-6.55h75.85c23.87,0,43.22,19.35,43.22,43.22v75.85c0,3.62-2.93,6.55-6.55,6.55h0Z"/>
  <path d="M230.48,64.26c0-4.14-3.36-7.5-7.5-7.5h-46.85c-4.14,0-7.5,3.36-7.5,7.5s3.36,7.5,7.5,7.5h46.85c4.14,0,7.5-3.36,7.5-7.5h0Z"/>
  <path class="st0" d="M212.78,255.85h-75.85c-3.62,0-6.55-2.93-6.55-6.55v-110.74c0-4.6,3.73-8.33,8.33-8.33h110.74c3.62,0,6.55,2.93,6.55,6.55v75.85c0,23.87-19.35,43.22-43.22,43.22h0Z"/>
  <path d="M229.78,178.29c0-4.14-3.36-7.5-7.5-7.5h-45.44c-4.14,0-7.5,3.36-7.5,7.5s3.36,7.5,7.5,7.5h45.44c4.14,0,7.5-3.36,7.5-7.5Z"/>
  <path d="M229.78,206.11c0-4.14-3.36-7.5-7.5-7.5h-45.44c-4.14,0-7.5,3.36-7.5,7.5s3.36,7.5,7.5,7.5h45.44c4.14,0,7.5-3.36,7.5-7.5Z"/>
  <path class="st0" d="M119.23,255.85H43.37C19.5,255.85.15,236.49.15,212.62v-75.85c0-3.62,2.93-6.55,6.55-6.55h110.74c4.6,0,8.33,3.73,8.33,8.33v110.74c0,3.62-2.93,6.55-6.55,6.55h.01Z"/>
  <path d="M73.57,194.82l14.23-14.23c2.93-2.93,2.93-7.68,0-10.61s-7.68-2.93-10.61,0l-14.23,14.23-14.23-14.23c-2.93-2.93-7.68-2.93-10.61,0s-2.93,7.68,0,10.61l14.23,14.23-14.23,14.23c-2.93,2.93-2.93,7.68,0,10.61,1.47,1.46,3.39,2.2,5.31,2.2s3.83-.74,5.3-2.2l14.23-14.23,14.23,14.23c1.47,1.46,3.39,2.2,5.31,2.2s3.84-.74,5.3-2.2c2.93-2.93,2.93-7.68,0-10.61,0,0-14.23-14.23-14.23-14.23Z"/>
</svg>