<?xml version="1.0" encoding="UTF-8"?>
<svg id="Capa_1" xmlns="http://www.w3.org/2000/svg" version="1.1" viewBox="0 0 256 256">
  <!-- Generator: Adobe Illustrator 29.5.0, SVG Export Plug-In . SVG Version: 2.1.0 Build 137)  -->
  <defs>
    <style>
      .st0 {
        fill: none;
        stroke: #fff;
        stroke-linecap: round;
        stroke-linejoin: round;
        stroke-width: 21px;
      }

      .st1, .st2 {
        display: none;
      }

      .st2 {
        fill: #14171a;
      }
    </style>
  </defs>
  <rect class="st1" width="256" height="256"/>
  <rect class="st2" x="-100.7" y="-1575.97" width="460.22" height="2523.31" transform="translate(2.92 1.19) rotate(-.53)"/>
  <path class="st0" d="M115.5,64.1c18.01-18.03,35.08-41.31,62.54-43.23,22.84-1.6,44.68,11.91,53.2,33.23,8.85,22.12,1.47,45.09-14.74,61.43-10.78,10.86-21.29,22.16-32.58,32.49-7.72,7.06-17.43,11.75-27.74,13.46-20.95,3.48-42.62-5.67-54.21-23.58-1.93-2.98-3.55-6.14-4.86-9.44"/>
  <path class="st0" d="M145.54,189.93c-18.01,18.03-35.08,41.31-62.54,43.23-22.84,1.6-44.68-11.91-53.2-33.23-8.85-22.12-1.47-45.09,14.74-61.43,10.78-10.86,21.29-22.16,32.58-32.49,7.72-7.06,17.43-11.75,27.74-13.46,20.95-3.48,42.62,5.67,54.21,23.58,1.93,2.98,3.55,6.14,4.86,9.44"/>
</svg>