<?xml version="1.0" encoding="UTF-8"?>
<svg id="Capa_1" xmlns="http://www.w3.org/2000/svg" version="1.1" viewBox="0 0 256 256">
  <!-- Generator: Adobe Illustrator 29.5.0, SVG Export Plug-In . SVG Version: 2.1.0 Build 137)  -->
  <defs>
    <style>
      .st0 {
        fill: #fff;
      }

      .st1 {
        display: none;
      }
    </style>
  </defs>
  <rect class="st1" width="256" height="256"/>
  <path class="st0" d="M94.39,160v55.2c0,9.9-8.56,17.93-19.1,17.93H31.1c-10.55,0-19.1-8.02-19.1-17.93v-83.48c0-4.76,2.01-9.31,5.6-12.68L114.49,28.13c7.46-7.01,19.56-7.01,27.02,0l96.9,90.91c3.58,3.36,5.6,7.93,5.6,12.68v83.48c0,9.9-8.56,17.93-19.1,17.93h-44.16c-10.55,0-19.1-8.02-19.1-17.93v-55.2c0-9.9-8.56-17.93-19.1-17.93h-29.01c-10.55,0-19.1,8.02-19.1,17.93h-.05Z"/>
</svg>