<?xml version="1.0" encoding="UTF-8"?>
<svg id="Capa_1" xmlns="http://www.w3.org/2000/svg" version="1.1" viewBox="0 0 256 256">
  <!-- Generator: Adobe Illustrator 29.5.0, SVG Export Plug-In . SVG Version: 2.1.0 Build 137)  -->
  <defs>
    <style>
      .st0 {
        fill: #fff;
      }

      .st1 {
        display: none;
        fill: #14171a;
      }
    </style>
  </defs>
  <rect class="st1" x="-100.7" y="-1292.76" width="460.22" height="2523.21" transform="translate(.29 1.2) rotate(-.53)"/>
  <path class="st0" d="M9.14,68.18h0c-5.19,0-9.14,4.2-9.14,9.14v105.94c0,4.94,4.2,9.14,9.14,9.14h237.71c4.94,0,9.14-4.2,9.14-9.14v-105.94c0-4.94-3.95-9.14-9.14-9.14h-19.27v49.29c0,3.21-2.22,4.94-4.94,4.94-2.72-.25-4.45-1.98-4.45-4.94v-49.29h-28.42v32.7c0,3.71-1.73,5.68-4.94,5.68-2.97,0-4.69-1.98-4.69-5.68v-32.7h-28.42v48.3c0,3.95-1.73,5.93-4.69,5.93s-4.69-1.98-4.69-5.68v-48.54h-28.42v33.44c0,3.21-2.22,5.19-5.44,4.94-2.47-.25-3.95-2.22-4.2-4.94v-33.44h-28.42v48.54c0,3.71-1.73,5.68-4.94,5.68-2.97,0-4.69-1.98-4.69-5.68v-48.54h-28.42v32.45c0,3.71-1.73,5.93-4.69,5.93s-4.69-1.98-4.69-5.68v-32.7H9.14Z"/>
</svg>