<?xml version="1.0" encoding="UTF-8"?>
<svg xmlns="http://www.w3.org/2000/svg" version="1.1" viewBox="0 0 256 256">
  <!-- Generator: Adobe Illustrator 29.5.0, SVG Export Plug-In . SVG Version: 2.1.0 Build 137)  -->
  <defs>
    <style>
      .st0 {
        fill: none;
        stroke: #fff;
        stroke-linecap: round;
        stroke-linejoin: round;
        stroke-width: 10px;
      }

      .st1 {
        fill: #fff;
      }

      .st2, .st3 {
        display: none;
      }

      .st3 {
        fill: #14171a;
      }
    </style>
  </defs>
  <g id="Capa_2" class="st2">
    <rect width="256" height="256"/>
  </g>
  <g id="Capa_1">
    <rect class="st3" x="-100.7" y="-1292.96" width="460.22" height="2523.41" transform="translate(.3 1.2) rotate(-.53)"/>
    <g>
      <path class="st1" d="M127.93,206.36h-29.14c-4.32,0-5.31-1.36-5.56-5.68-.25-5.56-.74-11.11-1.73-16.55-1.36-7.29-5.19-13.21-10.5-18.65-16.18-16.3-22.72-36.06-19.02-58.65,4.69-29.51,27.41-51.37,57.17-55.81,28.03-4.2,57.05,11.11,69.27,36.43,12.97,26.79,8.27,56.8-12.97,77.79-8.15,8.15-11.24,17.78-12.1,28.65-.25,2.59-.12,5.06-.25,7.66-.25,3.33-1.61,4.69-5.06,4.69-10,.12-20.13.12-30.13.12Z"/>
      <path class="st1" d="M147.07,235.5h-37.66c-5.68,0-10.25,4.57-10.25,10.25s4.57,10.25,10.25,10.25h37.66c5.68,0,10.25-4.57,10.25-10.25s-4.57-10.25-10.25-10.25h0Z"/>
      <path class="st1" d="M154.85,211.05h-53.59c-5.56,0-10.13,4.57-10.13,10.13s4.57,10.13,10.13,10.13h53.59c5.56,0,10.13-4.57,10.13-10.13s-4.45-10.13-10.13-10.13h0Z"/>
    </g>
    <g>
      <line class="st0" x1="37.78" y1="111.11" x2="20.51" y2="111.05"/>
      <line class="st0" x1="55.19" y1="58.13" x2="41.25" y2="47.93"/>
      <line class="st0" x1="100.41" y1="25.51" x2="95.13" y2="9.06"/>
      <line class="st0" x1="156.17" y1="25.7" x2="161.56" y2="9.29"/>
      <line class="st0" x1="201.17" y1="58.62" x2="215.18" y2="48.52"/>
      <line class="st0" x1="218.22" y1="111.71" x2="235.49" y2="111.77"/>
    </g>
  </g>
</svg>