<?xml version="1.0" encoding="UTF-8"?>
<svg xmlns="http://www.w3.org/2000/svg" version="1.1" viewBox="0 0 256 256">
  <!-- Generator: Adobe Illustrator 29.5.0, SVG Export Plug-In . SVG Version: 2.1.0 Build 137)  -->
  <defs>
    <style>
      .st0 {
        fill: #fff;
      }

      .st1 {
        stroke: #fff;
      }

      .st1, .st2 {
        fill: none;
        stroke-linecap: round;
        stroke-linejoin: round;
        stroke-width: 15px;
      }

      .st3, .st4 {
        display: none;
      }

      .st2 {
        stroke: #000;
      }

      .st4 {
        fill: #14171a;
      }
    </style>
  </defs>
  <g id="Capa_2" class="st3">
    <rect width="256" height="256"/>
  </g>
  <g id="Capa_1">
    <rect class="st4" x="-100.7" y="-986.74" width="460.22" height="2523.21" transform="translate(-2.54 1.21) rotate(-.53)"/>
    <path class="st0" d="M235.34,36.48L7.18,234.07c-8.74,7.57-3.39,21.93,8.18,21.93h228.15c6.9,0,12.49-5.59,12.49-12.49V45.93c0-10.7-12.58-16.45-20.66-9.44Z"/>
    <path class="st0" d="M176.08,87.66c-6.46-7.47-17.75-8.29-25.23-1.83l-90.59,78.32c-7.47,6.46-8.29,17.76-1.83,25.23l117.65-101.71Z"/>
    <path d="M58.43,189.37c6.46,7.47,17.75,8.29,25.23,1.83l90.59-78.32c7.47-6.46,8.29-17.76,1.83-25.23l-117.65,101.71Z"/>
    <circle class="st1" cx="81.89" cy="94.46" r="15.94"/>
    <circle class="st2" cx="154.39" cy="176.97" r="15.94"/>
  </g>
</svg>