<?xml version="1.0" encoding="UTF-8"?>
<svg id="Capa_1" xmlns="http://www.w3.org/2000/svg" version="1.1" viewBox="0 0 256 256">
  <!-- Generator: Adobe Illustrator 29.5.0, SVG Export Plug-In . SVG Version: 2.1.0 Build 137)  -->
  <defs>
    <style>
      .st0 {
        fill: #fff;
      }

      .st1 {
        display: none;
      }

      .st2 {
        fill: #149db6;
      }
    </style>
  </defs>
  <rect class="st1" width="256" height="256"/>
  <path class="st0" d="M49.98,255.51c-8.88-1.96-13.59-9.48-14.13-17.88v-.26c0-.87-.13-1.84-.13-2.7V21.58c0-10.4,5.01-17.73,14-20.68C51.52.39,53.32,0,55.24,0h100.45C157.62,0,158.77.9,160.06,2.18c18.75,18.75,37.51,37.64,56.39,56.13,2.83,2.7,3.85,5.39,3.85,9.25-.13,56-.13,112.01-.13,168.14,0,9.89-6.04,17.6-15.54,19.91-.95.24-2.01.26-2.97.36-.16.02-.32.03-.48.03l-150.18-.38c-.34,0-.68-.03-1.01-.11h-.01Z"/>
  <path class="st2" d="M215.05,59.57c-18.77-18.77-37.65-37.67-56.55-56.69-2.94-2.96-7.99-.9-8,3.27-.05,14.65-.14,29.58.02,44.38.21,8.08,7.04,16.56,14.91,16.77,15.58.5,31.17.33,46.33.24,4.16-.02,6.23-5.04,3.29-7.98h0Z"/>
  <path class="st2" d="M141.1,175.99l-34.6-85.22c-1.3-3.21-4.41-5.31-7.87-5.31s-6.58,2.1-7.88,5.31l-34.59,85.22c-1.77,4.35.33,9.31,4.68,11.07,4.35,1.77,9.31-.33,11.07-4.68l9.21-22.69h35.01l9.21,22.69c1.35,3.31,4.53,5.31,7.88,5.31,1.07,0,2.15-.2,3.2-.63,4.35-1.76,6.44-6.72,4.68-11.07h0ZM88.02,142.69l10.61-26.13,10.6,26.13h-21.21Z"/>
  <path class="st2" d="M184.22,187.69c-2.76,0-5-2.24-5-5v-15.33h-29.45c-1.87,0-3.58-1.04-4.44-2.71-.86-1.66-.72-3.67.37-5.19l34.45-48.49c1.26-1.77,3.52-2.53,5.6-1.87,2.07.66,3.48,2.59,3.48,4.76v43.49h7.06c2.76,0,5,2.24,5,5s-2.24,5-5,5h-7.06v15.33c0,2.76-2.24,5-5,5h0ZM159.45,157.36h19.76v-27.82l-19.76,27.82h0Z"/>
</svg>