<?xml version="1.0" encoding="UTF-8"?>
<svg id="Capa_1" xmlns="http://www.w3.org/2000/svg" version="1.1" viewBox="0 0 256 256">
  <!-- Generator: Adobe Illustrator 29.5.0, SVG Export Plug-In . SVG Version: 2.1.0 Build 137)  -->
  <defs>
    <style>
      .st0 {
        fill: #fff;
      }

      .st1 {
        fill: none;
        stroke: #149db6;
        stroke-miterlimit: 10;
        stroke-width: 5px;
      }

      .st2 {
        display: none;
      }

      .st3 {
        fill: #149db6;
      }
    </style>
  </defs>
  <rect class="st2" width="256" height="256"/>
  <path class="st0" d="M153.89,23.37v41.16c-50.65,5.96-90.07,49.16-90.07,101.38,0,12.86,2.39,25.16,6.75,36.5H23.37c-2.17,0-4.26-.86-5.79-2.39l-15.19-15.19c-1.53-1.53-2.39-3.62-2.39-5.79V8.18C0,3.66,3.66,0,8.18,0h122.34c2.17,0,4.26.86,5.79,2.39l15.18,15.19c1.54,1.53,2.4,3.61,2.4,5.79h0Z"/>
  <path class="st3" d="M147.41,20.8l-13.86-13.86c-1.23-1.23-2.89-1.92-4.63-1.92H7.77c-3.02,0-4.53,3.65-2.4,5.78l15.23,15.23c.64.64,1.5.99,2.4.99h121.82c3.25,0,4.88-3.93,2.58-6.23h.01Z"/>
  <circle class="st0" cx="165.91" cy="165.91" r="90.09"/>
  <circle class="st3" cx="165.91" cy="165.91" r="24.61"/>
  <circle class="st1" cx="165.91" cy="165.91" r="35.97"/>
</svg>