<?xml version="1.0" encoding="UTF-8"?>
<svg xmlns="http://www.w3.org/2000/svg" version="1.1" viewBox="0 0 256 256">
  <!-- Generator: Adobe Illustrator 29.5.0, SVG Export Plug-In . SVG Version: 2.1.0 Build 137)  -->
  <defs>
    <style>
      .st0 {
        stroke-width: 21px;
      }

      .st0, .st1 {
        fill: none;
        stroke: #fff;
        stroke-linecap: round;
        stroke-linejoin: round;
      }

      .st2 {
        fill: #fff;
      }

      .st3, .st4 {
        display: none;
      }

      .st1 {
        stroke-width: 19px;
      }

      .st4 {
        fill: #14171a;
      }
    </style>
  </defs>
  <g id="Capa_2" class="st3">
    <rect width="256" height="256"/>
  </g>
  <g id="Capa_1">
    <path class="st2" d="M234.24,24.43c3.73,0,6.76,3.03,6.76,6.76v145.92c0,3.73-3.03,6.76-6.76,6.76H21.76c-3.73,0-6.76-3.03-6.76-6.76V31.19c0-3.73,3.03-6.76,6.76-6.76h212.48M234.24,9.43H21.76C9.74,9.43,0,19.18,0,31.19v145.92c0,12.02,9.74,21.76,21.76,21.76h212.48c12.02,0,21.76-9.74,21.76-21.76V31.19c0-12.02-9.74-21.76-21.76-21.76h0Z"/>
    <rect class="st4" x="-100.7" y="-1575.87" width="460.22" height="2523.21" transform="translate(2.92 1.19) rotate(-.53)"/>
    <path class="st2" d="M37.96,72.1h0c-3.93,0-6.93,3.18-6.93,6.93v80.26c0,3.74,3.18,6.93,6.93,6.93h180.08c3.74,0,6.93-3.18,6.93-6.93v-80.26c0-3.74-3-6.93-6.93-6.93h-12.64v37.34c0,2.43-2.89,4.5-4.95,4.5-2.06-.19-4.13-2.25-4.13-4.5v-37.34h-21.53v24.77c0,2.81-1.31,4.31-3.74,4.31-2.25,0-3.56-1.5-3.56-4.31v-24.77h-19.56v36.59c0,3-2.51,5.24-4.76,5.24s-4.32-2.25-4.32-5.06v-36.78h-21.53v25.33c0,2.43-1.68,3.93-4.12,3.74-1.87-.19-3-1.68-3.18-3.74v-25.33h-19.56v36.78c0,2.81-2.51,5.06-4.95,5.06-2.25,0-4.32-2.25-4.32-5.06v-36.78h-21.53v24.58c0,2.81-1.31,4.49-3.56,4.49s-3.56-1.5-3.56-4.31v-24.77h-14.6Z"/>
    <line class="st0" x1="128" y1="242.63" x2="128" y2="198.87"/>
    <line class="st1" x1="75.98" y1="245.73" x2="180.02" y2="245.73"/>
  </g>
</svg>