<?xml version="1.0" encoding="utf-8"?>
<!-- Generator: Adobe Illustrator 25.2.3, SVG Export Plug-In . SVG Version: 6.00 Build 0)  -->
<svg version="1.1" id="Capa_1" xmlns="http://www.w3.org/2000/svg" xmlns:xlink="http://www.w3.org/1999/xlink" x="0px" y="0px"
	 viewBox="0 0 256 256" style="enable-background:new 0 0 256 256;" xml:space="preserve">
<style type="text/css">
	.st0{fill:none;}
	.st1{fill:#77132C;}
	.st2{fill:#E51351;}
	.st3{fill:#E75983;}
	.st4{fill:#FFFFFF;}
	.st5{clip-path:url(#SVGID_2_);fill:#FFFFFF;}
</style>
<circle class="st0" cx="128" cy="128" r="128"/>
<g>
	<g>
		<path class="st1" d="M47.2,57.5h167.7v164.6H52.1c-2.6,0-4.8-2.2-4.8-4.8V57.5H47.2z"/>
		<path class="st2" d="M201.3,164.2H60.7V27.1h135.6c2.7,0,5,2.3,5,5V164.2z"/>
		<polygon class="st3" points="60.7,164.2 30.7,182 30.7,44.8 60.7,27.1 		"/>
	</g>
	<g>
		<path class="st4" d="M96.3,133.6L118,57.8h25.2l23,75.7h-20.1l-4.1-16.4h-22.7l-4,16.4H96.3z M122.7,103.2h15.8l-7.9-32.4
			L122.7,103.2z"/>
		<g>
			<path class="st4" d="M116.9,206.3l8.2-28.9h9.6l8.8,28.9h-7.7l-1.6-6.3h-8.7l-1.5,6.3H116.9z M126.9,194.8h6.1l-3-12.3
				L126.9,194.8z"/>
			<path class="st4" d="M164.6,206.3h-17.5v-28.9h17.5c2.7,0,4.9,2.2,4.9,4.9v19C169.5,204.2,167.3,206.3,164.6,206.3z M162.8,198.4
				v-12.9c0-1.5-1.3-2.7-2.7-2.7h-5.8v18.5h5.8C161.5,201.3,162.8,200,162.8,198.4z"/>
			<g>
				<g>
					<defs>
						<path id="SVGID_1_" d="M118,208.6H89.7v-33.4H118C118,175.3,118,208.6,118,208.6z M116.9,186.4h-9.6v11.1h9.6V186.4z"/>
					</defs>
					<clipPath id="SVGID_2_">
						<use xlink:href="#SVGID_1_"  style="overflow:visible;"/>
					</clipPath>
					<path class="st5" d="M110.9,206.8H97.4c-2.6,0-4.7-2.2-4.7-4.7v-20.3c0-2.6,2.2-4.7,4.7-4.7h13.5c2.6,0,4.7,2.2,4.7,4.7v20.3
						C115.6,204.7,113.5,206.8,110.9,206.8z M101.8,202h4.8c1,0,1.9-0.9,1.9-1.9v-15.6c0-1-0.9-1.9-1.9-1.9h-4.8
						c-1,0-1.9,0.9-1.9,1.9V200C99.8,201.1,100.8,202,101.8,202z"/>
				</g>
			</g>
		</g>
	</g>
</g>
</svg>
