<?xml version="1.0" encoding="utf-8"?>
<!-- Generator: Adobe Illustrator 25.2.3, SVG Export Plug-In . SVG Version: 6.00 Build 0) -->
<svg version="1.1" id="Capa_1" xmlns="http://www.w3.org/2000/svg" xmlns:xlink="http://www.w3.org/1999/xlink" x="0px" y="0px"
	 viewBox="0 0 256 256" style="enable-background:new 0 0 256 256;" xml:space="preserve">
<style type="text/css">
	.st0{fill:#B21917;}
	.st1{fill:#FFFFFF;}
	.st2{fill:none;}
	.st3{fill:#00609E;}
</style>
<path class="st0" d="M60.4,25.5h135.7c20.3,0,37.1,16.8,37.1,37.1v130.1c0,20.6-16.8,37.1-37.1,37.1H60.4
	c-20.3,0.3-37.1-16.4-37.1-36.7V62.6C23.3,42.3,40.1,25.5,60.4,25.5z"/>
<path class="st1" d="M191.9,144.1c-4.2-4.5-12.2-6.6-23.8-6.6c-6.3,0-12.9,0.7-19.2,1.7c-4.2-3.8-7.7-8.4-11.2-12.9
	c-2.4-3.5-4.9-7-7-10.8c3.5-9.8,5.6-20.3,6.3-30.8c0-9.4-3.8-19.6-14.3-19.6c-3.5,0-7,2.1-8.7,5.2c-4.5,7.7-2.8,23.4,4.5,39.9
	c-2.4,7.3-5.2,14.7-8.4,22.7c-2.8,7-5.9,13.6-9.8,19.9c-10.8,4.2-33.6,14.7-35.7,26.2c-0.7,3.5,0.3,7,3.1,9.1
	c2.4,2.1,5.9,3.5,9.4,3.1c13.6,0,27.3-18.9,36.7-35.3c5.2-1.7,10.5-3.5,16.1-4.9c5.9-1.4,11.5-2.8,16.8-3.8
	c14.7,12.6,27.6,14.7,33.9,14.7c8.7,0,12.2-3.8,13.3-7C195.4,151.1,194.7,146.9,191.9,144.1z M182.5,150.7c-0.3,2.4-3.1,4.2-6.6,4.2
	c-1,0-2.1,0-3.1-0.3c-7-1.7-13.6-5.2-19.2-9.8c4.5-0.7,9.4-1,14-1c3.1,0,6.3,0.3,9.4,0.7C180,145.1,183.5,146.5,182.5,150.7z
	 M119.9,73.4c0.7-1,1.7-1.7,3.1-2.1c3.5,0,4.2,3.8,4.2,7.3c-0.3,8-1.7,15.7-4.2,23.4C117.1,87.1,117.8,76.9,119.9,73.4z
	 M139.5,140.6c-3.8,0.7-7.7,1.7-11.5,2.8c-2.8,0.7-5.6,1.7-8.7,2.4c1.4-3.1,2.8-6.3,4.2-9.1c1.7-3.8,3.1-7.7,4.5-11.5
	c1.4,2.1,2.4,3.8,3.8,5.6C134.2,134.3,137,137.4,139.5,140.6z M97.1,160.9c-8.7,14-17.5,23.1-22.4,23.1c-0.7,0-1.7-0.3-2.1-0.7
	c-1-0.7-1.4-2.1-1-3.1C72.3,174.9,82.4,167.5,97.1,160.9z"/>
<circle class="st2" cx="128" cy="128" r="128"/>
<path class="st3" d="M904.9-929.3l21.9,12.5l0,3.7l-12.4-7.1l-7.8,4.4l20.2,11.7l0,3.6L905-912.9c0.1,1.5,1.4,6,3.9,9.4
	c2.6,3.5,5.5,5,5.5,5l20,11.5v-34.4l-29.6-17L904.9-929.3z M967.3-940l-22.1-12.8c0,0-3.5-2-9.1-2c-5.8,0-9.2,2.1-9.2,2.1L906.4-941
	l31.2,17.9v36.2l20.5-11.7c0,0,3.7-2,6.5-6.8c2.5-4.2,2.8-8.3,2.8-8.3V-940z M934-934.1c0,0,4.6-0.8,8.4,1.4l6.1,3.5
	c0,0,0,3.1,0,7.7c0,3.7-3.1,7.6-3.1,7.6l0-13.6L934-934.1z M952.1-904.2l-6.7,3.8v-3.6l5.2-3c4.9-3.6,5.8-8.8,5.8-10.7l0-16.2
	l-14.2-8.2c0,0-2.2-1.4-6-1.4c-3.9,0-6,1.3-6,1.3l-5,2.9l-3.1-1.8l6.9-3.9c0,0,2.7-1.5,7.2-1.5c4.1,0,7.4,1.6,7.4,1.6l16,9.2l0,17.6
	C959.6-915.2,958.3-908.6,952.1-904.2L952.1-904.2z"/>
</svg>
