<?xml version="1.0" encoding="utf-8"?>
<!-- Generator: Adobe Illustrator 25.2.3, SVG Export Plug-In . SVG Version: 6.00 Build 0)  -->
<svg version="1.1" id="Capa_1" xmlns="http://www.w3.org/2000/svg" xmlns:xlink="http://www.w3.org/1999/xlink" x="0px" y="0px"
	 viewBox="0 0 256 256" style="enable-background:new 0 0 256 256;" xml:space="preserve">
<style type="text/css">
	.st0{fill:none;}
	.st1{fill:#77132C;}
	.st2{fill:#E51351;}
	.st3{fill:#E75983;}
	.st4{fill:#FFFFFF;}
	.st5{clip-path:url(#SVGID_2_);fill:#FFFFFF;}
	.st6{fill:#1A408B;}
	.st7{fill:#3864AC;}
	.st8{fill:#6C97CF;}
</style>
<circle class="st0" cx="128" cy="128" r="128"/>
<g>
	<g>
		<path class="st1" d="M40.3,176.2h70v68.7h-68c-1.1,0-2-0.9-2-2L40.3,176.2L40.3,176.2z"/>
		<path class="st2" d="M104.7,220.7H46v-57.2h56.6c1.1,0,2.1,1,2.1,2.1V220.7z"/>
		<polygon class="st3" points="46,220.7 33.4,228.1 33.4,170.9 46,163.5 		"/>
	</g>
	<g>
		<path class="st4" d="M60.8,207.9l9.1-31.6h10.5l9.6,31.6h-8.4l-1.7-6.8h-9.5l-1.7,6.8H60.8L60.8,207.9z M71.8,195.3h6.6l-3.3-13.5
			L71.8,195.3z"/>
		<g>
			<path class="st4" d="M69.4,238.3l3.4-12.1h4l3.7,12.1h-3.2l-0.7-2.6H73l-0.6,2.6H69.4z M73.6,233.5h2.5l-1.3-5.1L73.6,233.5z"/>
			<path class="st4" d="M89.3,238.3H82v-12.1h7.3c1.1,0,2,0.9,2,2v7.9C91.4,237.4,90.5,238.3,89.3,238.3z M88.6,235v-5.4
				c0-0.6-0.5-1.1-1.1-1.1H85v7.7h2.4C88,236.2,88.6,235.7,88.6,235z"/>
			<g>
				<g>
					<g>
						<g>
							<defs>
								<path id="SVGID_1_" d="M69.9,239.3H58.1v-13.9h11.8V239.3z M69.4,230h-4v4.6h4V230z"/>
							</defs>
							<clipPath id="SVGID_2_">
								<use xlink:href="#SVGID_1_"  style="overflow:visible;"/>
							</clipPath>
							<path class="st5" d="M66.9,238.5h-5.6c-1.1,0-2-0.9-2-2v-8.4c0-1.1,0.9-2,2-2h5.6c1.1,0,2,0.9,2,2v8.5
								C68.9,237.6,68,238.5,66.9,238.5z M63.1,236.5h2c0.4,0,0.8-0.4,0.8-0.8v-6.5c0-0.4-0.4-0.8-0.8-0.8h-2
								c-0.4,0-0.8,0.4-0.8,0.8v6.5C62.3,236.1,62.7,236.5,63.1,236.5z"/>
						</g>
					</g>
				</g>
			</g>
		</g>
	</g>
</g>
<g>
	<g>
		<path class="st6" d="M150.5,176.1h69.8v68.5h-67.7c-1.1,0-2-0.9-2-2L150.5,176.1L150.5,176.1z"/>
		<path class="st7" d="M214.6,220.5h-58.5v-57h56.4c1.1,0,2.1,1,2.1,2.1V220.5L214.6,220.5z"/>
		<polygon class="st8" points="156.1,220.5 143.7,227.9 143.7,170.9 156.1,163.5 		"/>
	</g>
	<g>
		<path class="st4" d="M174.2,207.9v-31.6h11.3c0,0,8.9-0.4,11.4,5.4c0,0,0.7,1.7,0.7,4.9c0,0,0.1,3.4-1,4.9c0,0-1.6,2.4-4,3.4
			l3.3,6.3c0,0,0.8,1.5,1.7,1.8h1.4v4.9c0,0-2.7,1.3-6.5,0c0,0-1.9-1-2.9-2.9l-4.1-8.5H182v11.4L174.2,207.9L174.2,207.9z
			 M189.7,189.6v-6.1c0-1-0.8-1.8-1.8-1.8H182v9.8h5.8C188.9,191.5,189.7,190.6,189.7,189.6z"/>
		<g>
			<path class="st4" d="M170.6,238.1v-12h4.3c0,0,3.4-0.1,4.3,2c0,0,0.3,0.6,0.3,1.8c0,0,0,1.3-0.4,1.8c0,0-0.6,0.9-1.5,1.3l1.3,2.4
				c0,0,0.3,0.6,0.7,0.7h0.5v1.8c0,0-1,0.5-2.5,0c0,0-0.7-0.4-1.1-1.1l-1.6-3.2h-1.3v4.3L170.6,238.1L170.6,238.1L170.6,238.1z
				 M176.5,230.9v-2c0-0.5-0.4-0.9-0.9-0.9h-2v3.7h2C176.1,231.9,176.5,231.5,176.5,230.9z"/>
			<polygon class="st4" points="188.2,238.2 184,238.2 180.5,226.1 183.7,226.1 186.1,235.5 188.3,226.1 191.4,226.1 			"/>
			<polygon class="st4" points="198.4,228.4 198.4,238.2 195.3,238.2 195.3,228.4 192.2,228.4 192.2,226.1 201.7,226.1 201.7,228.4 
							"/>
		</g>
	</g>
</g>
<g>
	<path d="M68.6,89.8l72-44.6H178c1.2,0,2.2,0.9,2.2,2.2c0,1-0.5,1.5-1,1.8l-35.4,21.1c-2.3,1.4-3.1,4.1-3.1,6.2l0,13.3h44.9V12.4
		c0-1.5-1.2-2.8-2.9-2.8h-42.9L68,54.1v35.7L68.6,89.8L68.6,89.8z"/>
	<path d="M16.9,115.2l-11,28.5h7.6l1.9-5.4h12.3l1.9,5.4h7.8l-11.1-28.5H16.9z M17.5,132.3l4-11.2l3.9,11.2H17.5z"/>
	<path d="M58,132.7c0,3.7-2.3,5.2-6.2,5.2c-3.8,0-6.3-1.6-6.3-5.2v-17.7h-7.3v18.5c0,8.3,7.4,10.8,13.6,10.8
		c6.2,0,13.5-2.6,13.5-10.8v-18.5H58V132.7z"/>
	<path d="M68.7,121.3h9.2v22.4h7.3v-22.4h9.2v-6.2H68.7V121.3z"/>
	<path d="M144.7,115.2h-13.4v28.5h13.4c10.3,0,13.1-3.8,13.1-14.5C157.8,119.2,155.1,115.2,144.7,115.2z M144.4,137.5h-5.8v-16.2
		h5.8c4.6,0,6,1.2,6,7.9C150.3,135.3,148.8,137.5,144.4,137.5z"/>
	<path d="M245.3,115.2h-8.7l-10.4,11.6v-11.6h-7.3l0,28.5h7.3v-10.8l9.9,10.8h9.2L232,129.6L245.3,115.2z"/>
	<path d="M161.9,143.7H185v-6.2h-15.8v-5.2h12.7v-6.2h-12.7v-4.8H185v-6.2h-23.1V143.7z"/>
	<path d="M111.5,114.4c-10.4,0-15.8,6.4-15.8,15c0,8.6,5.4,15,15.8,15c10.4,0,15.9-6.4,15.9-15C127.3,120.8,121.9,114.4,111.5,114.4
		z M111.5,138c-5.4,0-8.4-3.3-8.4-8.6c0-5.2,3-8.6,8.4-8.6c5.5,0,8.4,3.3,8.4,8.6C119.8,134.7,116.9,138,111.5,138z"/>
	<path d="M207.1,126.9l-6.7-0.7c-3.9-0.4-4.9-1.4-4.9-2.7c0-1.5,2-2.8,5.9-2.8c3.8,0,5.7,1.4,6.1,3.5h7.2c-0.4-6-5.5-9.8-12.9-9.8
		c-8.8,0-13.3,3.5-13.3,9.7c0,5,2.9,7.4,9,8l6.8,0.7c2.6,0.3,3.8,1.3,3.8,2.6c0,1.5-1.7,2.8-5.9,2.8c-4.8,0-6.7-1.2-7.1-3.6h-7
		c0.3,6.6,4.6,9.9,13.8,9.9c8.4,0,13.1-3.7,13.1-9.2C215.1,130.4,212.3,127.5,207.1,126.9z"/>
</g>
</svg>
