<?xml version="1.0" encoding="utf-8"?>
<!-- Generator: Adobe Illustrator 25.2.3, SVG Export Plug-In . SVG Version: 6.00 Build 0) -->
<svg version="1.1" id="Capa_1" xmlns="http://www.w3.org/2000/svg" xmlns:xlink="http://www.w3.org/1999/xlink" x="0px" y="0px"
	 viewBox="0 0 256 256" style="enable-background:new 0 0 256 256;" xml:space="preserve">
<style type="text/css">
	.st0{fill:#2C0D0E;}
	.st1{fill:#F3971A;}
	.st2{fill:none;}
</style>
<path class="st0" d="M60.3,25.5h135.3c20.5,0,37.1,16.6,37.1,37.1v130.1c0,20.5-16.6,37.1-37.1,37.1H60.3
	c-20.5,0-37.1-16.6-37.1-37.1V62.6C23.2,42.1,39.8,25.5,60.3,25.5z"/>
<path class="st1" d="M124.5,147.7H92l-6.6,20.5c-0.2,0.8-0.9,1.3-1.7,1.2H67.3c-1,0-1.2-0.5-1-1.6L94.5,87c0.3-0.9,0.5-1.8,0.9-2.9
	c0.3-1.8,0.5-3.8,0.5-5.7c-0.1-0.4,0.3-0.9,0.7-1h22.6c0.7,0,1,0.3,1.1,0.7l31.9,89.9c0.3,1,0,1.4-0.9,1.4h-18.2
	c-0.6,0.1-1.2-0.3-1.4-1L124.5,147.7z M97.1,130h22.2c-0.5-1.8-1.2-4-2-6.3c-0.8-2.4-1.6-4.9-2.4-7.5c-0.9-2.7-1.7-5.3-2.5-8
	s-1.7-5.2-2.4-7.8c-0.7-2.4-1.3-4.7-1.9-6.8h-0.2c-0.8,3.8-1.7,7.5-3,11.3c-1.3,4.2-2.6,8.6-4,12.9C99.7,122.2,98.4,126.3,97.1,130z
	 M171.7,92.7c-2.9,0.1-5.7-1-7.8-3.1c-2-2.2-3.1-5.1-3-8c-0.1-3,1-5.8,3.1-7.8c2.1-2,4.9-3.1,7.8-3.1c3.4,0,6,1,7.9,3.1
	c1.9,2.1,3,4.9,2.9,7.8c0.1,3-1,5.8-3.1,8C177.6,91.8,174.6,92.9,171.7,92.7L171.7,92.7z M161.9,168.5v-67.2c0-0.9,0.3-1.2,1.1-1.2
	h17.3c0.8,0,1.1,0.4,1.1,1.2v67.2c0,1-0.3,1.4-1.1,1.4h-17.1C162.3,169.9,161.9,169.4,161.9,168.5z"/>
<circle class="st2" cx="128" cy="128" r="128"/>
</svg>
