<?xml version="1.0" encoding="utf-8"?>
<!-- Generator: Adobe Illustrator 25.2.3, SVG Export Plug-In . SVG Version: 6.00 Build 0)  -->
<svg version="1.1" id="Capa_1" xmlns="http://www.w3.org/2000/svg" xmlns:xlink="http://www.w3.org/1999/xlink" x="0px" y="0px"
	 viewBox="0 0 255.9 256" style="enable-background:new 0 0 255.9 256;" xml:space="preserve">
<style type="text/css">
	.st0{fill:#FFFFFF;}
</style>
<path class="st0" d="M211,248.3L7.7,44.9c-10.2-10.2-10.2-27,0-37.2l0,0c10.2-10.2,27-10.2,37.2,0l203.4,203.4
	c10.2,10.2,10.2,27,0,37.2l0,0C238,258.6,221.2,258.6,211,248.3z"/>
<path class="st0" d="M7.7,211.1L211,7.7c10.2-10.2,27-10.2,37.2,0l0,0c10.2,10.2,10.2,27,0,37.2L44.9,248.3
	c-10.2,10.2-27,10.2-37.2,0l0,0C-2.7,238.1-2.7,221.3,7.7,211.1z"/>
</svg>
