<?xml version="1.0" encoding="utf-8"?>
<!-- Generator: Adobe Illustrator 25.2.3, SVG Export Plug-In . SVG Version: 6.00 Build 0) -->
<svg version="1.1" id="Capa_1" xmlns="http://www.w3.org/2000/svg" xmlns:xlink="http://www.w3.org/1999/xlink" x="0px" y="0px"
	 viewBox="0 0 350 150" style="enable-background:new 0 0 350 150;" xml:space="preserve">
<style type="text/css">
	.st0{fill:#FFFFFF;stroke:#000000;stroke-linecap:round;stroke-linejoin:round;stroke-miterlimit:10;}
	.st1{fill:none;stroke:#000000;stroke-miterlimit:10;}
	.st2{fill:none;stroke:#000000;stroke-miterlimit:10;stroke-dasharray:5.0136,5.0136;}
	.st3{fill:none;stroke:#000000;stroke-width:0.25;stroke-miterlimit:10;}
</style>
<polygon class="st0" points="117.06,93.98 266.92,93.98 266.92,36.1 "/>
<g>
	<g>
		<path d="M288.36,61.39h0.53l3.6,8.52h-0.65l-1.16-2.81h-4.12l-1.17,2.81h-0.66L288.36,61.39z M290.47,66.59l-1.85-4.46l-1.85,4.46
			H290.47z"/>
		<path d="M293.78,69.91v-8.52h0.61v7.97h5.09v0.55H293.78z"/>
		<path d="M306.71,61.94h-3.12v7.97h-0.61v-7.97h-3.12v-0.55h6.85V61.94z"/>
		<path d="M311.46,69.97c-0.68,0-1.25-0.12-1.7-0.36s-0.82-0.57-1.09-0.98c-0.27-0.41-0.47-0.87-0.59-1.39
			c-0.12-0.51-0.18-1.04-0.18-1.57v-4.28h0.61v4.28c0,0.46,0.05,0.92,0.14,1.37c0.1,0.45,0.25,0.85,0.47,1.21
			c0.22,0.36,0.52,0.64,0.9,0.85s0.85,0.31,1.42,0.31c0.58,0,1.05-0.11,1.43-0.32c0.38-0.22,0.68-0.5,0.9-0.86
			c0.22-0.36,0.38-0.76,0.47-1.2s0.14-0.89,0.14-1.35v-4.28H315v4.28c0,0.57-0.06,1.11-0.19,1.63c-0.12,0.52-0.33,0.97-0.61,1.37
			c-0.28,0.4-0.64,0.72-1.09,0.95C312.67,69.85,312.11,69.97,311.46,69.97z"/>
		<path d="M317.1,69.91v-8.52h3.54c0.37,0,0.7,0.08,1,0.23c0.3,0.15,0.56,0.35,0.78,0.61c0.22,0.25,0.39,0.53,0.52,0.85
			c0.12,0.31,0.19,0.63,0.19,0.96c0,0.42-0.08,0.82-0.25,1.19s-0.4,0.68-0.7,0.92c-0.3,0.25-0.65,0.4-1.05,0.46l2.12,3.31h-0.71
			l-2.06-3.22h-2.76v3.22H317.1z M317.71,66.13h2.99c0.37,0,0.69-0.1,0.96-0.3c0.27-0.2,0.48-0.46,0.63-0.78
			c0.15-0.32,0.22-0.66,0.22-1.02c0-0.37-0.09-0.71-0.26-1.03c-0.17-0.32-0.4-0.57-0.68-0.77s-0.6-0.29-0.95-0.29h-2.9V66.13z"/>
		<path d="M327.56,61.39h0.53l3.6,8.52h-0.65l-1.16-2.81h-4.12l-1.17,2.81h-0.66L327.56,61.39z M329.67,66.59l-1.85-4.46l-1.85,4.46
			H329.67z"/>
	</g>
</g>
<g>
	<g>
		<path d="M18.35,105.11c-0.32,0-0.61-0.08-0.88-0.23s-0.47-0.36-0.63-0.61s-0.23-0.54-0.23-0.85c0-0.32,0.08-0.61,0.23-0.86
			s0.37-0.46,0.63-0.61c0.26-0.15,0.56-0.23,0.88-0.23s0.61,0.08,0.88,0.23c0.26,0.15,0.47,0.36,0.63,0.61
			c0.16,0.26,0.23,0.54,0.23,0.85c0,0.31-0.08,0.6-0.23,0.86c-0.16,0.26-0.37,0.47-0.63,0.62
			C18.97,105.03,18.67,105.11,18.35,105.11z M16.79,109.98l3.36-4.07l3.29-4.12l0.34,0.28l-3.36,4.08l-3.29,4.12L16.79,109.98z
			 M18.35,104.72c0.24,0,0.46-0.06,0.65-0.19c0.19-0.12,0.34-0.29,0.46-0.49c0.11-0.2,0.17-0.41,0.17-0.64
			c0-0.25-0.06-0.47-0.18-0.67c-0.12-0.2-0.28-0.36-0.47-0.47c-0.19-0.12-0.4-0.17-0.61-0.17c-0.24,0-0.46,0.06-0.65,0.19
			c-0.19,0.12-0.34,0.29-0.46,0.49c-0.11,0.2-0.17,0.42-0.17,0.65c0,0.24,0.06,0.46,0.17,0.65c0.11,0.2,0.27,0.35,0.46,0.47
			S18.13,104.72,18.35,104.72z M22.22,110.35c-0.32,0-0.61-0.08-0.88-0.23c-0.26-0.15-0.47-0.36-0.63-0.62
			c-0.16-0.26-0.23-0.55-0.23-0.86c0-0.31,0.08-0.6,0.23-0.85c0.16-0.26,0.37-0.46,0.63-0.61c0.26-0.15,0.56-0.23,0.88-0.23
			c0.32,0,0.61,0.08,0.88,0.23c0.26,0.15,0.47,0.36,0.63,0.61s0.23,0.54,0.23,0.85c0,0.31-0.08,0.6-0.23,0.86s-0.37,0.47-0.63,0.62
			C22.83,110.28,22.54,110.35,22.22,110.35z M22.22,109.97c0.24,0,0.46-0.06,0.65-0.19c0.19-0.12,0.34-0.29,0.46-0.49
			c0.11-0.2,0.17-0.41,0.17-0.64c0-0.25-0.06-0.47-0.18-0.67c-0.12-0.2-0.28-0.35-0.47-0.47c-0.19-0.12-0.4-0.18-0.62-0.18
			c-0.23,0-0.44,0.06-0.64,0.19c-0.19,0.12-0.34,0.29-0.46,0.49c-0.11,0.2-0.17,0.42-0.17,0.65c0,0.24,0.06,0.46,0.17,0.65
			c0.11,0.2,0.27,0.35,0.46,0.47C21.78,109.91,21.99,109.97,22.22,109.97z"/>
		<path d="M28.67,110.29v-8.52h3.5c0.36,0,0.69,0.08,0.99,0.23c0.3,0.15,0.56,0.35,0.79,0.61c0.22,0.25,0.4,0.53,0.52,0.85
			c0.12,0.31,0.19,0.63,0.19,0.96c0,0.46-0.1,0.89-0.31,1.29c-0.2,0.4-0.48,0.73-0.84,0.99c-0.36,0.26-0.78,0.38-1.27,0.38h-2.96
			v3.22H28.67z M29.28,106.51h2.94c0.38,0,0.7-0.1,0.97-0.3c0.27-0.2,0.48-0.46,0.62-0.78c0.14-0.32,0.22-0.66,0.22-1.02
			c0-0.38-0.09-0.72-0.26-1.04c-0.17-0.32-0.4-0.57-0.68-0.76c-0.28-0.19-0.6-0.29-0.94-0.29h-2.87V106.51z"/>
		<path d="M41.8,109.74v0.55h-5.68v-8.52h5.57v0.55h-4.96v3.35h4.33v0.53h-4.33v3.54H41.8z"/>
		<path d="M44.08,102.91v7.38h-0.61v-8.52h0.5l5.94,7.5v-7.5h0.61v8.52h-0.6L44.08,102.91z"/>
		<path d="M52.75,110.29v-8.52h2.83c0.9,0,1.65,0.19,2.25,0.57c0.6,0.38,1.04,0.89,1.34,1.54c0.3,0.64,0.45,1.36,0.45,2.14
			c0,0.86-0.16,1.62-0.49,2.26c-0.33,0.64-0.8,1.14-1.4,1.49c-0.61,0.35-1.32,0.53-2.15,0.53H52.75z M59.01,106.02
			c0-0.71-0.13-1.35-0.4-1.91c-0.27-0.56-0.66-1-1.16-1.31c-0.51-0.32-1.13-0.47-1.87-0.47h-2.22v7.42h2.22
			c0.74,0,1.37-0.16,1.88-0.49s0.9-0.77,1.16-1.34C58.88,107.35,59.01,106.72,59.01,106.02z"/>
		<path d="M61.3,110.29v-8.52h0.61v8.52H61.3z"/>
		<path d="M69.82,109.74v0.55h-5.68v-8.52h5.57v0.55h-4.96v3.35h4.33v0.53h-4.33v3.54H69.82z"/>
		<path d="M72.1,102.91v7.38h-0.61v-8.52h0.5l5.94,7.5v-7.5h0.61v8.52h-0.6L72.1,102.91z"/>
		<path d="M86.72,102.32H83.6v7.97h-0.61v-7.97h-3.12v-0.55h6.85V102.32z"/>
		<path d="M93.71,109.74v0.55h-5.68v-8.52h5.57v0.55h-4.96v3.35h4.33v0.53h-4.33v3.54H93.71z"/>
	</g>
</g>
<g>
	<g>
		<path d="M169.86,121.02v-8.52h0.61v7.97h5.09v0.55H169.86z"/>
		<path d="M180.23,121.08c-0.59,0-1.13-0.12-1.62-0.37c-0.49-0.24-0.91-0.57-1.26-0.98c-0.35-0.41-0.62-0.87-0.82-1.39
			c-0.19-0.52-0.29-1.05-0.29-1.59c0-0.57,0.1-1.11,0.3-1.63s0.48-0.98,0.85-1.38s0.79-0.72,1.27-0.96
			c0.48-0.24,1.01-0.35,1.58-0.35c0.6,0,1.14,0.12,1.63,0.37c0.48,0.25,0.9,0.58,1.25,1c0.35,0.42,0.62,0.88,0.82,1.39
			c0.19,0.51,0.29,1.03,0.29,1.56c0,0.58-0.1,1.12-0.3,1.64c-0.2,0.52-0.48,0.98-0.85,1.38c-0.36,0.4-0.79,0.72-1.27,0.95
			C181.32,120.97,180.8,121.08,180.23,121.08z M176.86,116.76c0,0.49,0.08,0.96,0.25,1.4s0.4,0.85,0.7,1.2
			c0.3,0.35,0.66,0.63,1.07,0.84s0.87,0.31,1.36,0.31c0.5,0,0.96-0.11,1.38-0.32c0.42-0.22,0.77-0.5,1.07-0.86
			c0.3-0.36,0.52-0.76,0.68-1.21c0.16-0.44,0.23-0.9,0.23-1.36c0-0.49-0.08-0.96-0.25-1.4c-0.16-0.45-0.4-0.85-0.7-1.2
			c-0.3-0.35-0.66-0.63-1.07-0.84s-0.86-0.31-1.34-0.31c-0.51,0-0.98,0.11-1.39,0.32c-0.42,0.22-0.77,0.5-1.06,0.86
			c-0.29,0.36-0.52,0.76-0.68,1.21C176.94,115.84,176.86,116.3,176.86,116.76z"/>
		<path d="M186.48,113.64v7.38h-0.61v-8.52h0.5l5.94,7.5v-7.5h0.61v8.52h-0.6L186.48,113.64z"/>
		<path d="M198.55,121.08c-0.58,0-1.11-0.12-1.6-0.37s-0.91-0.58-1.27-0.99c-0.36-0.41-0.64-0.88-0.83-1.39
			c-0.2-0.52-0.29-1.04-0.29-1.58c0-0.56,0.1-1.1,0.29-1.61c0.19-0.52,0.46-0.98,0.82-1.38c0.35-0.4,0.77-0.72,1.25-0.96
			c0.48-0.24,1-0.35,1.57-0.35c0.85,0,1.53,0.17,2.06,0.52c0.52,0.35,0.92,0.79,1.19,1.34l-0.5,0.3c-0.29-0.56-0.67-0.97-1.15-1.22
			c-0.48-0.25-1.01-0.38-1.61-0.38c-0.5,0-0.96,0.11-1.37,0.32c-0.41,0.21-0.76,0.5-1.04,0.85c-0.29,0.36-0.51,0.76-0.66,1.21
			c-0.15,0.45-0.23,0.91-0.23,1.38c0,0.5,0.09,0.98,0.26,1.43c0.18,0.45,0.42,0.85,0.73,1.2c0.31,0.35,0.68,0.63,1.09,0.83
			s0.86,0.3,1.33,0.3c0.55,0,1.07-0.13,1.56-0.4c0.49-0.27,0.96-0.69,1.4-1.27v0.68C200.71,120.57,199.71,121.08,198.55,121.08z
			 M201.42,117.37h-1.93v-0.49h2.46v4.14h-0.53V117.37z"/>
		<path d="M203.75,121.02v-8.52h0.61v8.52H203.75z"/>
		<path d="M212.55,113.05h-3.12v7.97h-0.61v-7.97h-3.12v-0.55h6.85V113.05z"/>
		<path d="M217.3,121.08c-0.68,0-1.25-0.12-1.7-0.36s-0.82-0.57-1.09-0.98c-0.27-0.41-0.47-0.87-0.59-1.39
			c-0.12-0.51-0.18-1.04-0.18-1.57v-4.28h0.61v4.28c0,0.46,0.05,0.92,0.14,1.37c0.1,0.45,0.25,0.85,0.47,1.21
			c0.22,0.36,0.52,0.64,0.9,0.85s0.85,0.31,1.42,0.31c0.58,0,1.05-0.11,1.43-0.32c0.38-0.22,0.68-0.5,0.9-0.86
			c0.22-0.36,0.38-0.76,0.47-1.2s0.14-0.89,0.14-1.35v-4.28h0.61v4.28c0,0.57-0.06,1.11-0.19,1.63c-0.12,0.52-0.33,0.97-0.61,1.37
			c-0.28,0.4-0.64,0.72-1.09,0.95C218.5,120.97,217.95,121.08,217.3,121.08z"/>
		<path d="M222.94,121.02v-8.52h2.83c0.9,0,1.65,0.19,2.25,0.57c0.6,0.38,1.04,0.89,1.34,1.54c0.3,0.64,0.45,1.36,0.45,2.14
			c0,0.86-0.16,1.62-0.49,2.26s-0.8,1.14-1.4,1.49c-0.61,0.35-1.32,0.53-2.15,0.53H222.94z M229.2,116.75c0-0.71-0.13-1.35-0.4-1.91
			c-0.27-0.56-0.66-1-1.16-1.31c-0.51-0.32-1.13-0.47-1.87-0.47h-2.22v7.42h2.22c0.74,0,1.37-0.16,1.88-0.49s0.9-0.77,1.16-1.34
			C229.07,118.08,229.2,117.45,229.2,116.75z"/>
	</g>
</g>
<g>
	<g>
		<line class="st1" x1="97.5" y1="101.53" x2="99.84" y2="100.63"/>
		<line class="st2" x1="104.51" y1="98.83" x2="279.9" y2="31.09"/>
		<line class="st1" x1="282.24" y1="30.19" x2="284.57" y2="29.29"/>
	</g>
</g>
<line class="st3" x1="117.06" y1="105.32" x2="266.92" y2="105.32"/>
<line class="st3" x1="278.91" y1="36.48" x2="278.91" y2="93.98"/>
<line class="st3" x1="266.92" y1="101.9" x2="266.92" y2="108.73"/>
<line class="st3" x1="117.06" y1="101.9" x2="117.06" y2="108.73"/>
<line class="st3" x1="282.33" y1="93.98" x2="275.49" y2="93.98"/>
<line class="st3" x1="282.33" y1="36.48" x2="275.49" y2="36.48"/>
</svg>
