<?xml version="1.0" encoding="utf-8"?>
<!-- Generator: Adobe Illustrator 25.2.3, SVG Export Plug-In . SVG Version: 6.00 Build 0)  -->
<svg version="1.1" id="Capa_1" xmlns="http://www.w3.org/2000/svg" xmlns:xlink="http://www.w3.org/1999/xlink" x="0px" y="0px"
	 viewBox="0 0 256 256" style="enable-background:new 0 0 256 256;" xml:space="preserve">
<style type="text/css">
	.st0{fill:none;}
	.st1{clip-path:url(#SVGID_2_);}
	.st2{fill:#8A949A;}
	.st3{fill:#EBEEF1;}
	.st4{fill:#FFFFFF;}
</style>
<circle class="st0" cx="128" cy="128" r="128"/>
<g>
	<g>
		<defs>
			<circle id="SVGID_1_" cx="128" cy="130.7" r="100.1"/>
		</defs>
		<clipPath id="SVGID_2_">
			<use xlink:href="#SVGID_1_"  style="overflow:visible;"/>
		</clipPath>
		<g class="st1">
			<path class="st2" d="M229.9,123.7c0,4.9,0,9.8,0,14.7c-1,2.3-0.5,4.8-1.3,7.1c-1.1,1.4-2.4,2.4-4.2,2.3c-3.2-0.2-6.3-0.5-9.3-1.7
				c-4-1.6-7.7-3.5-11.4-5.6c-18-10.4-34.9-22.5-50.8-35.7C135.8,90.7,117.3,79.4,97,71c-10.2-4.2-20.6-7.8-31.7-8.4
				c-4.1-0.2-6.1-2.4-6-6.5l0,0c0.1-0.3,0.3-0.5,0.4-0.8c0.5-0.5,0.9-1,1.4-1.4c11.6-10.1,24.8-17.3,39.6-21.5
				c1.5,0,2.8,0.7,4.3,0.6c3.9-0.3,7.8,0.2,11.6,1.1c12.8,3,24.2,9,34.9,16.3c16.7,11.3,30.5,25.6,43.5,40.9
				c6.8,8,12.9,16.5,19.5,24.6c1.5,1.9,3.1,3.6,5,5.1c0.9,0.7,1.8,1.2,3,0.4c3.1-2,4.6-1.7,7,1.2C229.5,123,229.3,123.5,229.9,123.7
				z"/>
			<path class="st3" d="M100.6,32.4c6.4-1.7,12.9-3.1,19.6-3.4c0.6,0,1.2-0.1,1.4-0.8c0.7,0,1.3,0,2,0c2.9,0.7,5.8,0.7,8.8,0
				c0.7,0,1.3,0,2,0c0.3,0.8,1,0.8,1.6,0.8c3.8,0.1,7.5,0.7,11.2,1.4c14.1,2.7,27,8.2,38.8,16.4c10.9,7.6,20,16.9,27.2,28
				c8.6,13.2,13.9,27.6,15.8,43.3c0.1,0.6,0.2,1,0.8,1.2c0,0.4,0,0.8,0,1.2c-0.5,0.6-0.3,1.4-0.5,2.1c-2.4-2.8-3.8-3.1-7-1.2
				c-1.2,0.8-2.2,0.3-3-0.4c-1.9-1.5-3.4-3.3-5-5.1c-6.6-8.1-12.7-16.7-19.5-24.6c-13-15.2-26.8-29.6-43.5-40.9
				C140.7,43,129.3,37,116.6,34c-3.8-0.9-7.7-1.4-11.6-1.1C103.4,33.1,102.1,32.4,100.6,32.4z"/>
			<path class="st2" d="M120.4,232.3c-1.3-0.8-2.8-0.5-4.2-0.7c-15.3-1.8-29.4-6.9-42.4-15c-0.9-0.6-1.6-1.3-2.2-2.2
				c-0.2-1.5-0.4-2.9,0.7-4.2c6.4-7.8,14.3-12.3,24.6-11.6c5.3,0.4,10.6,1.6,15.8,3.1c14.7,4.2,29.6,7,44.8,8.4
				c5.7,0.5,11.4,0.7,17.1,1c2.1,0.1,3.5,1,4.2,3c0.5,1.4,0.2,2.9-0.3,4.3c-0.6,0.6-1.2,1.2-2,1.6c-10.4,5.6-21.5,9.4-33.2,11.2
				c-2.6,0.4-5.2,0.3-7.7,1.2C130.5,232.3,125.5,232.3,120.4,232.3z"/>
			<path class="st4" d="M132.4,28.2c-2.9,0.7-5.8,0.7-8.8,0C126.5,28.2,129.5,28.2,132.4,28.2z"/>
			<path class="st4" d="M229.4,122.6c0.1-0.7-0.1-1.5,0.5-2.1c0,1.1,0,2.1,0,3.2C229.3,123.5,229.5,123,229.4,122.6z"/>
			<path class="st3" d="M228.6,145.5c-1.2,8.3-3.1,16.4-6.7,24c-0.7-3.8-2.2-5.1-6.1-5.1c-3.6,0-7.2,0-10.7,0
				c-3.7,0-7.4,0.1-11.1-0.7c-8.9-2-17.3-5.5-25.6-9.2c-17.7-7.8-34.7-17.1-51.8-26.1c-15.5-8.2-31.4-15.3-48.6-19.2
				c-8.9-2-17.9-3-27-1c-5.1,1.1-9.9,2.9-13.6,6.8c1.1-7.9,3.1-15.5,6.2-22.9c3.5-8.5,8-16.4,13.6-23.7c3.2-4.2,6.8-8,10.7-11.7
				c0.4-0.4,0.8-0.7,1.4-0.7c0,4.1,1.9,6.2,6,6.5C76.4,63.2,86.8,66.8,97,71c20.3,8.4,38.9,19.7,55.9,33.8
				c16,13.2,32.8,25.3,50.8,35.7c3.7,2.1,7.4,4,11.4,5.6c3,1.2,6.2,1.4,9.3,1.7C226.2,147.9,227.5,146.9,228.6,145.5z"/>
			<path class="st3" d="M59.2,56.1c0.1-0.3,0.3-0.5,0.4-0.8C59.5,55.5,59.3,55.8,59.2,56.1z"/>
			<path class="st2" d="M27.4,115.1c3.7-3.9,8.6-5.7,13.6-6.8c9.1-2,18.1-1,27,1c17.2,3.9,33.1,11,48.6,19.2
				c17.1,9,34.1,18.3,51.8,26.1c8.3,3.7,16.7,7.2,25.6,9.2c3.7,0.8,7.4,0.6,11.1,0.7c3.6,0,7.2,0,10.7,0c3.9,0,5.4,1.3,6.1,5.1
				c-2.5,6.8-6.1,12.9-10.2,18.9c-0.4,0.5-1,0.9-1.5,1.3c-5.3,1.2-10.6,2.3-16,3.1c-15.7,2.3-31.1,1.8-46.4-2.8
				c-15-4.5-29.1-10.9-43.2-17.5c-16.7-7.9-33.9-14.5-52.2-17.4c-5.6-0.9-11.3-1.5-16.8,0.8c-2.2,0.9-4.4,0.7-6.3-1.1
				c-1.5-3.7-1.9-7.7-2.4-11.6c-1.1-8.5-1.1-17,0-25.5C27.1,116.7,27.3,115.9,27.4,115.1z"/>
			<path class="st3" d="M29.3,154.7c1.8,1.8,4.1,2,6.3,1.1c5.5-2.3,11.2-1.7,16.8-0.8c18.4,2.9,35.5,9.5,52.2,17.4
				c14.1,6.7,28.3,13,43.2,17.5c15.3,4.6,30.7,5.1,46.4,2.8c5.4-0.8,10.7-1.9,16-3.1c-0.6,2.4-2.4,3.9-3.8,5.7
				c-7.5,8.9-16,16.6-26.2,22.5c-0.6,0.3-1.1,0.7-1.8,0.6c0.5-1.4,0.8-2.8,0.3-4.3c-0.7-2-2.1-2.9-4.2-3c-5.7-0.3-11.4-0.4-17.1-1
				c-15.2-1.4-30.1-4.2-44.8-8.4c-5.2-1.5-10.4-2.7-15.8-3.1c-10.3-0.8-18.3,3.7-24.6,11.6c-1,1.3-0.8,2.7-0.7,4.2
				c-2.2,0-3.5-1.7-5.1-2.9c-8.9-6.7-16.5-14.7-22.8-23.9c-6.5-9.6-11.4-20-14.2-31.3C29.4,155.8,29.4,155.2,29.3,154.7z"/>
		</g>
	</g>
</g>
</svg>
