<?xml version="1.0" encoding="UTF-8"?>
<svg id="Capa_1" xmlns="http://www.w3.org/2000/svg" version="1.1" viewBox="0 0 780 1080">
  <!-- Generator: Adobe Illustrator 29.5.0, SVG Export Plug-In . SVG Version: 2.1.0 Build 137)  -->
  <defs>
    <style>
      .st0 {
        fill: #fff;
      }

      .st1, .st2 {
        stroke: #fff;
      }

      .st1, .st2, .st3 {
        fill: none;
        stroke-miterlimit: 10;
      }

      .st1, .st3 {
        stroke-width: 2.83px;
      }

      .st4 {
        fill: #3abcda;
      }

      .st2 {
        stroke-width: 5.67px;
      }

      .st3 {
        stroke: #3abcda;
      }

      .st5 {
        fill: #0d1012;
      }
    </style>
  </defs>
  <rect class="st5" x="1.3" y="1.23" width="779.63" height="1078.77"/>
  <rect class="st3" x="134.93" y="7.1" width="479.37" height="677.73" transform="translate(28.65 720.59) rotate(-90)"/>
  <rect class="st1" x="35.75" y="585.65" width="339.07" height="479.37"/>
  <rect class="st1" x="424.24" y="536.03" width="239.83" height="339.07" transform="translate(1249.72 161.41) rotate(90)"/>
  <rect class="st1" x="374.82" y="825.48" width="169.64" height="239.83" transform="translate(919.28 1890.79) rotate(180)"/>
  <rect class="st1" x="569.28" y="800.66" width="119.99" height="169.64" transform="translate(-256.2 1514.75) rotate(-90)"/>
  <g>
    <path class="st0" d="M37.42,89.48l24.36-59.46h.13l24.36,59.46h-7.74l-6.78-17.01h-20.14l-6.84,17.01h-7.35ZM54.05,66.33h15.28l-4.54-11.38c-.55-1.45-1.09-2.88-1.6-4.28-.51-1.41-1.02-3.09-1.53-5.05-.51,1.96-1,3.63-1.47,5.02-.47,1.39-1,2.82-1.6,4.32l-4.54,11.38Z"/>
    <path class="st0" d="M111.4,90.25c-3.37,0-6.31-.84-8.82-2.53-2.52-1.68-4.61-3.94-6.3-6.78-1.68-2.83-2.94-6.01-3.77-9.53s-1.25-7.09-1.25-10.71.42-7.19,1.25-10.71,2.09-6.69,3.77-9.53c1.68-2.83,3.78-5.09,6.3-6.78,2.51-1.68,5.46-2.53,8.82-2.53s6.31.84,8.82,2.53c2.51,1.68,4.61,3.94,6.3,6.78,1.68,2.84,2.94,6.01,3.77,9.53s1.25,7.09,1.25,10.71-.42,7.19-1.25,10.71-2.09,6.69-3.77,9.53c-1.68,2.83-3.78,5.09-6.3,6.78-2.52,1.68-5.46,2.53-8.82,2.53ZM111.4,83.72c2.26,0,4.2-.68,5.82-2.05,1.62-1.36,2.94-3.18,3.96-5.44,1.02-2.26,1.79-4.74,2.3-7.45.51-2.71.77-5.4.77-8.09s-.26-5.38-.77-8.09c-.51-2.71-1.28-5.19-2.3-7.45-1.02-2.26-2.34-4.07-3.96-5.44-1.62-1.36-3.56-2.05-5.82-2.05s-4.15.68-5.79,2.05c-1.64,1.36-2.97,3.18-4,5.44-1.02,2.26-1.79,4.74-2.3,7.45-.51,2.71-.77,5.4-.77,8.09s.26,5.38.77,8.09c.51,2.71,1.28,5.19,2.3,7.45,1.02,2.26,2.35,4.07,4,5.44,1.64,1.36,3.57,2.05,5.79,2.05Z"/>
  </g>
  <g>
    <path class="st0" d="M594.85,89.99c-.91,0-1.77-.16-2.57-.49s-1.51-.79-2.12-1.39c-.61-.6-1.09-1.29-1.44-2.08-.35-.79-.52-1.64-.52-2.55,0-.84.15-1.62.45-2.35.3-.73.71-1.38,1.24-1.95s1.13-1.03,1.81-1.39c-.41-.4-.74-.85-.98-1.36-.24-.51-.36-1.09-.36-1.73s.12-1.2.35-1.74c.23-.53.56-1,.97-1.41.41-.41.89-.72,1.44-.94.55-.22,1.13-.33,1.74-.33s1.21.11,1.75.33c.54.22,1.02.53,1.43.94.41.4.74.87.97,1.41.23.53.35,1.11.35,1.74s-.12,1.22-.36,1.74c-.24.52-.57.97-.98,1.35.7.36,1.3.82,1.82,1.39s.93,1.22,1.23,1.95.45,1.52.45,2.35c0,.91-.17,1.76-.52,2.55-.35.79-.83,1.48-1.44,2.08-.61.6-1.32,1.06-2.12,1.39s-1.66.49-2.57.49ZM594.85,87.81c.81,0,1.54-.2,2.21-.59.66-.39,1.18-.91,1.57-1.57.38-.65.58-1.39.58-2.2s-.19-1.54-.58-2.21-.91-1.18-1.57-1.57c-.66-.38-1.4-.58-2.21-.58s-1.54.19-2.2.58c-.65.38-1.18.91-1.57,1.57s-.59,1.4-.59,2.21.2,1.54.59,2.2c.39.65.91,1.18,1.57,1.57.65.39,1.39.59,2.2.59ZM594.85,77.24c.46,0,.87-.11,1.24-.33.37-.22.66-.51.88-.88.22-.37.33-.78.33-1.24s-.11-.87-.33-1.24c-.22-.37-.52-.66-.88-.88-.37-.22-.78-.33-1.24-.33s-.87.11-1.24.33c-.37.22-.66.52-.88.88-.22.37-.33.78-.33,1.24s.11.87.33,1.24c.22.37.51.66.88.88.37.22.78.33,1.24.33Z"/>
    <path class="st0" d="M612.56,89.73v-5.16h-9.21v-.04l7.18-13.98h2.56l-6.22,11.98h5.75v-4.31l2.17-1.15v5.46h2.88v2.05h-2.81v5.16h-2.3Z"/>
    <path class="st0" d="M622.28,89.73v-1.92h4.43v-14.24l-4.43,2.26v-2.3l6.73-3.41h.04v17.69h3.58v1.92h-10.36Z"/>
  </g>
  <g>
    <path class="st0" d="M147.75,89.73v-1.92h4.43v-14.24l-4.43,2.26v-2.3l6.73-3.41h.04v17.69h3.58v1.92h-10.36Z"/>
    <path class="st0" d="M163.73,89.73v-1.92h4.43v-14.24l-4.43,2.26v-2.3l6.73-3.41h.04v17.69h3.58v1.92h-10.36Z"/>
    <path class="st0" d="M184.26,89.99c-.91,0-1.77-.16-2.57-.49-.8-.33-1.51-.79-2.12-1.39-.61-.6-1.09-1.29-1.44-2.08s-.52-1.64-.52-2.55c0-.84.15-1.62.45-2.35.3-.73.71-1.38,1.24-1.95.53-.57,1.13-1.03,1.81-1.39-.41-.4-.74-.85-.98-1.36-.24-.51-.36-1.09-.36-1.73s.12-1.2.35-1.74c.23-.53.56-1,.97-1.41.41-.41.89-.72,1.44-.94.55-.22,1.13-.33,1.74-.33s1.21.11,1.75.33c.54.22,1.02.53,1.43.94.41.4.74.87.97,1.41.23.53.35,1.11.35,1.74s-.12,1.22-.36,1.74c-.24.52-.57.97-.98,1.35.7.36,1.3.82,1.82,1.39s.93,1.22,1.23,1.95.45,1.52.45,2.35c0,.91-.17,1.76-.52,2.55s-.83,1.48-1.44,2.08c-.61.6-1.32,1.06-2.12,1.39s-1.66.49-2.57.49ZM184.26,87.81c.81,0,1.55-.2,2.21-.59.66-.39,1.18-.91,1.57-1.57.38-.65.58-1.39.58-2.2s-.19-1.54-.58-2.21-.91-1.18-1.57-1.57c-.66-.38-1.4-.58-2.21-.58s-1.54.19-2.2.58c-.65.38-1.18.91-1.57,1.57s-.59,1.4-.59,2.21.2,1.54.59,2.2c.39.65.91,1.18,1.57,1.57.65.39,1.39.59,2.2.59ZM184.26,77.24c.45,0,.87-.11,1.24-.33.37-.22.66-.51.88-.88.22-.37.33-.78.33-1.24s-.11-.87-.33-1.24-.52-.66-.88-.88c-.37-.22-.78-.33-1.24-.33s-.87.11-1.24.33c-.37.22-.66.52-.88.88s-.33.78-.33,1.24.11.87.33,1.24c.22.37.52.66.88.88.37.22.78.33,1.24.33Z"/>
    <path class="st0" d="M200.24,89.99c-1.12,0-2.1-.28-2.94-.84-.84-.56-1.54-1.31-2.1-2.26s-.98-2-1.26-3.18c-.28-1.17-.42-2.36-.42-3.57s.14-2.4.42-3.57.7-2.23,1.26-3.18c.56-.94,1.26-1.7,2.1-2.26.84-.56,1.82-.84,2.94-.84s2.1.28,2.94.84c.84.56,1.54,1.31,2.1,2.26.56.95.98,2,1.26,3.18.28,1.17.42,2.36.42,3.57s-.14,2.4-.42,3.57c-.28,1.17-.7,2.23-1.26,3.18-.56.94-1.26,1.7-2.1,2.26-.84.56-1.82.84-2.94.84ZM200.24,87.81c.75,0,1.4-.23,1.94-.68s.98-1.06,1.32-1.81c.34-.75.6-1.58.77-2.48s.26-1.8.26-2.7-.09-1.79-.26-2.7-.43-1.73-.77-2.48c-.34-.75-.78-1.36-1.32-1.81-.54-.45-1.19-.68-1.94-.68s-1.38.23-1.93.68c-.55.46-.99,1.06-1.33,1.81s-.6,1.58-.77,2.48c-.17.9-.26,1.8-.26,2.7s.08,1.79.26,2.7c.17.9.43,1.73.77,2.48s.78,1.36,1.33,1.81c.55.45,1.19.68,1.93.68Z"/>
    <path class="st0" d="M215.14,89.73l4.5-6.78-4.01-6.01h2.69l1.24,1.96c.27.41.54.84.8,1.29.26.45.49.91.69,1.38.21-.47.45-.92.71-1.36.26-.44.53-.87.8-1.3l1.21-1.96h2.64l-4.01,6.01,4.5,6.78h-2.73l-1.75-2.79c-.26-.41-.51-.83-.77-1.25s-.48-.86-.68-1.31c-.2.46-.43.89-.68,1.31-.26.42-.51.83-.77,1.25l-1.75,2.79h-2.64Z"/>
    <path class="st0" d="M241.8,89.99c-.91,0-1.77-.16-2.57-.49-.8-.33-1.51-.79-2.12-1.39-.61-.6-1.09-1.29-1.44-2.08s-.52-1.64-.52-2.55c0-.84.15-1.62.45-2.35.3-.73.71-1.38,1.24-1.95.53-.57,1.13-1.03,1.81-1.39-.41-.4-.74-.85-.98-1.36-.24-.51-.36-1.09-.36-1.73s.12-1.2.35-1.74c.23-.53.56-1,.97-1.41.41-.41.89-.72,1.44-.94.55-.22,1.13-.33,1.74-.33s1.21.11,1.75.33c.54.22,1.02.53,1.43.94.41.4.74.87.97,1.41.23.53.35,1.11.35,1.74s-.12,1.22-.36,1.74c-.24.52-.57.97-.98,1.35.7.36,1.3.82,1.82,1.39s.93,1.22,1.23,1.95.45,1.52.45,2.35c0,.91-.17,1.76-.52,2.55s-.83,1.48-1.44,2.08c-.61.6-1.32,1.06-2.12,1.39s-1.66.49-2.57.49ZM241.8,87.81c.81,0,1.55-.2,2.21-.59.66-.39,1.18-.91,1.57-1.57.38-.65.58-1.39.58-2.2s-.19-1.54-.58-2.21-.91-1.18-1.57-1.57c-.66-.38-1.4-.58-2.21-.58s-1.54.19-2.2.58c-.65.38-1.18.91-1.57,1.57s-.59,1.4-.59,2.21.2,1.54.59,2.2c.39.65.91,1.18,1.57,1.57.65.39,1.39.59,2.2.59ZM241.8,77.24c.45,0,.87-.11,1.24-.33.37-.22.66-.51.88-.88.22-.37.33-.78.33-1.24s-.11-.87-.33-1.24-.52-.66-.88-.88c-.37-.22-.78-.33-1.24-.33s-.87.11-1.24.33c-.37.22-.66.52-.88.88s-.33.78-.33,1.24.11.87.33,1.24c.22.37.52.66.88.88.37.22.78.33,1.24.33Z"/>
    <path class="st0" d="M259.51,89.73v-5.16h-9.21v-.04l7.18-13.98h2.56l-6.22,11.98h5.75v-4.31l2.17-1.15v5.46h2.88v2.05h-2.81v5.16h-2.3Z"/>
    <path class="st0" d="M269.23,89.73v-1.92h4.43v-14.24l-4.43,2.26v-2.3l6.73-3.41h.04v17.69h3.58v1.92h-10.36Z"/>
  </g>
  <g>
    <path class="st4" d="M523.29,559.41c-.91,0-1.77-.16-2.57-.49-.8-.33-1.51-.79-2.12-1.39-.61-.6-1.09-1.29-1.44-2.08-.35-.79-.52-1.64-.52-2.55,0-.84.15-1.62.45-2.35.3-.73.71-1.38,1.24-1.95s1.13-1.03,1.81-1.39c-.41-.4-.74-.85-.98-1.36-.24-.51-.36-1.09-.36-1.73s.12-1.2.35-1.74c.23-.53.56-1,.97-1.41.41-.41.89-.72,1.44-.94.55-.22,1.13-.33,1.74-.33s1.21.11,1.75.33c.54.22,1.02.53,1.43.94.41.4.74.87.97,1.41.23.53.35,1.11.35,1.74s-.12,1.22-.36,1.74c-.24.52-.57.97-.98,1.35.7.36,1.3.82,1.82,1.39s.93,1.22,1.23,1.95.45,1.52.45,2.35c0,.91-.17,1.76-.52,2.55-.35.79-.83,1.48-1.44,2.08-.61.6-1.32,1.06-2.12,1.39-.8.33-1.66.49-2.57.49ZM523.29,557.24c.81,0,1.54-.2,2.21-.59.66-.39,1.18-.91,1.57-1.57s.58-1.39.58-2.2-.19-1.55-.58-2.21c-.38-.66-.91-1.18-1.57-1.57-.66-.38-1.4-.58-2.21-.58s-1.54.19-2.2.58-1.18.91-1.57,1.57c-.39.66-.59,1.4-.59,2.21s.2,1.54.59,2.2.91,1.18,1.57,1.57,1.39.59,2.2.59ZM523.29,546.66c.46,0,.87-.11,1.24-.33.37-.22.66-.51.88-.88.22-.37.33-.78.33-1.24s-.11-.87-.33-1.24c-.22-.37-.52-.66-.88-.88-.37-.22-.78-.33-1.24-.33s-.87.11-1.24.33c-.37.22-.66.51-.88.88-.22.37-.33.78-.33,1.24s.11.87.33,1.24c.22.37.51.66.88.88.37.22.78.33,1.24.33Z"/>
    <path class="st4" d="M541,559.15v-5.16h-9.21v-.04l7.18-13.98h2.56l-6.22,11.98h5.75v-4.3l2.17-1.15v5.46h2.88v2.05h-2.81v5.16h-2.3Z"/>
    <path class="st4" d="M550.72,559.15v-1.92h4.43v-14.24l-4.43,2.26v-2.3l6.73-3.41h.04v17.69h3.58v1.92h-10.36Z"/>
  </g>
  <g>
    <path class="st4" d="M77.62,240.14c-.91,0-1.77-.16-2.57-.49-.8-.33-1.51-.79-2.12-1.39-.61-.6-1.09-1.29-1.44-2.08s-.52-1.64-.52-2.55c0-.84.15-1.62.45-2.35.3-.73.71-1.38,1.24-1.95.53-.57,1.13-1.03,1.81-1.39-.41-.4-.74-.85-.98-1.36-.24-.51-.36-1.09-.36-1.73s.12-1.2.35-1.74c.23-.53.56-1,.97-1.41.41-.41.89-.72,1.44-.94.55-.22,1.13-.33,1.74-.33s1.21.11,1.75.33c.54.22,1.02.53,1.43.94.41.4.74.87.97,1.41.23.53.35,1.11.35,1.74s-.12,1.22-.36,1.74c-.24.52-.57.97-.98,1.35.7.36,1.3.82,1.82,1.39s.93,1.22,1.23,1.95.45,1.52.45,2.35c0,.91-.17,1.76-.52,2.55s-.83,1.48-1.44,2.08c-.61.6-1.32,1.06-2.12,1.39s-1.66.49-2.57.49ZM77.62,237.96c.81,0,1.55-.2,2.21-.59.66-.39,1.18-.91,1.57-1.57.38-.65.58-1.39.58-2.2s-.19-1.54-.58-2.21-.91-1.18-1.57-1.57c-.66-.38-1.4-.58-2.21-.58s-1.54.19-2.2.58c-.65.38-1.18.91-1.57,1.57s-.59,1.4-.59,2.21.2,1.54.59,2.2c.39.65.91,1.18,1.57,1.57.65.39,1.39.59,2.2.59ZM77.62,227.39c.45,0,.87-.11,1.24-.33.37-.22.66-.51.88-.88.22-.37.33-.78.33-1.24s-.11-.87-.33-1.24-.52-.66-.88-.88c-.37-.22-.78-.33-1.24-.33s-.87.11-1.24.33c-.37.22-.66.52-.88.88s-.33.78-.33,1.24.11.87.33,1.24c.22.37.52.66.88.88.37.22.78.33,1.24.33Z"/>
    <path class="st4" d="M95.33,239.88v-5.16h-9.21v-.04l7.18-13.98h2.56l-6.22,11.98h5.75v-4.31l2.17-1.15v5.46h2.88v2.05h-2.81v5.16h-2.3Z"/>
    <path class="st4" d="M105.05,239.88v-1.92h4.43v-14.24l-4.43,2.26v-2.3l6.73-3.41h.04v17.69h3.58v1.92h-10.36Z"/>
    <path class="st4" d="M124.48,239.88l4.5-6.78-4.01-6.01h2.69l1.24,1.96c.27.41.54.84.8,1.29.26.45.49.91.69,1.38.21-.47.45-.92.71-1.36.26-.44.53-.87.8-1.3l1.21-1.96h2.64l-4.01,6.01,4.5,6.78h-2.73l-1.75-2.79c-.26-.41-.51-.83-.77-1.25s-.48-.86-.68-1.31c-.2.46-.43.89-.68,1.31-.26.42-.51.83-.77,1.25l-1.75,2.79h-2.64Z"/>
    <path class="st4" d="M150.44,240.14c-1.22,0-2.34-.28-3.36-.85-1.02-.57-1.81-1.35-2.4-2.34l1.41-2.79c.1.72.35,1.37.77,1.95.41.58.93,1.03,1.54,1.36.62.33,1.3.5,2.04.5.8,0,1.52-.2,2.18-.59.66-.39,1.19-.91,1.58-1.57.39-.65.59-1.38.59-2.17s-.2-1.52-.6-2.17c-.4-.65-.93-1.18-1.59-1.57s-1.4-.59-2.23-.59c-.71,0-1.37.16-1.99.48-.62.32-1.11.75-1.48,1.29h-.04v-10.38h8.65v2.17h-6.56v4.73c.28-.13.58-.22.88-.27.31-.05.6-.07.88-.07.87,0,1.68.16,2.45.48.77.32,1.45.77,2.04,1.34.59.58,1.05,1.25,1.39,2.02s.5,1.62.5,2.53-.17,1.76-.52,2.55c-.35.79-.83,1.48-1.45,2.08-.62.6-1.33,1.06-2.13,1.39-.8.33-1.65.49-2.55.49Z"/>
    <path class="st4" d="M165.02,239.88l4.11-7.57c-.38.28-.78.48-1.19.59s-.82.16-1.24.16c-.82,0-1.61-.16-2.35-.47-.75-.31-1.4-.75-1.97-1.31-.57-.56-1.02-1.22-1.34-1.98-.33-.76-.49-1.59-.49-2.48s.17-1.73.51-2.5c.34-.77.81-1.45,1.41-2.04.6-.58,1.29-1.03,2.08-1.35.79-.32,1.63-.48,2.53-.48s1.74.16,2.53.48c.79.32,1.48.77,2.08,1.35.6.58,1.07,1.26,1.41,2.04.34.77.51,1.61.51,2.5,0,.55-.07,1.09-.2,1.6-.14.51-.32,1-.56,1.47l-5.16,10h-2.64ZM167.07,231.06c.78,0,1.49-.19,2.13-.56.64-.38,1.15-.88,1.52-1.52.38-.64.56-1.35.56-2.13s-.19-1.49-.56-2.13c-.38-.64-.88-1.15-1.52-1.52-.64-.38-1.35-.56-2.13-.56s-1.49.19-2.13.56c-.64.38-1.15.88-1.52,1.52-.38.64-.56,1.35-.56,2.13s.19,1.49.56,2.13c.38.64.88,1.15,1.52,1.52.64.38,1.35.56,2.13.56Z"/>
    <path class="st4" d="M184.84,239.88v-5.16h-9.21v-.04l7.18-13.98h2.56l-6.22,11.98h5.75v-4.31l2.17-1.15v5.46h2.88v2.05h-2.81v5.16h-2.3Z"/>
    <path class="st4" d="M199.17,239.88v-10.42h1.74v1.49c.38-.57.87-.99,1.45-1.28.58-.28,1.2-.43,1.85-.43.71,0,1.35.17,1.94.49.59.33,1.06.79,1.42,1.38.41-.62.93-1.09,1.57-1.41s1.32-.47,2.04-.47c.79,0,1.51.19,2.16.56s1.17.89,1.56,1.55.58,1.45.58,2.35v6.16h-1.88v-5.94c0-.95-.27-1.67-.81-2.16-.54-.49-1.16-.74-1.87-.74-.44,0-.87.1-1.28.3-.41.2-.75.5-1.01.92-.26.42-.39.96-.39,1.63v5.99h-1.88v-5.94c0-.66-.13-1.2-.39-1.63-.26-.43-.6-.75-1.01-.96-.41-.21-.84-.32-1.28-.32s-.85.1-1.26.29c-.41.2-.75.5-1.02.92-.27.42-.4.97-.4,1.65v5.99h-1.88Z"/>
    <path class="st4" d="M218.61,239.88v-10.42h1.74v1.49c.38-.57.87-.99,1.45-1.28.58-.28,1.2-.43,1.85-.43.71,0,1.35.17,1.94.49.59.33,1.06.79,1.42,1.38.41-.62.93-1.09,1.57-1.41s1.32-.47,2.04-.47c.79,0,1.51.19,2.16.56s1.17.89,1.56,1.55.58,1.45.58,2.35v6.16h-1.88v-5.94c0-.95-.27-1.67-.81-2.16-.54-.49-1.16-.74-1.87-.74-.44,0-.87.1-1.28.3-.41.2-.75.5-1.01.92-.26.42-.39.96-.39,1.63v5.99h-1.88v-5.94c0-.66-.13-1.2-.39-1.63-.26-.43-.6-.75-1.01-.96-.41-.21-.84-.32-1.28-.32s-.85.1-1.26.29c-.41.2-.75.5-1.02.92-.27.42-.4.97-.4,1.65v5.99h-1.88Z"/>
    <path class="st4" d="M77.62,276.97c-.91,0-1.77-.16-2.57-.49-.8-.33-1.51-.79-2.12-1.39-.61-.6-1.09-1.29-1.44-2.08s-.52-1.64-.52-2.55c0-.84.15-1.62.45-2.35.3-.73.71-1.38,1.24-1.95.53-.57,1.13-1.03,1.81-1.39-.41-.4-.74-.85-.98-1.36-.24-.51-.36-1.09-.36-1.73s.12-1.2.35-1.74c.23-.53.56-1,.97-1.41.41-.41.89-.72,1.44-.94.55-.22,1.13-.33,1.74-.33s1.21.11,1.75.33c.54.22,1.02.53,1.43.94.41.4.74.87.97,1.41.23.53.35,1.11.35,1.74s-.12,1.22-.36,1.74c-.24.52-.57.97-.98,1.35.7.36,1.3.82,1.82,1.39s.93,1.22,1.23,1.95.45,1.52.45,2.35c0,.91-.17,1.76-.52,2.55s-.83,1.48-1.44,2.08c-.61.6-1.32,1.06-2.12,1.39s-1.66.49-2.57.49ZM77.62,274.79c.81,0,1.55-.2,2.21-.59.66-.39,1.18-.91,1.57-1.57.38-.65.58-1.39.58-2.2s-.19-1.54-.58-2.21-.91-1.18-1.57-1.57c-.66-.38-1.4-.58-2.21-.58s-1.54.19-2.2.58c-.65.38-1.18.91-1.57,1.57s-.59,1.4-.59,2.21.2,1.54.59,2.2c.39.65.91,1.18,1.57,1.57.65.39,1.39.59,2.2.59ZM77.62,264.22c.45,0,.87-.11,1.24-.33.37-.22.66-.51.88-.88.22-.37.33-.78.33-1.24s-.11-.87-.33-1.24-.52-.66-.88-.88c-.37-.22-.78-.33-1.24-.33s-.87.11-1.24.33c-.37.22-.66.52-.88.88s-.33.78-.33,1.24.11.87.33,1.24c.22.37.52.66.88.88.37.22.78.33,1.24.33Z"/>
    <path class="st4" d="M95.33,276.71v-5.16h-9.21v-.04l7.18-13.98h2.56l-6.22,11.98h5.75v-4.31l2.17-1.15v5.46h2.88v2.05h-2.81v5.16h-2.3Z"/>
    <path class="st4" d="M101.72,279.91c.43-.53.8-1.11,1.12-1.76.32-.65.57-1.35.75-2.12.18-.77.27-1.61.27-2.51h2.3c0,1.21-.17,2.35-.5,3.42-.33,1.07-.79,2.06-1.37,2.97h-2.56Z"/>
    <path class="st4" d="M110.8,276.71v-1.92h4.43v-14.24l-4.43,2.26v-2.3l6.73-3.41h.04v17.69h3.58v1.92h-10.36Z"/>
    <path class="st4" d="M130.24,276.71l4.5-6.78-4.01-6.01h2.69l1.24,1.96c.27.41.54.84.8,1.29.26.45.49.91.69,1.38.21-.47.45-.92.71-1.36.26-.44.53-.87.8-1.3l1.21-1.96h2.64l-4.01,6.01,4.5,6.78h-2.73l-1.75-2.79c-.26-.41-.51-.83-.77-1.25s-.48-.86-.68-1.31c-.2.46-.43.89-.68,1.31-.26.42-.51.83-.77,1.25l-1.75,2.79h-2.64Z"/>
    <path class="st4" d="M156.2,276.97c-1.22,0-2.34-.28-3.36-.85-1.02-.57-1.81-1.35-2.4-2.34l1.41-2.79c.1.72.35,1.37.77,1.95.41.58.93,1.03,1.54,1.36.62.33,1.3.5,2.04.5.8,0,1.52-.2,2.18-.59.66-.39,1.19-.91,1.58-1.57.39-.65.59-1.38.59-2.17s-.2-1.52-.6-2.17c-.4-.65-.93-1.18-1.59-1.57s-1.4-.59-2.23-.59c-.71,0-1.37.16-1.99.48-.62.32-1.11.75-1.48,1.29h-.04v-10.38h8.65v2.17h-6.56v4.73c.28-.13.58-.22.88-.27.31-.05.6-.07.88-.07.87,0,1.68.16,2.45.48.77.32,1.45.77,2.04,1.34.59.58,1.05,1.25,1.39,2.02s.5,1.62.5,2.53-.17,1.76-.52,2.55c-.35.79-.83,1.48-1.45,2.08-.62.6-1.33,1.06-2.13,1.39-.8.33-1.65.49-2.55.49Z"/>
    <path class="st4" d="M170.77,276.71l4.11-7.57c-.38.28-.78.48-1.19.59s-.82.16-1.24.16c-.82,0-1.61-.16-2.35-.47-.75-.31-1.4-.75-1.97-1.31-.57-.56-1.02-1.22-1.34-1.98-.33-.76-.49-1.59-.49-2.48s.17-1.73.51-2.5c.34-.77.81-1.45,1.41-2.04.6-.58,1.29-1.03,2.08-1.35.79-.32,1.63-.48,2.53-.48s1.74.16,2.53.48c.79.32,1.48.77,2.08,1.35.6.58,1.07,1.26,1.41,2.04.34.77.51,1.61.51,2.5,0,.55-.07,1.09-.2,1.6-.14.51-.32,1-.56,1.47l-5.16,10h-2.64ZM172.82,267.89c.78,0,1.49-.19,2.13-.56.64-.38,1.15-.88,1.52-1.52.38-.64.56-1.35.56-2.13s-.19-1.49-.56-2.13c-.38-.64-.88-1.15-1.52-1.52-.64-.38-1.35-.56-2.13-.56s-1.49.19-2.13.56c-.64.38-1.15.88-1.52,1.52-.38.64-.56,1.35-.56,2.13s.19,1.49.56,2.13c.38.64.88,1.15,1.52,1.52.64.38,1.35.56,2.13.56Z"/>
    <path class="st4" d="M179.73,279.91c.43-.53.8-1.11,1.12-1.76.32-.65.57-1.35.75-2.12.18-.77.27-1.61.27-2.51h2.3c0,1.21-.17,2.35-.5,3.42-.33,1.07-.79,2.06-1.37,2.97h-2.56Z"/>
    <path class="st4" d="M195.07,276.71v-5.16h-9.21v-.04l7.18-13.98h2.56l-6.22,11.98h5.75v-4.31l2.17-1.15v5.46h2.88v2.05h-2.81v5.16h-2.3Z"/>
    <path class="st4" d="M214.19,276.92c-.76,0-1.48-.14-2.14-.43-.67-.28-1.25-.67-1.76-1.16-.51-.49-.91-1.07-1.19-1.73-.28-.66-.43-1.36-.43-2.1s.14-1.46.43-2.11c.28-.65.68-1.23,1.19-1.72.51-.49,1.1-.88,1.76-1.16.67-.28,1.38-.43,2.14-.43s1.46.13,2.12.4c.66.27,1.24.62,1.74,1.06l-.57,2.36c-.29-.58-.73-1.06-1.31-1.46s-1.25-.59-1.99-.59c-.67,0-1.28.16-1.83.49s-.99.77-1.31,1.32c-.32.55-.49,1.16-.49,1.83s.16,1.27.49,1.82c.32.56.76,1,1.31,1.33.55.33,1.16.49,1.83.49.74,0,1.4-.19,1.99-.57.58-.38,1.02-.87,1.31-1.48l.57,2.36c-.5.44-1.08.79-1.74,1.06-.66.27-1.37.4-2.12.4Z"/>
    <path class="st4" d="M220.34,276.71v-10.42h1.74v1.49c.38-.57.87-.99,1.45-1.28.58-.28,1.2-.43,1.85-.43.71,0,1.35.17,1.94.49.59.33,1.06.79,1.42,1.38.41-.62.93-1.09,1.57-1.41s1.32-.47,2.04-.47c.79,0,1.51.19,2.16.56s1.17.89,1.56,1.55.58,1.45.58,2.35v6.16h-1.88v-5.94c0-.95-.27-1.67-.81-2.16-.54-.49-1.16-.74-1.87-.74-.44,0-.87.1-1.28.3-.41.2-.75.5-1.01.92-.26.42-.39.96-.39,1.63v5.99h-1.88v-5.94c0-.66-.13-1.2-.39-1.63-.26-.43-.6-.75-1.01-.96-.41-.21-.84-.32-1.28-.32s-.85.1-1.26.29c-.41.2-.75.5-1.02.92-.27.42-.4.97-.4,1.65v5.99h-1.88Z"/>
  </g>
  <g>
    <path class="st4" d="M695.02,393.16c0,1.22-.28,2.34-.85,3.36-.57,1.02-1.35,1.81-2.34,2.4l-2.79-1.41c.72-.1,1.38-.35,1.95-.77.58-.41,1.03-.93,1.36-1.54.33-.62.5-1.3.5-2.04,0-.8-.2-1.52-.59-2.18s-.91-1.19-1.57-1.58c-.65-.39-1.38-.59-2.17-.59s-1.52.2-2.17.6c-.65.4-1.17.93-1.57,1.59-.39.66-.59,1.4-.59,2.23,0,.71.16,1.37.48,1.99.32.62.75,1.11,1.29,1.48v.04h-10.38v-8.65h2.17v6.56h4.73c-.13-.28-.22-.58-.27-.88-.05-.31-.07-.6-.07-.88,0-.87.16-1.68.48-2.45.32-.77.77-1.45,1.34-2.04.58-.59,1.25-1.05,2.02-1.39s1.62-.5,2.53-.5,1.76.17,2.55.52c.79.35,1.48.83,2.08,1.45.6.62,1.06,1.33,1.39,2.13.33.8.49,1.65.49,2.55Z"/>
    <path class="st4" d="M694.77,378.58l-7.57-4.11c.29.38.48.78.59,1.19.11.41.16.82.16,1.24,0,.82-.16,1.61-.47,2.35s-.75,1.4-1.31,1.97c-.56.57-1.22,1.02-1.98,1.34-.76.33-1.59.49-2.48.49s-1.73-.17-2.5-.51c-.77-.34-1.45-.81-2.04-1.41-.58-.6-1.03-1.29-1.35-2.08-.32-.79-.48-1.63-.48-2.53s.16-1.74.48-2.53c.32-.79.77-1.48,1.35-2.08.58-.6,1.26-1.07,2.04-1.41.78-.34,1.61-.51,2.5-.51.55,0,1.09.07,1.6.2.51.14,1,.32,1.47.56l10,5.16v2.64ZM685.95,376.54c0-.78-.19-1.49-.57-2.13-.38-.64-.88-1.15-1.52-1.52s-1.35-.56-2.13-.56-1.49.19-2.13.56-1.15.88-1.52,1.52c-.38.64-.57,1.35-.57,2.13s.19,1.49.57,2.13c.38.64.88,1.15,1.52,1.52.64.38,1.35.56,2.13.56s1.49-.19,2.13-.56c.64-.38,1.15-.88,1.52-1.52.38-.64.57-1.35.57-2.13Z"/>
    <path class="st4" d="M694.77,358.76h-5.16v9.21h-.04l-13.98-7.18v-2.56l11.98,6.22v-5.75h-4.3l-1.15-2.17h5.46v-2.88h2.05v2.81h5.16v2.3Z"/>
  </g>
  <g>
    <path class="st4" d="M271.02,1051.26v-5.16h-9.21v-.04l7.18-13.98h2.56l-6.22,11.98h5.75v-4.3l2.17-1.15v5.46h2.88v2.05h-2.81v5.16h-2.3Z"/>
    <path class="st4" d="M279.82,1051.26v-.04l7.69-11.4c.37-.54.62-1.01.75-1.41s.19-.77.19-1.11c0-.61-.15-1.17-.45-1.66s-.7-.9-1.21-1.19c-.51-.3-1.08-.45-1.71-.45s-1.19.15-1.69.45c-.5.3-.91.7-1.2,1.19s-.45,1.05-.45,1.66c0,.48.11.95.32,1.39.21.44.54.84.98,1.19h-2.92c-.45-.87-.68-1.73-.68-2.58,0-.77.15-1.48.45-2.15s.71-1.25,1.23-1.75c.52-.5,1.12-.88,1.8-1.16s1.41-.42,2.2-.42,1.49.14,2.17.42,1.28.66,1.8,1.16c.52.5.93,1.08,1.23,1.75s.45,1.38.45,2.15c0,.4-.04.8-.13,1.19-.09.4-.23.8-.43,1.21-.2.41-.46.86-.79,1.34l-5.54,8.04h7.25v2.17h-11.3Z"/>
    <path class="st4" d="M301.26,1051.52c-1.12,0-2.1-.28-2.94-.84-.84-.56-1.54-1.31-2.1-2.26-.56-.94-.98-2-1.26-3.17-.28-1.17-.42-2.36-.42-3.57s.14-2.4.42-3.57c.28-1.17.7-2.23,1.26-3.18.56-.95,1.26-1.7,2.1-2.26.84-.56,1.82-.84,2.94-.84s2.1.28,2.94.84c.84.56,1.54,1.31,2.1,2.26.56.94.98,2,1.26,3.18.28,1.17.42,2.36.42,3.57s-.14,2.4-.42,3.57c-.28,1.17-.7,2.23-1.26,3.17-.56.95-1.26,1.7-2.1,2.26-.84.56-1.82.84-2.94.84ZM301.26,1049.35c.75,0,1.4-.23,1.94-.68.54-.45.98-1.06,1.32-1.81.34-.75.6-1.58.77-2.48s.26-1.8.26-2.7-.09-1.79-.26-2.7c-.17-.9-.43-1.73-.77-2.48-.34-.75-.78-1.36-1.32-1.81s-1.19-.68-1.94-.68-1.38.23-1.93.68c-.55.46-.99,1.06-1.33,1.81s-.6,1.58-.77,2.48c-.17.9-.26,1.8-.26,2.7s.08,1.79.26,2.7c.17.9.43,1.73.77,2.48.34.75.78,1.36,1.33,1.81.55.46,1.19.68,1.93.68Z"/>
  </g>
  <g>
    <path class="st4" d="M623.75,810.4v-5.16h-9.21v-.04l7.18-13.98h2.56l-6.22,11.98h5.75v-4.3l2.17-1.15v5.46h2.88v2.05h-2.81v5.16h-2.3Z"/>
    <path class="st4" d="M632.55,810.4v-.04l7.69-11.4c.37-.54.62-1.01.75-1.41.13-.4.19-.77.19-1.11,0-.61-.15-1.17-.45-1.66-.3-.5-.7-.9-1.21-1.19-.51-.3-1.08-.45-1.71-.45s-1.19.15-1.69.45c-.5.3-.91.7-1.2,1.19-.3.5-.45,1.05-.45,1.66,0,.48.11.95.32,1.39.21.44.54.84.98,1.19h-2.92c-.46-.87-.68-1.73-.68-2.58,0-.77.15-1.48.45-2.15.3-.67.71-1.25,1.22-1.75.52-.5,1.12-.88,1.8-1.16.68-.28,1.41-.42,2.2-.42s1.49.14,2.17.42c.68.28,1.28.66,1.8,1.16.52.5.93,1.08,1.23,1.75.3.67.45,1.38.45,2.15,0,.4-.04.8-.13,1.19-.08.4-.23.8-.43,1.21-.2.41-.46.86-.79,1.34l-5.54,8.04h7.25v2.17h-11.3Z"/>
    <path class="st4" d="M653.99,810.66c-1.12,0-2.1-.28-2.94-.84-.84-.56-1.54-1.31-2.1-2.26-.56-.94-.98-2-1.26-3.17-.28-1.17-.42-2.36-.42-3.57s.14-2.4.42-3.57c.28-1.17.7-2.23,1.26-3.18.56-.95,1.26-1.7,2.1-2.26.84-.56,1.82-.84,2.94-.84s2.1.28,2.94.84c.84.56,1.54,1.31,2.1,2.26.56.94.98,2,1.26,3.18.28,1.17.42,2.36.42,3.57s-.14,2.4-.42,3.57c-.28,1.17-.7,2.23-1.26,3.17-.56.95-1.26,1.7-2.1,2.26-.84.56-1.82.84-2.94.84ZM653.99,808.48c.75,0,1.4-.23,1.94-.68.54-.45.98-1.06,1.32-1.81.34-.75.6-1.58.77-2.48.17-.9.26-1.8.26-2.7s-.09-1.79-.26-2.7c-.17-.9-.43-1.73-.77-2.48s-.78-1.36-1.32-1.81-1.19-.68-1.94-.68-1.38.23-1.93.68-.99,1.06-1.33,1.81-.6,1.58-.77,2.48c-.17.9-.26,1.8-.26,2.7s.09,1.79.26,2.7c.17.9.43,1.73.77,2.48.34.75.79,1.36,1.33,1.81.55.46,1.19.68,1.93.68Z"/>
  </g>
  <g>
    <path class="st4" d="M408.23,700.61v-5.16h-9.21v-.04l7.18-13.98h2.56l-6.22,11.98h5.75v-4.3l2.17-1.15v5.46h2.88v2.05h-2.81v5.16h-2.3Z"/>
    <path class="st4" d="M417.03,700.61v-.04l7.69-11.4c.37-.54.62-1.01.75-1.41.13-.4.19-.77.19-1.11,0-.61-.15-1.17-.45-1.66-.3-.5-.7-.9-1.21-1.19-.51-.3-1.08-.45-1.71-.45s-1.19.15-1.69.45c-.5.3-.91.7-1.2,1.19-.3.5-.45,1.05-.45,1.66,0,.48.11.95.32,1.39.21.44.54.84.98,1.19h-2.92c-.46-.87-.68-1.73-.68-2.58,0-.77.15-1.48.45-2.15.3-.67.71-1.25,1.22-1.75.52-.5,1.12-.88,1.8-1.16.68-.28,1.41-.42,2.2-.42s1.49.14,2.17.42c.68.28,1.28.66,1.8,1.16.52.5.93,1.08,1.23,1.75.3.67.45,1.38.45,2.15,0,.4-.04.8-.13,1.19-.08.4-.23.8-.43,1.21-.2.41-.46.86-.79,1.34l-5.54,8.04h7.25v2.17h-11.3Z"/>
    <path class="st4" d="M438.47,700.87c-1.12,0-2.1-.28-2.94-.84-.84-.56-1.54-1.31-2.1-2.26-.56-.94-.98-2-1.26-3.17-.28-1.17-.42-2.36-.42-3.57s.14-2.4.42-3.57c.28-1.17.7-2.23,1.26-3.18.56-.95,1.26-1.7,2.1-2.26.84-.56,1.82-.84,2.94-.84s2.1.28,2.94.84c.84.56,1.54,1.31,2.1,2.26.56.94.98,2,1.26,3.18.28,1.17.42,2.36.42,3.57s-.14,2.4-.42,3.57c-.28,1.17-.7,2.23-1.26,3.17-.56.95-1.26,1.7-2.1,2.26-.84.56-1.82.84-2.94.84ZM438.47,698.69c.75,0,1.4-.23,1.94-.68.54-.45.98-1.06,1.32-1.81.34-.75.6-1.58.77-2.48.17-.9.26-1.8.26-2.7s-.09-1.79-.26-2.7c-.17-.9-.43-1.73-.77-2.48s-.78-1.36-1.32-1.81-1.19-.68-1.94-.68-1.38.23-1.93.68-.99,1.06-1.33,1.81-.6,1.58-.77,2.48c-.17.9-.26,1.8-.26,2.7s.09,1.79.26,2.7c.17.9.43,1.73.77,2.48.34.75.79,1.36,1.33,1.81.55.46,1.19.68,1.93.68Z"/>
    <path class="st4" d="M453.36,700.61l4.5-6.78-4.01-6.01h2.69l1.24,1.96c.27.41.54.84.8,1.29.26.45.49.91.69,1.37.21-.47.45-.92.71-1.36s.53-.87.8-1.3l1.21-1.96h2.64l-4.01,6.01,4.5,6.78h-2.73l-1.75-2.79c-.26-.41-.51-.83-.77-1.25-.26-.42-.48-.86-.68-1.31-.2.46-.43.89-.68,1.31-.26.42-.51.83-.77,1.25l-1.75,2.79h-2.64Z"/>
    <path class="st4" d="M474.57,700.61v-.04l7.69-11.4c.37-.54.62-1.01.75-1.41.13-.4.19-.77.19-1.11,0-.61-.15-1.17-.45-1.66-.3-.5-.7-.9-1.21-1.19-.51-.3-1.08-.45-1.71-.45s-1.19.15-1.69.45c-.5.3-.91.7-1.2,1.19-.3.5-.45,1.05-.45,1.66,0,.48.11.95.32,1.39.21.44.54.84.98,1.19h-2.92c-.46-.87-.68-1.73-.68-2.58,0-.77.15-1.48.45-2.15.3-.67.71-1.25,1.22-1.75.52-.5,1.12-.88,1.8-1.16.68-.28,1.41-.42,2.2-.42s1.49.14,2.17.42c.68.28,1.28.66,1.8,1.16.52.5.93,1.08,1.23,1.75.3.67.45,1.38.45,2.15,0,.4-.04.8-.13,1.19-.08.4-.23.8-.43,1.21-.2.41-.46.86-.79,1.34l-5.54,8.04h7.25v2.17h-11.3Z"/>
    <path class="st4" d="M493.9,700.61l4.11-7.57c-.38.29-.78.48-1.19.59-.41.11-.82.16-1.24.16-.82,0-1.61-.16-2.36-.47s-1.4-.75-1.97-1.31-1.02-1.22-1.34-1.98c-.33-.76-.49-1.59-.49-2.48s.17-1.73.51-2.5c.34-.77.81-1.45,1.41-2.04.6-.58,1.29-1.03,2.08-1.35.79-.32,1.63-.48,2.53-.48s1.74.16,2.53.48c.79.32,1.48.77,2.08,1.35.6.58,1.07,1.26,1.41,2.04.34.78.51,1.61.51,2.5,0,.55-.07,1.09-.2,1.6-.14.51-.32,1-.57,1.47l-5.16,10h-2.64ZM495.95,691.79c.78,0,1.49-.19,2.13-.57.64-.38,1.15-.88,1.52-1.52.38-.64.57-1.35.57-2.13s-.19-1.49-.57-2.13c-.38-.64-.88-1.15-1.52-1.52-.64-.38-1.35-.57-2.13-.57s-1.49.19-2.13.57c-.64.38-1.15.88-1.52,1.52-.38.64-.57,1.35-.57,2.13s.19,1.49.57,2.13c.38.64.88,1.15,1.52,1.52.64.38,1.35.57,2.13.57Z"/>
    <path class="st4" d="M506.41,700.61l8.48-17.01h-9.17v-2.17h12.77v.04l-9.48,19.14h-2.6Z"/>
    <path class="st4" d="M527.73,700.61v-10.42h1.74v1.49c.38-.57.87-.99,1.45-1.28.58-.28,1.2-.43,1.85-.43.71,0,1.35.17,1.94.5.59.33,1.07.79,1.42,1.38.41-.62.93-1.09,1.57-1.41s1.32-.47,2.04-.47c.79,0,1.51.19,2.16.56.65.37,1.17.89,1.56,1.55.39.67.58,1.45.58,2.35v6.16h-1.88v-5.94c0-.95-.27-1.67-.81-2.16s-1.16-.74-1.87-.74c-.44,0-.87.1-1.28.29-.41.2-.75.5-1.01.92-.26.42-.39.96-.39,1.63v5.99h-1.88v-5.94c0-.66-.13-1.2-.39-1.63-.26-.43-.6-.75-1.01-.96-.41-.21-.84-.32-1.28-.32s-.85.1-1.26.3c-.41.2-.75.5-1.02.92-.27.42-.4.97-.4,1.65v5.99h-1.88Z"/>
    <path class="st4" d="M547.17,700.61v-10.42h1.74v1.49c.38-.57.87-.99,1.45-1.28.58-.28,1.2-.43,1.85-.43.71,0,1.35.17,1.94.5.59.33,1.07.79,1.42,1.38.41-.62.93-1.09,1.57-1.41s1.32-.47,2.04-.47c.79,0,1.51.19,2.16.56.65.37,1.17.89,1.56,1.55.39.67.58,1.45.58,2.35v6.16h-1.88v-5.94c0-.95-.27-1.67-.81-2.16s-1.16-.74-1.87-.74c-.44,0-.87.1-1.28.29-.41.2-.75.5-1.01.92-.26.42-.39.96-.39,1.63v5.99h-1.88v-5.94c0-.66-.13-1.2-.39-1.63-.26-.43-.6-.75-1.01-.96-.41-.21-.84-.32-1.28-.32s-.85.1-1.26.3c-.41.2-.75.5-1.02.92-.27.42-.4.97-.4,1.65v5.99h-1.88Z"/>
    <path class="st4" d="M408.23,737.44v-5.16h-9.21v-.04l7.18-13.98h2.56l-6.22,11.98h5.75v-4.3l2.17-1.15v5.46h2.88v2.05h-2.81v5.16h-2.3Z"/>
    <path class="st4" d="M417.03,737.44v-.04l7.69-11.4c.37-.54.62-1.01.75-1.41.13-.4.19-.77.19-1.11,0-.61-.15-1.17-.45-1.66-.3-.5-.7-.9-1.21-1.19-.51-.3-1.08-.45-1.71-.45s-1.19.15-1.69.45c-.5.3-.91.7-1.2,1.19-.3.5-.45,1.05-.45,1.66,0,.48.11.95.32,1.39.21.44.54.84.98,1.19h-2.92c-.46-.87-.68-1.73-.68-2.58,0-.77.15-1.48.45-2.15.3-.67.71-1.25,1.22-1.75.52-.5,1.12-.88,1.8-1.16.68-.28,1.41-.42,2.2-.42s1.49.14,2.17.42c.68.28,1.28.66,1.8,1.16.52.5.93,1.08,1.23,1.75.3.67.45,1.38.45,2.15,0,.4-.04.8-.13,1.19-.08.4-.23.8-.43,1.21-.2.41-.46.86-.79,1.34l-5.54,8.04h7.25v2.17h-11.3Z"/>
    <path class="st4" d="M430.6,740.64c.43-.53.8-1.11,1.12-1.76.32-.65.57-1.35.75-2.12.18-.77.27-1.61.27-2.52h2.3c0,1.21-.17,2.35-.5,3.42-.33,1.07-.79,2.06-1.38,2.97h-2.56Z"/>
    <path class="st4" d="M444.22,737.7c-1.12,0-2.1-.28-2.94-.84-.84-.56-1.54-1.31-2.1-2.26-.56-.94-.98-2-1.26-3.17-.28-1.17-.42-2.36-.42-3.57s.14-2.4.42-3.57c.28-1.17.7-2.23,1.26-3.18.56-.95,1.26-1.7,2.1-2.26.84-.56,1.82-.84,2.94-.84s2.1.28,2.94.84c.84.56,1.54,1.31,2.1,2.26.56.94.98,2,1.26,3.18.28,1.17.42,2.36.42,3.57s-.14,2.4-.42,3.57c-.28,1.17-.7,2.23-1.26,3.17-.56.95-1.26,1.7-2.1,2.26-.84.56-1.82.84-2.94.84ZM444.22,735.52c.75,0,1.4-.23,1.94-.68.54-.45.98-1.06,1.32-1.81.34-.75.6-1.58.77-2.48.17-.9.26-1.8.26-2.7s-.09-1.79-.26-2.7c-.17-.9-.43-1.73-.77-2.48s-.78-1.36-1.32-1.81-1.19-.68-1.94-.68-1.38.23-1.93.68-.99,1.06-1.33,1.81-.6,1.58-.77,2.48c-.17.9-.26,1.8-.26,2.7s.09,1.79.26,2.7c.17.9.43,1.73.77,2.48.34.75.79,1.36,1.33,1.81.55.46,1.19.68,1.93.68Z"/>
    <path class="st4" d="M459.12,737.44l4.5-6.78-4.01-6.01h2.69l1.24,1.96c.27.41.54.84.8,1.29.26.45.49.91.69,1.37.21-.47.45-.92.71-1.36s.53-.87.8-1.3l1.21-1.96h2.64l-4.01,6.01,4.5,6.78h-2.73l-1.75-2.79c-.26-.41-.51-.83-.77-1.25-.26-.42-.48-.86-.68-1.31-.2.46-.43.89-.68,1.31-.26.42-.51.83-.77,1.25l-1.75,2.79h-2.64Z"/>
    <path class="st4" d="M480.32,737.44v-.04l7.69-11.4c.37-.54.62-1.01.75-1.41.13-.4.19-.77.19-1.11,0-.61-.15-1.17-.45-1.66-.3-.5-.7-.9-1.21-1.19-.51-.3-1.08-.45-1.71-.45s-1.19.15-1.69.45c-.5.3-.91.7-1.2,1.19-.3.5-.45,1.05-.45,1.66,0,.48.11.95.32,1.39.21.44.54.84.98,1.19h-2.92c-.46-.87-.68-1.73-.68-2.58,0-.77.15-1.48.45-2.15.3-.67.71-1.25,1.22-1.75.52-.5,1.12-.88,1.8-1.16.68-.28,1.41-.42,2.2-.42s1.49.14,2.17.42c.68.28,1.28.66,1.8,1.16.52.5.93,1.08,1.23,1.75.3.67.45,1.38.45,2.15,0,.4-.04.8-.13,1.19-.08.4-.23.8-.43,1.21-.2.41-.46.86-.79,1.34l-5.54,8.04h7.25v2.17h-11.3Z"/>
    <path class="st4" d="M499.66,737.44l4.11-7.57c-.38.29-.78.48-1.19.59-.41.11-.82.16-1.24.16-.82,0-1.61-.16-2.36-.47s-1.4-.75-1.97-1.31-1.02-1.22-1.34-1.98c-.33-.76-.49-1.59-.49-2.48s.17-1.73.51-2.5c.34-.77.81-1.45,1.41-2.04.6-.58,1.29-1.03,2.08-1.35.79-.32,1.63-.48,2.53-.48s1.74.16,2.53.48c.79.32,1.48.77,2.08,1.35.6.58,1.07,1.26,1.41,2.04.34.78.51,1.61.51,2.5,0,.55-.07,1.09-.2,1.6-.14.51-.32,1-.57,1.47l-5.16,10h-2.64ZM501.7,728.62c.78,0,1.49-.19,2.13-.57.64-.38,1.15-.88,1.52-1.52.38-.64.57-1.35.57-2.13s-.19-1.49-.57-2.13c-.38-.64-.88-1.15-1.52-1.52-.64-.38-1.35-.57-2.13-.57s-1.49.19-2.13.57c-.64.38-1.15.88-1.52,1.52-.38.64-.57,1.35-.57,2.13s.19,1.49.57,2.13c.38.64.88,1.15,1.52,1.52.64.38,1.35.57,2.13.57Z"/>
    <path class="st4" d="M508.61,740.64c.43-.53.8-1.11,1.12-1.76.32-.65.57-1.35.75-2.12.18-.77.27-1.61.27-2.52h2.3c0,1.21-.17,2.35-.5,3.42-.33,1.07-.79,2.06-1.38,2.97h-2.56Z"/>
    <path class="st4" d="M516.96,737.44l8.48-17.01h-9.17v-2.17h12.77v.04l-9.48,19.14h-2.6Z"/>
    <path class="st4" d="M543.07,737.65c-.76,0-1.48-.14-2.14-.42-.67-.28-1.25-.67-1.76-1.16-.51-.49-.91-1.07-1.19-1.73-.28-.66-.43-1.36-.43-2.1s.14-1.46.43-2.11c.28-.65.68-1.23,1.19-1.72.51-.49,1.1-.88,1.76-1.16.67-.28,1.38-.43,2.14-.43s1.46.13,2.12.4c.66.27,1.24.62,1.74,1.06l-.57,2.36c-.29-.58-.73-1.06-1.31-1.46s-1.25-.59-1.99-.59c-.67,0-1.28.17-1.83.5s-.99.77-1.31,1.32c-.32.55-.49,1.16-.49,1.83s.16,1.27.49,1.82c.32.56.76,1,1.31,1.33.55.33,1.16.5,1.83.5.74,0,1.4-.19,1.99-.57s1.02-.87,1.31-1.48l.57,2.36c-.5.44-1.08.79-1.74,1.06-.66.27-1.37.4-2.12.4Z"/>
    <path class="st4" d="M549.22,737.44v-10.42h1.74v1.49c.38-.57.87-.99,1.45-1.28.58-.28,1.2-.43,1.85-.43.71,0,1.35.17,1.94.5.59.33,1.07.79,1.42,1.38.41-.62.93-1.09,1.57-1.41s1.32-.47,2.04-.47c.79,0,1.51.19,2.16.56.65.37,1.17.89,1.56,1.55.39.67.58,1.45.58,2.35v6.16h-1.88v-5.94c0-.95-.27-1.67-.81-2.16s-1.16-.74-1.87-.74c-.44,0-.87.1-1.28.29-.41.2-.75.5-1.01.92-.26.42-.39.96-.39,1.63v5.99h-1.88v-5.94c0-.66-.13-1.2-.39-1.63-.26-.43-.6-.75-1.01-.96-.41-.21-.84-.32-1.28-.32s-.85.1-1.26.3c-.41.2-.75.5-1.02.92-.27.42-.4.97-.4,1.65v5.99h-1.88Z"/>
  </g>
  <g>
    <path class="st4" d="M698.19,763.44h-.04l-11.4-7.69c-.54-.37-1.01-.62-1.41-.75-.4-.13-.77-.19-1.11-.19-.61,0-1.17.15-1.66.45-.5.3-.9.7-1.19,1.21-.3.51-.45,1.08-.45,1.71s.15,1.19.45,1.69c.3.5.7.91,1.19,1.2.5.3,1.05.45,1.66.45.48,0,.95-.11,1.39-.32.44-.21.84-.54,1.19-.98v2.92c-.87.46-1.73.68-2.58.68-.77,0-1.48-.15-2.15-.45-.67-.3-1.25-.71-1.75-1.22-.5-.52-.88-1.12-1.16-1.8-.28-.68-.42-1.41-.42-2.2s.14-1.49.42-2.17c.28-.68.66-1.28,1.16-1.8.5-.52,1.08-.93,1.75-1.23.67-.3,1.38-.45,2.15-.45.4,0,.8.04,1.19.13.4.08.8.23,1.21.43.41.2.86.46,1.34.79l8.04,5.54v-7.25h2.17v11.3Z"/>
    <path class="st4" d="M698.19,744.11l-7.57-4.11c.29.38.48.78.59,1.19.11.41.16.82.16,1.24,0,.82-.16,1.61-.47,2.36s-.75,1.4-1.31,1.97-1.22,1.02-1.98,1.34c-.76.33-1.59.49-2.48.49s-1.73-.17-2.5-.51c-.77-.34-1.45-.81-2.04-1.41-.58-.6-1.03-1.29-1.35-2.08-.32-.79-.48-1.63-.48-2.53s.16-1.74.48-2.53c.32-.79.77-1.48,1.35-2.08.58-.6,1.26-1.07,2.04-1.41.78-.34,1.61-.51,2.5-.51.55,0,1.09.07,1.6.2.51.14,1,.32,1.47.57l10,5.16v2.64ZM689.36,742.06c0-.78-.19-1.49-.57-2.13-.38-.64-.88-1.15-1.52-1.52-.64-.38-1.35-.57-2.13-.57s-1.49.19-2.13.57c-.64.38-1.15.88-1.52,1.52-.38.64-.57,1.35-.57,2.13s.19,1.49.57,2.13c.38.64.88,1.15,1.52,1.52.64.38,1.35.57,2.13.57s1.49-.19,2.13-.57c.64-.38,1.15-.88,1.52-1.52.38-.64.57-1.35.57-2.13Z"/>
    <path class="st4" d="M698.19,731.6l-17.01-8.48v9.17h-2.17v-12.77h.04l19.14,9.48v2.6Z"/>
  </g>
  <g>
    <path class="st4" d="M535.49,1029.41h-.04l-11.4-7.69c-.54-.37-1.01-.62-1.41-.75-.4-.13-.77-.19-1.11-.19-.61,0-1.17.15-1.66.45-.5.3-.9.7-1.19,1.21-.3.51-.45,1.08-.45,1.71s.15,1.19.45,1.69c.3.5.7.91,1.19,1.2.5.3,1.05.45,1.66.45.48,0,.95-.11,1.39-.32.44-.21.84-.54,1.19-.98v2.92c-.87.46-1.73.68-2.58.68-.77,0-1.48-.15-2.15-.45-.67-.3-1.25-.71-1.75-1.22-.5-.52-.88-1.12-1.16-1.8-.28-.68-.42-1.41-.42-2.2s.14-1.49.42-2.17c.28-.68.66-1.28,1.16-1.8.5-.52,1.08-.93,1.75-1.23.67-.3,1.38-.45,2.15-.45.4,0,.8.04,1.19.13.4.08.8.23,1.21.43.41.2.86.46,1.34.79l8.04,5.54v-7.25h2.17v11.3Z"/>
    <path class="st4" d="M535.49,1010.08l-7.57-4.11c.29.38.48.78.59,1.19.11.41.16.82.16,1.24,0,.82-.16,1.61-.47,2.36s-.75,1.4-1.31,1.97-1.22,1.02-1.98,1.34c-.76.33-1.59.49-2.48.49s-1.73-.17-2.5-.51c-.77-.34-1.45-.81-2.04-1.41-.58-.6-1.03-1.29-1.35-2.08-.32-.79-.48-1.63-.48-2.53s.16-1.74.48-2.53c.32-.79.77-1.48,1.35-2.08.58-.6,1.26-1.07,2.04-1.41.78-.34,1.61-.51,2.5-.51.55,0,1.09.07,1.6.2.51.14,1,.32,1.47.57l10,5.16v2.64ZM526.66,1008.03c0-.78-.19-1.49-.57-2.13-.38-.64-.88-1.15-1.52-1.52-.64-.38-1.35-.57-2.13-.57s-1.49.19-2.13.57c-.64.38-1.15.88-1.52,1.52-.38.64-.57,1.35-.57,2.13s.19,1.49.57,2.13c.38.64.88,1.15,1.52,1.52.64.38,1.35.57,2.13.57s1.49-.19,2.13-.57c.64-.38,1.15-.88,1.52-1.52.38-.64.57-1.35.57-2.13Z"/>
    <path class="st4" d="M535.49,997.57l-17.01-8.48v9.17h-2.17v-12.77h.04l19.14,9.48v2.6Z"/>
  </g>
  <g>
    <path class="st4" d="M382.85,930.38v-.04l7.52-11.15c.36-.53.6-.99.73-1.38s.19-.75.19-1.08c0-.6-.15-1.14-.44-1.62-.29-.49-.69-.88-1.19-1.17s-1.06-.44-1.67-.44-1.16.15-1.66.44-.89.68-1.18,1.17c-.29.49-.44,1.03-.44,1.62,0,.47.1.92.31,1.35.21.43.53.82.96,1.17h-2.85c-.44-.85-.67-1.69-.67-2.52,0-.75.15-1.45.44-2.1.29-.65.69-1.22,1.2-1.71s1.09-.87,1.76-1.14,1.38-.41,2.15-.41,1.46.14,2.12.41c.67.27,1.25.65,1.76,1.14s.91,1.06,1.2,1.71c.29.65.44,1.35.44,2.1,0,.39-.04.78-.12,1.17-.08.39-.22.79-.42,1.19-.19.4-.45.84-.77,1.31l-5.42,7.85h7.08v2.12h-11.04Z"/>
    <path class="st4" d="M401.75,930.38l4.02-7.4c-.38.28-.76.47-1.17.57-.4.1-.81.16-1.21.16-.81,0-1.57-.15-2.3-.46s-1.37-.73-1.93-1.28c-.56-.55-.99-1.19-1.31-1.94-.32-.74-.48-1.55-.48-2.43s.17-1.69.5-2.45.79-1.42,1.38-1.99,1.26-1.01,2.03-1.32,1.59-.47,2.47-.47,1.7.16,2.47.47,1.45.75,2.03,1.32,1.04,1.23,1.38,1.99.5,1.57.5,2.45c0,.54-.07,1.06-.2,1.56s-.32.98-.55,1.44l-5.04,9.77h-2.58ZM403.75,921.76c.76,0,1.46-.18,2.08-.55s1.12-.87,1.49-1.49c.37-.62.55-1.32.55-2.08s-.18-1.46-.55-2.08c-.37-.62-.87-1.12-1.49-1.49-.62-.37-1.32-.55-2.08-.55s-1.46.18-2.08.55c-.62.37-1.12.87-1.49,1.49s-.55,1.32-.55,2.08.18,1.46.55,2.08.87,1.12,1.49,1.49,1.32.55,2.08.55Z"/>
    <path class="st4" d="M413.98,930.38l8.29-16.62h-8.96v-2.12h12.48v.04l-9.27,18.71h-2.54Z"/>
    <path class="st4" d="M433.69,930.38l4.4-6.62-3.92-5.88h2.62l1.21,1.92c.26.4.52.82.78,1.26s.48.89.68,1.34c.21-.46.44-.9.7-1.33s.52-.85.78-1.27l1.19-1.92h2.58l-3.92,5.88,4.4,6.62h-2.67l-1.71-2.73c-.25-.4-.5-.81-.75-1.22-.25-.41-.47-.84-.67-1.28-.19.45-.42.87-.67,1.28-.25.41-.5.82-.75,1.22l-1.71,2.73h-2.58Z"/>
    <path class="st4" d="M454.41,930.38v-.04l7.52-11.15c.36-.53.6-.99.73-1.38s.19-.75.19-1.08c0-.6-.15-1.14-.44-1.62-.29-.49-.69-.88-1.19-1.17s-1.06-.44-1.67-.44-1.16.15-1.66.44-.89.68-1.18,1.17c-.29.49-.44,1.03-.44,1.62,0,.47.1.92.31,1.35.21.43.53.82.96,1.17h-2.85c-.44-.85-.67-1.69-.67-2.52,0-.75.15-1.45.44-2.1.29-.65.69-1.22,1.2-1.71s1.09-.87,1.76-1.14,1.38-.41,2.15-.41,1.46.14,2.12.41c.67.27,1.25.65,1.76,1.14s.91,1.06,1.2,1.71c.29.65.44,1.35.44,2.1,0,.39-.04.78-.12,1.17-.08.39-.22.79-.42,1.19-.19.4-.45.84-.77,1.31l-5.42,7.85h7.08v2.12h-11.04Z"/>
    <path class="st4" d="M470.94,930.38v-1.88h4.33v-13.92l-4.33,2.21v-2.25l6.58-3.33h.04v17.29h3.5v1.88h-10.12Z"/>
    <path class="st4" d="M491,930.63c-1.1,0-2.06-.27-2.88-.82-.82-.55-1.5-1.28-2.05-2.21-.55-.92-.96-1.96-1.23-3.1-.27-1.15-.41-2.31-.41-3.49s.14-2.34.41-3.49c.27-1.15.68-2.18,1.23-3.1.55-.92,1.23-1.66,2.05-2.21s1.78-.82,2.88-.82,2.06.27,2.88.82,1.5,1.28,2.05,2.21.96,1.96,1.23,3.1c.27,1.15.41,2.31.41,3.49s-.14,2.34-.41,3.49c-.27,1.15-.68,2.18-1.23,3.1s-1.23,1.66-2.05,2.21c-.82.55-1.78.82-2.88.82ZM491,928.51c.74,0,1.37-.22,1.9-.67.53-.44.96-1.03,1.29-1.77s.58-1.54.75-2.43.25-1.76.25-2.64-.08-1.75-.25-2.64c-.17-.88-.42-1.69-.75-2.43s-.76-1.33-1.29-1.77c-.53-.44-1.16-.67-1.9-.67s-1.35.22-1.89.67c-.53.44-.97,1.03-1.3,1.77s-.58,1.54-.75,2.43c-.17.88-.25,1.76-.25,2.64s.08,1.75.25,2.64.42,1.69.75,2.43.77,1.33,1.3,1.77c.54.45,1.16.67,1.89.67Z"/>
    <path class="st4" d="M506.54,930.38v-8.33h1.39v1.19c.3-.45.69-.79,1.16-1.02.47-.23.96-.34,1.48-.34.56,0,1.08.13,1.56.4.47.26.85.63,1.14,1.1.32-.5.74-.88,1.26-1.12s1.06-.38,1.63-.38c.63,0,1.21.15,1.73.44.52.3.94.71,1.25,1.24.31.53.46,1.16.46,1.88v4.93h-1.5v-4.75c0-.76-.21-1.34-.65-1.73s-.93-.59-1.49-.59c-.35,0-.69.08-1.02.24-.33.16-.6.4-.81.74-.21.33-.31.77-.31,1.31v4.79h-1.5v-4.75c0-.53-.1-.96-.31-1.31-.21-.34-.48-.6-.81-.77-.33-.17-.67-.26-1.02-.26s-.68.08-1.01.24c-.33.16-.6.4-.81.74-.21.33-.32.77-.32,1.32v4.79h-1.5Z"/>
    <path class="st4" d="M522.09,930.38v-8.33h1.39v1.19c.3-.45.69-.79,1.16-1.02.47-.23.96-.34,1.48-.34.56,0,1.08.13,1.56.4.47.26.85.63,1.14,1.1.32-.5.74-.88,1.26-1.12s1.06-.38,1.63-.38c.63,0,1.21.15,1.73.44.52.3.94.71,1.25,1.24.31.53.46,1.16.46,1.88v4.93h-1.5v-4.75c0-.76-.21-1.34-.65-1.73s-.93-.59-1.49-.59c-.35,0-.69.08-1.02.24-.33.16-.6.4-.81.74-.21.33-.31.77-.31,1.31v4.79h-1.5v-4.75c0-.53-.1-.96-.31-1.31-.21-.34-.48-.6-.81-.77-.33-.17-.67-.26-1.02-.26s-.68.08-1.01.24c-.33.16-.6.4-.81.74-.21.33-.32.77-.32,1.32v4.79h-1.5Z"/>
    <path class="st4" d="M382.85,967.21v-.04l7.52-11.15c.36-.53.6-.99.73-1.38s.19-.75.19-1.08c0-.6-.15-1.14-.44-1.62-.29-.49-.69-.88-1.19-1.17s-1.06-.44-1.67-.44-1.16.15-1.66.44-.89.68-1.18,1.17c-.29.49-.44,1.03-.44,1.62,0,.47.1.92.31,1.35.21.43.53.82.96,1.17h-2.85c-.44-.85-.67-1.69-.67-2.52,0-.75.15-1.45.44-2.1.29-.65.69-1.22,1.2-1.71s1.09-.87,1.76-1.14,1.38-.41,2.15-.41,1.46.14,2.12.41c.67.27,1.25.65,1.76,1.14s.91,1.06,1.2,1.71c.29.65.44,1.35.44,2.1,0,.39-.04.78-.12,1.17-.08.39-.22.79-.42,1.19-.19.4-.45.84-.77,1.31l-5.42,7.85h7.08v2.12h-11.04Z"/>
    <path class="st4" d="M401.75,967.21l4.02-7.4c-.38.28-.76.47-1.17.57-.4.1-.81.16-1.21.16-.81,0-1.57-.15-2.3-.46s-1.37-.73-1.93-1.28c-.56-.55-.99-1.19-1.31-1.94-.32-.74-.48-1.55-.48-2.43s.17-1.69.5-2.45.79-1.42,1.38-1.99,1.26-1.01,2.03-1.32,1.59-.47,2.47-.47,1.7.16,2.47.47,1.45.75,2.03,1.32,1.04,1.23,1.38,1.99.5,1.57.5,2.45c0,.54-.07,1.06-.2,1.56s-.32.98-.55,1.44l-5.04,9.77h-2.58ZM403.75,958.59c.76,0,1.46-.18,2.08-.55s1.12-.87,1.49-1.49c.37-.62.55-1.32.55-2.08s-.18-1.46-.55-2.08c-.37-.62-.87-1.12-1.49-1.49-.62-.37-1.32-.55-2.08-.55s-1.46.18-2.08.55c-.62.37-1.12.87-1.49,1.49s-.55,1.32-.55,2.08.18,1.46.55,2.08.87,1.12,1.49,1.49,1.32.55,2.08.55Z"/>
    <path class="st4" d="M410.5,970.34c.42-.51.78-1.09,1.09-1.72s.56-1.32.73-2.07c.17-.75.26-1.57.26-2.46h2.25c0,1.18-.16,2.29-.49,3.34s-.77,2.02-1.34,2.91h-2.5Z"/>
    <path class="st4" d="M418.66,967.21l8.29-16.62h-8.96v-2.12h12.48v.04l-9.27,18.71h-2.54Z"/>
    <path class="st4" d="M438.37,967.21l4.4-6.62-3.92-5.88h2.62l1.21,1.92c.26.4.52.82.78,1.26s.48.89.68,1.34c.21-.46.44-.9.7-1.33s.52-.85.78-1.27l1.19-1.92h2.58l-3.92,5.88,4.4,6.62h-2.67l-1.71-2.73c-.25-.4-.5-.81-.75-1.22-.25-.41-.47-.84-.67-1.28-.19.45-.42.87-.67,1.28-.25.41-.5.82-.75,1.22l-1.71,2.73h-2.58Z"/>
    <path class="st4" d="M459.1,967.21v-.04l7.52-11.15c.36-.53.6-.99.73-1.38s.19-.75.19-1.08c0-.6-.15-1.14-.44-1.62-.29-.49-.69-.88-1.19-1.17s-1.06-.44-1.67-.44-1.16.15-1.66.44-.89.68-1.18,1.17c-.29.49-.44,1.03-.44,1.62,0,.47.1.92.31,1.35.21.43.53.82.96,1.17h-2.85c-.44-.85-.67-1.69-.67-2.52,0-.75.15-1.45.44-2.1.29-.65.69-1.22,1.2-1.71s1.09-.87,1.76-1.14,1.38-.41,2.15-.41,1.46.14,2.12.41c.67.27,1.25.65,1.76,1.14s.91,1.06,1.2,1.71c.29.65.44,1.35.44,2.1,0,.39-.04.78-.12,1.17-.08.39-.22.79-.42,1.19-.19.4-.45.84-.77,1.31l-5.42,7.85h7.08v2.12h-11.04Z"/>
    <path class="st4" d="M475.62,967.21v-1.88h4.33v-13.92l-4.33,2.21v-2.25l6.58-3.33h.04v17.29h3.5v1.88h-10.12Z"/>
    <path class="st4" d="M488,970.34c.42-.51.78-1.09,1.09-1.72s.56-1.32.73-2.07c.17-.75.26-1.57.26-2.46h2.25c0,1.18-.16,2.29-.49,3.34s-.77,2.02-1.34,2.91h-2.5Z"/>
    <path class="st4" d="M501.31,967.46c-1.1,0-2.06-.27-2.88-.82-.82-.55-1.5-1.28-2.05-2.21-.55-.92-.96-1.96-1.23-3.1-.27-1.15-.41-2.31-.41-3.49s.14-2.34.41-3.49c.27-1.15.68-2.18,1.23-3.1.55-.92,1.23-1.66,2.05-2.21s1.78-.82,2.88-.82,2.06.27,2.88.82,1.5,1.28,2.05,2.21.96,1.96,1.23,3.1c.27,1.15.41,2.31.41,3.49s-.14,2.34-.41,3.49c-.27,1.15-.68,2.18-1.23,3.1s-1.23,1.66-2.05,2.21c-.82.55-1.78.82-2.88.82ZM501.31,965.34c.74,0,1.37-.22,1.9-.67.53-.44.96-1.03,1.29-1.77s.58-1.54.75-2.43.25-1.76.25-2.64-.08-1.75-.25-2.64c-.17-.88-.42-1.69-.75-2.43s-.76-1.33-1.29-1.77c-.53-.44-1.16-.67-1.9-.67s-1.35.22-1.89.67c-.53.44-.97,1.03-1.3,1.77s-.58,1.54-.75,2.43c-.17.88-.25,1.76-.25,2.64s.08,1.75.25,2.64.42,1.69.75,2.43.77,1.33,1.3,1.77c.54.45,1.16.67,1.89.67Z"/>
    <path class="st4" d="M520.68,967.38c-.61,0-1.18-.11-1.72-.34s-1-.54-1.41-.93c-.41-.39-.72-.85-.95-1.38-.23-.53-.34-1.09-.34-1.68s.11-1.16.34-1.69c.23-.52.54-.98.95-1.38.41-.39.88-.7,1.41-.93.53-.23,1.1-.34,1.72-.34s1.17.11,1.69.32c.53.21.99.5,1.39.85l-.46,1.89c-.23-.46-.58-.85-1.05-1.17-.47-.31-1-.47-1.59-.47-.54,0-1.03.13-1.46.4s-.79.62-1.05,1.06c-.26.44-.39.93-.39,1.46s.13,1.01.39,1.46c.26.44.61.8,1.05,1.06.44.26.93.4,1.46.4.59,0,1.12-.15,1.59-.46s.82-.7,1.05-1.18l.46,1.89c-.4.35-.86.63-1.39.85-.53.21-1.09.32-1.69.32Z"/>
    <path class="st4" d="M525.6,967.21v-8.33h1.39v1.19c.3-.45.69-.79,1.16-1.02.47-.23.96-.34,1.48-.34.56,0,1.08.13,1.56.4.47.26.85.63,1.14,1.1.32-.5.74-.88,1.26-1.12s1.06-.38,1.63-.38c.63,0,1.21.15,1.73.44.52.3.94.71,1.25,1.24.31.53.46,1.16.46,1.88v4.93h-1.5v-4.75c0-.76-.21-1.34-.65-1.73s-.93-.59-1.49-.59c-.35,0-.69.08-1.02.24-.33.16-.6.4-.81.74-.21.33-.31.77-.31,1.31v4.79h-1.5v-4.75c0-.53-.1-.96-.31-1.31-.21-.34-.48-.6-.81-.77-.33-.17-.67-.26-1.02-.26s-.68.08-1.01.24c-.33.16-.6.4-.81.74-.21.33-.32.77-.32,1.32v4.79h-1.5Z"/>
  </g>
  <g>
    <path class="st4" d="M461.86,1055.39v-.04l7.69-11.4c.37-.54.62-1.01.75-1.41.13-.4.19-.77.19-1.11,0-.61-.15-1.17-.45-1.66-.3-.5-.7-.9-1.21-1.19-.51-.3-1.08-.45-1.71-.45s-1.19.15-1.69.45c-.5.3-.91.7-1.2,1.19-.3.5-.45,1.05-.45,1.66,0,.48.11.95.32,1.39.21.44.54.84.98,1.19h-2.92c-.46-.87-.68-1.73-.68-2.58,0-.77.15-1.48.45-2.15.3-.67.71-1.25,1.22-1.75.52-.5,1.12-.88,1.8-1.16.68-.28,1.41-.42,2.2-.42s1.49.14,2.17.42c.68.28,1.28.66,1.8,1.16.52.5.93,1.08,1.23,1.75.3.67.45,1.38.45,2.15,0,.4-.04.8-.13,1.19-.08.4-.23.8-.43,1.21-.2.41-.46.86-.79,1.34l-5.54,8.04h7.25v2.17h-11.3Z"/>
    <path class="st4" d="M478.76,1055.39v-1.92h4.43v-14.24l-4.43,2.26v-2.3l6.73-3.41h.04v17.69h3.58v1.92h-10.36Z"/>
    <path class="st4" d="M499.29,1055.65c-1.12,0-2.1-.28-2.94-.84-.84-.56-1.54-1.31-2.1-2.26-.56-.94-.98-2-1.26-3.17-.28-1.17-.42-2.36-.42-3.57s.14-2.4.42-3.57c.28-1.17.7-2.23,1.26-3.18.56-.95,1.26-1.7,2.1-2.26.84-.56,1.82-.84,2.94-.84s2.1.28,2.94.84c.84.56,1.54,1.31,2.1,2.26.56.94.98,2,1.26,3.18.28,1.17.42,2.36.42,3.57s-.14,2.4-.42,3.57c-.28,1.17-.7,2.23-1.26,3.17-.56.95-1.26,1.7-2.1,2.26-.84.56-1.82.84-2.94.84ZM499.29,1053.47c.75,0,1.4-.23,1.94-.68.54-.45.98-1.06,1.32-1.81.34-.75.6-1.58.77-2.48.17-.9.26-1.8.26-2.7s-.09-1.79-.26-2.7c-.17-.9-.43-1.73-.77-2.48s-.78-1.36-1.32-1.81-1.19-.68-1.94-.68-1.38.23-1.93.68-.99,1.06-1.33,1.81-.6,1.58-.77,2.48c-.17.9-.26,1.8-.26,2.7s.09,1.79.26,2.7c.17.9.43,1.73.77,2.48.34.75.79,1.36,1.33,1.81.55.46,1.19.68,1.93.68Z"/>
  </g>
  <g>
    <path class="st4" d="M559.43,935.07v-.05l9.23-13.68c.44-.65.74-1.21.89-1.69.15-.48.23-.92.23-1.33,0-.73-.18-1.4-.54-2-.36-.6-.84-1.07-1.46-1.43-.61-.36-1.3-.54-2.05-.54s-1.43.18-2.03.54c-.61.36-1.09.83-1.44,1.43-.36.6-.54,1.26-.54,2,0,.58.13,1.13.38,1.66.26.53.65,1.01,1.18,1.43h-3.5c-.55-1.04-.82-2.07-.82-3.09,0-.92.18-1.78.54-2.58.36-.8.85-1.5,1.47-2.1.62-.6,1.34-1.06,2.16-1.39.82-.33,1.7-.5,2.63-.5s1.79.17,2.61.5c.82.33,1.54.8,2.16,1.39.62.6,1.11,1.3,1.47,2.1.36.8.54,1.66.54,2.58,0,.48-.05.96-.15,1.43-.1.48-.27.96-.51,1.46-.24.5-.55,1.03-.95,1.61l-6.65,9.64h8.7v2.61h-13.55Z"/>
    <path class="st4" d="M579.71,935.07v-2.3h5.32v-17.08l-5.32,2.71v-2.76l8.08-4.09h.05v21.23h4.3v2.3h-12.43Z"/>
    <path class="st4" d="M604.34,935.37c-1.35,0-2.52-.34-3.53-1.01-1.01-.67-1.85-1.58-2.52-2.71s-1.18-2.4-1.51-3.81c-.33-1.41-.5-2.83-.5-4.28s.17-2.88.5-4.28c.33-1.41.83-2.68,1.51-3.81s1.51-2.04,2.52-2.71c1.01-.67,2.18-1.01,3.53-1.01s2.52.34,3.53,1.01,1.85,1.58,2.52,2.71c.67,1.13,1.18,2.4,1.51,3.81.33,1.41.5,2.83.5,4.28s-.17,2.88-.5,4.28c-.33,1.41-.84,2.68-1.51,3.81-.67,1.13-1.51,2.04-2.52,2.71s-2.18,1.01-3.53,1.01ZM604.34,932.76c.9,0,1.68-.27,2.33-.82.65-.55,1.18-1.27,1.59-2.17s.72-1.9.92-2.98c.2-1.08.31-2.16.31-3.24s-.1-2.15-.31-3.24c-.21-1.08-.51-2.08-.92-2.98-.41-.9-.94-1.63-1.59-2.17-.65-.55-1.42-.82-2.33-.82s-1.66.27-2.31.82c-.66.55-1.19,1.27-1.6,2.17-.41.9-.72,1.9-.92,2.98-.2,1.08-.31,2.16-.31,3.24s.1,2.15.31,3.24c.21,1.08.51,2.08.92,2.98s.94,1.63,1.6,2.17c.66.55,1.43.82,2.31.82Z"/>
    <path class="st4" d="M622.22,935.07l5.4-8.13-4.81-7.21h3.22l1.48,2.35c.32.5.64,1.01.96,1.55s.59,1.09.83,1.65c.26-.56.54-1.11.86-1.64.32-.53.63-1.05.96-1.56l1.46-2.35h3.17l-4.81,7.21,5.4,8.13h-3.27l-2.1-3.35c-.31-.49-.61-.99-.92-1.5-.31-.5-.58-1.03-.82-1.57-.24.55-.51,1.07-.82,1.57-.31.5-.61,1-.92,1.5l-2.1,3.35h-3.17Z"/>
    <path class="st4" d="M648.77,935.07v-2.3h5.32v-17.08l-5.32,2.71v-2.76l8.08-4.09h.05v21.23h4.3v2.3h-12.43Z"/>
    <path class="st4" d="M675.47,935.07v-6.19h-11.05v-.05l8.62-16.78h3.07l-7.47,14.37h6.91v-5.17l2.61-1.38v6.55h3.45v2.46h-3.38v6.19h-2.76Z"/>
    <path class="st4" d="M692.58,935.37c-1.09,0-2.12-.2-3.08-.59-.96-.39-1.81-.95-2.54-1.66-.73-.72-1.31-1.55-1.73-2.49-.42-.95-.63-1.96-.63-3.06,0-1.01.18-1.95.54-2.83s.85-1.66,1.48-2.34c.63-.68,1.36-1.24,2.17-1.66-.5-.48-.89-1.02-1.18-1.64s-.43-1.3-.43-2.07.14-1.45.42-2.08c.28-.64.67-1.2,1.16-1.69.49-.49,1.07-.86,1.73-1.13.66-.26,1.35-.4,2.08-.4s1.45.13,2.1.4c.65.26,1.22.64,1.71,1.13.49.49.88,1.05,1.16,1.69.28.64.42,1.33.42,2.08s-.15,1.46-.43,2.08c-.29.62-.68,1.16-1.18,1.62.83.43,1.56.98,2.19,1.66.62.68,1.11,1.46,1.47,2.34s.54,1.82.54,2.83c0,1.09-.21,2.11-.63,3.06s-.99,1.78-1.73,2.49c-.73.72-1.58,1.27-2.54,1.66-.96.39-1.99.59-3.08.59ZM692.58,932.76c.97,0,1.85-.23,2.65-.7.79-.47,1.42-1.1,1.88-1.88.46-.78.69-1.66.69-2.63s-.23-1.85-.69-2.65c-.46-.79-1.09-1.42-1.88-1.88-.79-.46-1.68-.69-2.65-.69s-1.85.23-2.63.69-1.41,1.09-1.88,1.88c-.47.79-.7,1.67-.7,2.65s.23,1.85.7,2.63c.47.78,1.09,1.41,1.88,1.88s1.66.7,2.63.7ZM692.58,920.08c.54,0,1.04-.13,1.48-.4.44-.26.8-.62,1.06-1.06.26-.44.4-.94.4-1.48s-.13-1.04-.4-1.48c-.26-.44-.62-.8-1.06-1.06-.44-.26-.94-.4-1.48-.4s-1.04.13-1.48.4c-.44.26-.8.62-1.06,1.06-.26.44-.4.94-.4,1.48s.13,1.04.4,1.48c.26.44.62.8,1.06,1.06.44.26.94.4,1.48.4Z"/>
  </g>
  <g>
    <path class="st4" d="M358.95,1002.37c0,1.22-.28,2.34-.85,3.36-.57,1.02-1.35,1.82-2.34,2.4l-2.79-1.41c.72-.1,1.38-.35,1.95-.77s1.03-.93,1.36-1.55.5-1.3.5-2.04c0-.8-.2-1.52-.59-2.18-.39-.66-.91-1.19-1.57-1.58s-1.38-.59-2.17-.59-1.52.2-2.17.6c-.65.4-1.17.93-1.57,1.59-.39.66-.59,1.4-.59,2.23,0,.71.16,1.37.48,1.99.32.62.75,1.11,1.29,1.48v.04h-10.38v-8.65h2.17v6.56h4.73c-.13-.28-.22-.58-.27-.88-.05-.31-.08-.6-.08-.88,0-.87.16-1.68.48-2.45.32-.77.77-1.45,1.34-2.04.58-.59,1.25-1.05,2.02-1.38s1.62-.5,2.53-.5,1.76.17,2.55.52c.79.35,1.48.83,2.08,1.45s1.06,1.33,1.39,2.13c.33.8.49,1.65.49,2.55Z"/>
    <path class="st4" d="M358.69,987.79l-7.57-4.11c.29.38.48.78.59,1.19.11.41.16.82.16,1.24,0,.82-.16,1.61-.47,2.36s-.75,1.4-1.31,1.97-1.22,1.02-1.98,1.34c-.76.33-1.59.49-2.48.49s-1.73-.17-2.5-.51-1.45-.81-2.04-1.41c-.58-.6-1.03-1.29-1.35-2.08-.32-.79-.48-1.63-.48-2.53s.16-1.74.48-2.53c.32-.79.77-1.48,1.35-2.08.58-.6,1.26-1.07,2.04-1.41s1.61-.51,2.5-.51c.55,0,1.09.07,1.6.2.51.14,1,.32,1.47.57l10,5.16v2.64ZM349.87,985.75c0-.78-.19-1.49-.57-2.13-.38-.64-.88-1.15-1.52-1.52-.64-.38-1.35-.57-2.13-.57s-1.49.19-2.13.57c-.64.38-1.15.88-1.52,1.52-.38.64-.56,1.35-.56,2.13s.19,1.49.56,2.13c.38.64.88,1.15,1.52,1.52.64.38,1.35.57,2.13.57s1.49-.19,2.13-.57c.64-.38,1.15-.88,1.52-1.52.38-.64.57-1.35.57-2.13Z"/>
    <path class="st4" d="M358.69,967.97h-5.16v9.21h-.04l-13.98-7.18v-2.56l11.98,6.22v-5.75h-4.3l-1.15-2.17h5.46v-2.88h2.05v2.81h5.16v2.3Z"/>
  </g>
  <g>
    <path class="st4" d="M67.31,701.27c-1.22,0-2.34-.28-3.36-.85-1.02-.57-1.81-1.35-2.4-2.34l1.41-2.79c.1.72.35,1.38.77,1.95.41.58.93,1.03,1.54,1.36.62.33,1.3.5,2.04.5.8,0,1.52-.2,2.18-.59s1.19-.91,1.58-1.57c.39-.65.59-1.38.59-2.17s-.2-1.52-.6-2.17c-.4-.65-.93-1.17-1.59-1.57-.66-.39-1.4-.59-2.23-.59-.71,0-1.37.16-1.99.48-.62.32-1.11.75-1.48,1.29h-.04v-10.38h8.65v2.17h-6.56v4.73c.28-.13.58-.22.88-.27.31-.05.6-.07.88-.07.87,0,1.68.16,2.45.48.77.32,1.45.77,2.04,1.34.59.58,1.05,1.25,1.39,2.02s.5,1.62.5,2.53-.17,1.76-.52,2.55c-.35.79-.83,1.48-1.45,2.08-.62.6-1.33,1.06-2.13,1.39-.8.33-1.65.49-2.55.49Z"/>
    <path class="st4" d="M81.89,701.01l4.11-7.57c-.38.29-.78.48-1.19.59-.41.11-.82.16-1.24.16-.82,0-1.61-.16-2.35-.47s-1.4-.75-1.97-1.31c-.57-.56-1.02-1.22-1.34-1.98-.33-.76-.49-1.59-.49-2.48s.17-1.73.51-2.5c.34-.77.81-1.45,1.41-2.04.6-.58,1.29-1.03,2.08-1.35.79-.32,1.63-.48,2.53-.48s1.74.16,2.53.48c.79.32,1.48.77,2.08,1.35.6.58,1.07,1.26,1.41,2.04.34.78.51,1.61.51,2.5,0,.55-.07,1.09-.2,1.6-.14.51-.32,1-.56,1.47l-5.16,10h-2.64ZM83.94,692.19c.78,0,1.49-.19,2.13-.57.64-.38,1.15-.88,1.52-1.52s.56-1.35.56-2.13-.19-1.49-.56-2.13-.88-1.15-1.52-1.52c-.64-.38-1.35-.57-2.13-.57s-1.49.19-2.13.57c-.64.38-1.15.88-1.52,1.52-.38.64-.56,1.35-.56,2.13s.19,1.49.56,2.13c.38.64.88,1.15,1.52,1.52.64.38,1.35.57,2.13.57Z"/>
    <path class="st4" d="M101.71,701.01v-5.16h-9.21v-.04l7.18-13.98h2.56l-6.22,11.98h5.75v-4.3l2.17-1.15v5.46h2.88v2.05h-2.81v5.16h-2.3Z"/>
    <path class="st4" d="M114.88,701.01l4.5-6.78-4.01-6.01h2.69l1.24,1.96c.27.41.54.84.8,1.29.26.45.49.91.69,1.37.21-.47.45-.92.71-1.36.26-.44.53-.87.8-1.3l1.21-1.96h2.64l-4.01,6.01,4.5,6.78h-2.73l-1.75-2.79c-.26-.41-.51-.83-.77-1.25-.26-.42-.48-.86-.68-1.31-.2.46-.43.89-.68,1.31-.26.42-.51.83-.77,1.25l-1.75,2.79h-2.64Z"/>
    <path class="st4" d="M143.27,701.01v-5.16h-9.21v-.04l7.18-13.98h2.56l-6.22,11.98h5.75v-4.3l2.17-1.15v5.46h2.88v2.05h-2.81v5.16h-2.3Z"/>
    <path class="st4" d="M152.07,701.01v-.04l7.69-11.4c.37-.54.62-1.01.75-1.41s.19-.77.19-1.11c0-.61-.15-1.17-.45-1.66s-.7-.9-1.21-1.19c-.51-.3-1.08-.45-1.71-.45s-1.19.15-1.69.45c-.5.3-.91.7-1.2,1.19s-.45,1.05-.45,1.66c0,.48.11.95.32,1.39.21.44.54.84.98,1.19h-2.92c-.45-.87-.68-1.73-.68-2.58,0-.77.15-1.48.45-2.15s.71-1.25,1.23-1.75c.52-.5,1.12-.88,1.8-1.16s1.41-.42,2.2-.42,1.49.14,2.17.42,1.28.66,1.8,1.16c.52.5.93,1.08,1.23,1.75s.45,1.38.45,2.15c0,.4-.04.8-.13,1.19-.09.4-.23.8-.43,1.21-.2.41-.46.86-.79,1.34l-5.54,8.04h7.25v2.17h-11.3Z"/>
    <path class="st4" d="M173.51,701.27c-1.12,0-2.1-.28-2.94-.84-.84-.56-1.54-1.31-2.1-2.26-.56-.94-.98-2-1.26-3.17-.28-1.17-.42-2.36-.42-3.57s.14-2.4.42-3.57c.28-1.17.7-2.23,1.26-3.18.56-.95,1.26-1.7,2.1-2.26.84-.56,1.82-.84,2.94-.84s2.1.28,2.94.84c.84.56,1.54,1.31,2.1,2.26.56.94.98,2,1.26,3.18.28,1.17.42,2.36.42,3.57s-.14,2.4-.42,3.57c-.28,1.17-.7,2.23-1.26,3.17-.56.95-1.26,1.7-2.1,2.26-.84.56-1.82.84-2.94.84ZM173.51,699.09c.75,0,1.4-.23,1.94-.68.54-.45.98-1.06,1.32-1.81.34-.75.6-1.58.77-2.48s.26-1.8.26-2.7-.09-1.79-.26-2.7c-.17-.9-.43-1.73-.77-2.48-.34-.75-.78-1.36-1.32-1.81s-1.19-.68-1.94-.68-1.38.23-1.93.68c-.55.46-.99,1.06-1.33,1.81s-.6,1.58-.77,2.48c-.17.9-.26,1.8-.26,2.7s.08,1.79.26,2.7c.17.9.43,1.73.77,2.48.34.75.78,1.36,1.33,1.81.55.46,1.19.68,1.93.68Z"/>
    <path class="st4" d="M189.57,701.01v-10.42h1.74v1.49c.38-.57.87-.99,1.45-1.28.58-.28,1.2-.43,1.85-.43.71,0,1.35.17,1.94.5.59.33,1.06.79,1.42,1.38.41-.62.93-1.09,1.57-1.41s1.32-.47,2.04-.47c.79,0,1.51.19,2.16.56s1.17.89,1.56,1.55c.39.67.58,1.45.58,2.35v6.16h-1.88v-5.94c0-.95-.27-1.67-.81-2.16s-1.16-.74-1.87-.74c-.44,0-.87.1-1.28.29-.41.2-.75.5-1.01.92-.26.42-.39.96-.39,1.63v5.99h-1.88v-5.94c0-.66-.13-1.2-.39-1.63-.26-.43-.6-.75-1.01-.96-.41-.21-.84-.32-1.28-.32s-.85.1-1.26.3c-.41.2-.75.5-1.02.92-.27.42-.4.97-.4,1.65v5.99h-1.88Z"/>
    <path class="st4" d="M209.01,701.01v-10.42h1.74v1.49c.38-.57.87-.99,1.45-1.28.58-.28,1.2-.43,1.85-.43.71,0,1.35.17,1.94.5.59.33,1.06.79,1.42,1.38.41-.62.93-1.09,1.57-1.41s1.32-.47,2.04-.47c.79,0,1.51.19,2.16.56s1.17.89,1.56,1.55c.39.67.58,1.45.58,2.35v6.16h-1.88v-5.94c0-.95-.27-1.67-.81-2.16s-1.16-.74-1.87-.74c-.44,0-.87.1-1.28.29-.41.2-.75.5-1.01.92-.26.42-.39.96-.39,1.63v5.99h-1.88v-5.94c0-.66-.13-1.2-.39-1.63-.26-.43-.6-.75-1.01-.96-.41-.21-.84-.32-1.28-.32s-.85.1-1.26.3c-.41.2-.75.5-1.02.92-.27.42-.4.97-.4,1.65v5.99h-1.88Z"/>
    <path class="st4" d="M67.31,738.09c-1.22,0-2.34-.28-3.36-.85-1.02-.57-1.81-1.35-2.4-2.34l1.41-2.79c.1.72.35,1.38.77,1.95.41.58.93,1.03,1.54,1.36.62.33,1.3.5,2.04.5.8,0,1.52-.2,2.18-.59s1.19-.91,1.58-1.57c.39-.65.59-1.38.59-2.17s-.2-1.52-.6-2.17c-.4-.65-.93-1.17-1.59-1.57-.66-.39-1.4-.59-2.23-.59-.71,0-1.37.16-1.99.48-.62.32-1.11.75-1.48,1.29h-.04v-10.38h8.65v2.17h-6.56v4.73c.28-.13.58-.22.88-.27.31-.05.6-.07.88-.07.87,0,1.68.16,2.45.48.77.32,1.45.77,2.04,1.34.59.58,1.05,1.25,1.39,2.02s.5,1.62.5,2.53-.17,1.76-.52,2.55c-.35.79-.83,1.48-1.45,2.08-.62.6-1.33,1.06-2.13,1.39-.8.33-1.65.49-2.55.49Z"/>
    <path class="st4" d="M81.89,737.84l4.11-7.57c-.38.29-.78.48-1.19.59-.41.11-.82.16-1.24.16-.82,0-1.61-.16-2.35-.47s-1.4-.75-1.97-1.31c-.57-.56-1.02-1.22-1.34-1.98-.33-.76-.49-1.59-.49-2.48s.17-1.73.51-2.5c.34-.77.81-1.45,1.41-2.04.6-.58,1.29-1.03,2.08-1.35.79-.32,1.63-.48,2.53-.48s1.74.16,2.53.48c.79.32,1.48.77,2.08,1.35.6.58,1.07,1.26,1.41,2.04.34.78.51,1.61.51,2.5,0,.55-.07,1.09-.2,1.6-.14.51-.32,1-.56,1.47l-5.16,10h-2.64ZM83.94,729.02c.78,0,1.49-.19,2.13-.57.64-.38,1.15-.88,1.52-1.52s.56-1.35.56-2.13-.19-1.49-.56-2.13-.88-1.15-1.52-1.52c-.64-.38-1.35-.57-2.13-.57s-1.49.19-2.13.57c-.64.38-1.15.88-1.52,1.52-.38.64-.56,1.35-.56,2.13s.19,1.49.56,2.13c.38.64.88,1.15,1.52,1.52.64.38,1.35.57,2.13.57Z"/>
    <path class="st4" d="M90.84,741.04c.43-.53.8-1.11,1.12-1.76.32-.65.57-1.35.75-2.12.18-.77.27-1.61.27-2.52h2.3c0,1.21-.17,2.35-.5,3.42-.33,1.07-.79,2.06-1.37,2.97h-2.56Z"/>
    <path class="st4" d="M106.19,737.84v-5.16h-9.21v-.04l7.18-13.98h2.56l-6.22,11.98h5.75v-4.3l2.17-1.15v5.46h2.88v2.05h-2.81v5.16h-2.3Z"/>
    <path class="st4" d="M119.36,737.84l4.5-6.78-4.01-6.01h2.69l1.24,1.96c.27.41.54.84.8,1.29.26.45.49.91.69,1.37.21-.47.45-.92.71-1.36.26-.44.53-.87.8-1.3l1.21-1.96h2.64l-4.01,6.01,4.5,6.78h-2.73l-1.75-2.79c-.26-.41-.51-.83-.77-1.25-.26-.42-.48-.86-.68-1.31-.2.46-.43.89-.68,1.31-.26.42-.51.83-.77,1.25l-1.75,2.79h-2.64Z"/>
    <path class="st4" d="M147.75,737.84v-5.16h-9.21v-.04l7.18-13.98h2.56l-6.22,11.98h5.75v-4.3l2.17-1.15v5.46h2.88v2.05h-2.81v5.16h-2.3Z"/>
    <path class="st4" d="M156.55,737.84v-.04l7.69-11.4c.37-.54.62-1.01.75-1.41s.19-.77.19-1.11c0-.61-.15-1.17-.45-1.66s-.7-.9-1.21-1.19c-.51-.3-1.08-.45-1.71-.45s-1.19.15-1.69.45c-.5.3-.91.7-1.2,1.19s-.45,1.05-.45,1.66c0,.48.11.95.32,1.39.21.44.54.84.98,1.19h-2.92c-.45-.87-.68-1.73-.68-2.58,0-.77.15-1.48.45-2.15s.71-1.25,1.23-1.75c.52-.5,1.12-.88,1.8-1.16s1.41-.42,2.2-.42,1.49.14,2.17.42,1.28.66,1.8,1.16c.52.5.93,1.08,1.23,1.75s.45,1.38.45,2.15c0,.4-.04.8-.13,1.19-.09.4-.23.8-.43,1.21-.2.41-.46.86-.79,1.34l-5.54,8.04h7.25v2.17h-11.3Z"/>
    <path class="st4" d="M170.13,741.04c.43-.53.8-1.11,1.12-1.76.32-.65.57-1.35.75-2.12.18-.77.27-1.61.27-2.52h2.3c0,1.21-.17,2.35-.5,3.42-.33,1.07-.79,2.06-1.37,2.97h-2.56Z"/>
    <path class="st4" d="M183.74,738.09c-1.12,0-2.1-.28-2.94-.84-.84-.56-1.54-1.31-2.1-2.26-.56-.94-.98-2-1.26-3.17-.28-1.17-.42-2.36-.42-3.57s.14-2.4.42-3.57c.28-1.17.7-2.23,1.26-3.18.56-.95,1.26-1.7,2.1-2.26.84-.56,1.82-.84,2.94-.84s2.1.28,2.94.84c.84.56,1.54,1.31,2.1,2.26.56.94.98,2,1.26,3.18.28,1.17.42,2.36.42,3.57s-.14,2.4-.42,3.57c-.28,1.17-.7,2.23-1.26,3.17-.56.95-1.26,1.7-2.1,2.26-.84.56-1.82.84-2.94.84ZM183.74,735.92c.75,0,1.4-.23,1.94-.68.54-.45.98-1.06,1.32-1.81.34-.75.6-1.58.77-2.48s.26-1.8.26-2.7-.09-1.79-.26-2.7c-.17-.9-.43-1.73-.77-2.48-.34-.75-.78-1.36-1.32-1.81s-1.19-.68-1.94-.68-1.38.23-1.93.68c-.55.46-.99,1.06-1.33,1.81s-.6,1.58-.77,2.48c-.17.9-.26,1.8-.26,2.7s.08,1.79.26,2.7c.17.9.43,1.73.77,2.48.34.75.78,1.36,1.33,1.81.55.46,1.19.68,1.93.68Z"/>
    <path class="st4" d="M204.59,738.05c-.76,0-1.48-.14-2.14-.42-.67-.28-1.25-.67-1.76-1.16-.51-.49-.91-1.07-1.19-1.73-.28-.66-.43-1.36-.43-2.1s.14-1.46.43-2.11c.28-.65.68-1.23,1.19-1.72.51-.49,1.1-.88,1.76-1.16.67-.28,1.38-.43,2.14-.43s1.46.13,2.12.4c.66.27,1.24.62,1.74,1.06l-.57,2.36c-.29-.58-.73-1.06-1.31-1.46s-1.25-.59-1.99-.59c-.67,0-1.28.17-1.83.5s-.99.77-1.31,1.32c-.32.55-.49,1.16-.49,1.83s.16,1.27.49,1.82c.32.56.76,1,1.31,1.33.55.33,1.16.5,1.83.5.74,0,1.4-.19,1.99-.57s1.02-.87,1.31-1.48l.57,2.36c-.5.44-1.08.79-1.74,1.06-.66.27-1.37.4-2.12.4Z"/>
    <path class="st4" d="M210.73,737.84v-10.42h1.74v1.49c.38-.57.87-.99,1.45-1.28.58-.28,1.2-.43,1.85-.43.71,0,1.35.17,1.94.5.59.33,1.06.79,1.42,1.38.41-.62.93-1.09,1.57-1.41s1.32-.47,2.04-.47c.79,0,1.51.19,2.16.56s1.17.89,1.56,1.55c.39.67.58,1.45.58,2.35v6.16h-1.88v-5.94c0-.95-.27-1.67-.81-2.16s-1.16-.74-1.87-.74c-.44,0-.87.1-1.28.29-.41.2-.75.5-1.01.92-.26.42-.39.96-.39,1.63v5.99h-1.88v-5.94c0-.66-.13-1.2-.39-1.63-.26-.43-.6-.75-1.01-.96-.41-.21-.84-.32-1.28-.32s-.85.1-1.26.3c-.41.2-.75.5-1.02.92-.27.42-.4.97-.4,1.65v5.99h-1.88Z"/>
  </g>
  <g>
    <path class="st0" d="M759.94,219.54h-1.92v-4.43h-14.24l2.26,4.43h-2.3l-3.41-6.73v-.04h17.69v-3.58h1.92v10.36Z"/>
    <path class="st0" d="M759.94,203.56h-1.92v-4.43h-14.24l2.26,4.43h-2.3l-3.41-6.73v-.04h17.69v-3.58h1.92v10.36Z"/>
    <path class="st0" d="M760.19,183.03c0,.91-.16,1.77-.49,2.57-.33.8-.79,1.51-1.39,2.12-.6.61-1.29,1.09-2.08,1.44-.79.35-1.64.52-2.55.52-.84,0-1.62-.15-2.35-.45-.73-.3-1.38-.71-1.95-1.24-.57-.53-1.03-1.13-1.39-1.81-.4.41-.85.74-1.36.98-.51.24-1.09.36-1.73.36s-1.2-.12-1.74-.35c-.53-.23-1-.56-1.41-.97-.41-.41-.72-.89-.94-1.44-.22-.55-.33-1.13-.33-1.74s.11-1.21.33-1.75c.22-.54.53-1.02.94-1.43.4-.41.87-.74,1.41-.97.53-.23,1.11-.35,1.74-.35s1.22.12,1.74.36c.52.24.97.57,1.35.98.36-.7.82-1.3,1.39-1.82s1.22-.93,1.95-1.23,1.52-.45,2.35-.45c.91,0,1.76.17,2.55.52.79.35,1.48.83,2.08,1.44.6.61,1.06,1.32,1.39,2.12.33.8.49,1.66.49,2.57ZM747.45,183.03c0-.45-.11-.87-.33-1.24-.22-.37-.51-.66-.88-.88-.37-.22-.78-.33-1.24-.33s-.87.11-1.24.33c-.37.22-.66.52-.88.88-.22.37-.33.78-.33,1.24s.11.87.33,1.24c.22.37.51.66.88.88.37.22.78.33,1.24.33s.87-.11,1.24-.33c.37-.22.66-.52.88-.88.22-.37.33-.78.33-1.24ZM758.02,183.03c0-.81-.2-1.55-.59-2.21s-.91-1.18-1.57-1.57-1.39-.58-2.2-.58-1.55.19-2.21.58c-.66.38-1.18.91-1.57,1.57s-.58,1.4-.58,2.21.19,1.54.58,2.2c.38.65.91,1.18,1.57,1.57.66.39,1.4.59,2.21.59s1.54-.2,2.2-.59,1.18-.91,1.57-1.57c.39-.65.59-1.39.59-2.2Z"/>
    <path class="st0" d="M759.94,169.16l-7.57-4.11c.29.38.48.78.59,1.19.11.41.16.82.16,1.24,0,.82-.16,1.61-.47,2.35s-.75,1.4-1.31,1.97c-.56.57-1.22,1.02-1.98,1.34-.76.33-1.59.49-2.48.49s-1.73-.17-2.5-.51c-.77-.34-1.45-.81-2.04-1.41-.58-.6-1.03-1.29-1.35-2.08-.32-.79-.48-1.63-.48-2.53s.16-1.74.48-2.53c.32-.79.77-1.48,1.35-2.08.58-.6,1.26-1.07,2.04-1.41.78-.34,1.61-.51,2.5-.51.55,0,1.09.07,1.6.2.51.14,1,.32,1.47.56l10,5.16v2.64ZM751.11,167.11c0-.78-.19-1.49-.57-2.13-.38-.64-.88-1.15-1.52-1.52s-1.35-.56-2.13-.56-1.49.19-2.13.56-1.15.88-1.52,1.52c-.38.64-.57,1.35-.57,2.13s.19,1.49.57,2.13c.38.64.88,1.15,1.52,1.52.64.38,1.35.56,2.13.56s1.49-.19,2.13-.56c.64-.38,1.15-.88,1.52-1.52.38-.64.57-1.35.57-2.13Z"/>
  </g>
  <g>
    <path class="st4" d="M74.79,205.75l24.36-59.46h.13l24.36,59.46h-7.74l-6.78-17.01h-20.14l-6.84,17.01h-7.35ZM91.42,182.61h15.28l-4.54-11.38c-.55-1.45-1.09-2.88-1.6-4.28-.51-1.41-1.02-3.09-1.53-5.05-.51,1.96-1,3.63-1.47,5.02-.47,1.39-1,2.82-1.6,4.32l-4.54,11.38Z"/>
    <path class="st4" d="M135.15,205.75v-5.75h13.3v-42.71l-13.3,6.78v-6.91l20.2-10.23h.13v53.07h10.74v5.75h-31.07Z"/>
  </g>
  <g>
    <path class="st4" d="M62.72,671.48l24.36-59.46h.13l24.36,59.46h-7.74l-6.78-17.01h-20.14l-6.84,17.01h-7.35ZM79.35,648.34h15.28l-4.54-11.38c-.55-1.45-1.09-2.88-1.6-4.28-.51-1.41-1.02-3.09-1.53-5.05-.51,1.96-1,3.63-1.47,5.02-.47,1.39-1,2.82-1.6,4.32l-4.54,11.38Z"/>
    <path class="st4" d="M120.33,671.48v-.13l23.08-34.21c1.11-1.62,1.85-3.03,2.24-4.22s.58-2.3.58-3.33c0-1.83-.45-3.49-1.34-4.99-.9-1.49-2.11-2.68-3.64-3.58-1.53-.9-3.24-1.34-5.12-1.34s-3.57.45-5.08,1.34c-1.51.9-2.72,2.09-3.61,3.58-.9,1.49-1.34,3.16-1.34,4.99,0,1.45.32,2.84.96,4.16.64,1.32,1.62,2.52,2.94,3.58h-8.76c-1.36-2.6-2.05-5.18-2.05-7.74,0-2.3.45-4.45,1.34-6.46.9-2,2.12-3.75,3.68-5.24,1.56-1.49,3.36-2.65,5.4-3.49,2.05-.83,4.24-1.25,6.59-1.25s4.48.42,6.52,1.25c2.05.83,3.85,1.99,5.4,3.49,1.56,1.49,2.78,3.24,3.68,5.24s1.34,4.16,1.34,6.46c0,1.19-.13,2.39-.38,3.58s-.68,2.41-1.28,3.64c-.6,1.24-1.39,2.58-2.37,4.03l-16.62,24.1h21.74v6.52h-33.89Z"/>
  </g>
  <g>
    <path class="st4" d="M400.88,663.94l24.36-59.46h.13l24.36,59.46h-7.74l-6.78-17.01h-20.14l-6.84,17.01h-7.35ZM417.51,640.79h15.28l-4.54-11.38c-.55-1.45-1.09-2.88-1.6-4.28s-1.02-3.09-1.53-5.05c-.51,1.96-1,3.63-1.47,5.02-.47,1.39-1,2.82-1.6,4.32l-4.54,11.38Z"/>
    <path class="st4" d="M472.75,664.71c-3.67,0-7.02-.85-10.07-2.56-3.05-1.71-5.45-4.05-7.19-7.03l4.22-8.38c.3,2.17,1.07,4.12,2.3,5.85,1.24,1.73,2.78,3.09,4.64,4.09,1.85,1,3.89,1.5,6.11,1.5,2.43,0,4.63-.58,6.62-1.76,1.98-1.17,3.55-2.74,4.7-4.7,1.15-1.96,1.73-4.16,1.73-6.59s-.59-4.57-1.76-6.55c-1.17-1.98-2.74-3.56-4.7-4.73-1.96-1.17-4.16-1.76-6.58-1.76-1.19,0-2.3.14-3.33.42-1.02.28-1.94.65-2.75,1.12l-.06-.06,10.87-21.04h-17.78v-6.14h28.39v.13l-10.81,20.01c2.13.43,4.13,1.18,6.01,2.27,1.88,1.09,3.52,2.45,4.92,4.09,1.41,1.64,2.5,3.5,3.29,5.56.79,2.07,1.18,4.29,1.18,6.68,0,2.73-.52,5.29-1.57,7.67-1.04,2.39-2.47,4.47-4.28,6.23-1.81,1.77-3.92,3.16-6.33,4.16-2.41,1-5,1.5-7.77,1.5Z"/>
  </g>
  <g>
    <path class="st4" d="M384.01,897.7l24.36-59.46h.13l24.36,59.46h-7.74l-6.78-17.01h-20.14l-6.84,17.01h-7.35ZM400.63,874.55h15.28l-4.54-11.38c-.55-1.45-1.09-2.88-1.6-4.28s-1.02-3.09-1.53-5.05c-.51,1.96-1,3.63-1.47,5.02-.47,1.39-1,2.82-1.6,4.32l-4.54,11.38Z"/>
    <path class="st4" d="M463.17,897.7v-15.47h-27.62v-.13l21.55-41.94h7.67l-18.67,35.93h17.26v-12.92l6.52-3.45v16.37h8.63v6.14h-8.44v15.47h-6.91Z"/>
  </g>
  <g>
    <path class="st4" d="M550.88,894.23l24.36-59.46h.13l24.36,59.46h-7.74l-6.78-17.01h-20.14l-6.84,17.01h-7.35ZM567.51,871.09h15.28l-4.54-11.38c-.55-1.45-1.09-2.88-1.6-4.28s-1.02-3.09-1.53-5.05c-.51,1.96-1,3.63-1.47,5.02-.47,1.39-1,2.82-1.6,4.32l-4.54,11.38Z"/>
    <path class="st4" d="M622.75,895c-3.67,0-7.02-.85-10.07-2.56-3.05-1.71-5.45-4.05-7.19-7.03l4.22-8.38c.3,2.17,1.07,4.12,2.3,5.85,1.24,1.73,2.78,3.09,4.64,4.09,1.85,1,3.89,1.5,6.11,1.5,2.39,0,4.57-.58,6.55-1.76,1.98-1.17,3.56-2.74,4.73-4.7,1.17-1.96,1.76-4.13,1.76-6.52s-.6-4.56-1.79-6.52c-1.19-1.96-2.78-3.53-4.76-4.7-1.98-1.17-4.21-1.76-6.68-1.76-2.13,0-4.12.48-5.98,1.44-1.85.96-3.34,2.25-4.44,3.87h-.13v-31.14h25.96v6.52h-19.69v14.19c.85-.38,1.74-.65,2.65-.8.92-.15,1.8-.22,2.65-.22,2.6,0,5.05.48,7.35,1.44s4.34,2.3,6.11,4.03c1.77,1.73,3.15,3.75,4.16,6.07,1,2.32,1.5,4.85,1.5,7.58s-.52,5.28-1.57,7.64c-1.04,2.37-2.49,4.44-4.35,6.23s-3.99,3.18-6.39,4.16c-2.41.98-4.96,1.47-7.64,1.47Z"/>
  </g>
  <rect class="st2" x="35.75" y="106.28" width="677.73" height="958.18"/>
</svg>