<?xml version="1.0" encoding="utf-8"?>
<!--  Generator: Adobe Illustrator 25.2.3, SVG Export Plug-In . SVG Version: 6.00 Build 0)  -->
<svg version="1.1" id="Capa_1" xmlns="http://www.w3.org/2000/svg" xmlns:xlink="http://www.w3.org/1999/xlink" x="0px" y="0px"
	 viewBox="0 0 256 256" style="enable-background:new 0 0 256 256;" xml:space="preserve">
<style type="text/css">
	.st0{fill:none;}
	.st1{fill:#A8BB62;}
	.st2{fill:#0B4D8C;}
</style>
<circle class="st0" cx="128" cy="128" r="128"/>
<g>
	<path class="st1" d="M181.8,48c-16.1-8.1-32.9-13.6-51.1-11.6c-20.5,2.1-36.6,11.7-46.8,30c-10.2,18.6-6.1,40.5,10,56.2
		c21.8,21.5,59.8,23.9,84.2,5.7c7.4-5.6,7.4-5.6,1.5-12.4c-9.4-10.9-20-20.5-31.4-29.1c-1.4-1-2.7-2-4.1-3.1c1.1-1.2,2.1-0.9,3-0.6
		c24.2,6.9,47.3,16.7,65.6,34.6c12.6,12.3,12.6,10.5,3.8,26.6c-12.9,23.8-34.5,36.2-60.5,40.6c-33.5,5.8-63.9-1.9-89.1-25.2
		c-39.3-36.3-31-93.9,16.8-118c29.9-15,60.2-15.5,90.3-0.2c3.1,1.6,6.1,3.3,8.5,5.8C182.3,47.3,182,47.7,181.8,48z"/>
	<path class="st2" d="M34.1,122.6c1.4,4.7,2.5,9.5,4.4,14c13.7,31.5,38.5,49.3,70.9,58c9.1,2.5,18.3,3.3,27.6,3.3
		c30.3,0.1,56.1-10.2,77.3-32c0.4-0.4,1.1-0.9,1.7-1.3c-4.6,33.3-58.1,66.1-99.4,60.9C63.1,219,27,174.6,34.1,122.6z"/>
	<path class="st1" d="M182.6,47c0.4,0.4,0.9,1,1.3,1.4c-1,0.9-1.5,0-2.1-0.4C182,47.7,182.3,47.3,182.6,47z"/>
</g>
</svg>
