<?xml version="1.0" encoding="utf-8"?>
<!-- Generator: Adobe Illustrator 25.2.3, SVG Export Plug-In . SVG Version: 6.00 Build 0)  -->
<svg version="1.1" id="Capa_1" xmlns="http://www.w3.org/2000/svg" xmlns:xlink="http://www.w3.org/1999/xlink" x="0px" y="0px"
	 viewBox="0 0 2358.4 481.9" style="enable-background:new 0 0 2358.4 481.9;" xml:space="preserve">
<style type="text/css">
	.st0{fill:#FFFFFF;}
</style>
<g>
	<path class="st0" d="M456.3,289l-29.5,83.6c-1.6,4.5-5.9,7.5-10.7,7.5h-16.4c-7.8,0-13.3-7.6-10.7-14.9L479.3,108
		c1.6-4.5,5.9-7.5,10.7-7.5h26.4c4.8,0,9.1,3,10.7,7.5l90.3,257.2c2.6,7.3-2.9,14.9-10.7,14.9h-16.4c-4.8,0-9.1-3-10.7-7.5
		l-29.5-83.5l-20.3-57.9l-16-46c-3.5-10.1-17.9-10.1-21.4,0l-16.2,46L456.3,289z"/>
	<path class="st0" d="M736.9,241.1c6.5-2.8,12.2-6.6,17-11.4c4.8-5.1,8.6-10.8,11.3-17.3s4-13.3,4-20.6c0-14.3-5.1-27-15.3-37.9
		c-4.8-4.8-10.5-8.6-17-11.4s-13.3-4.2-20.4-4.2h-23.8c-6.3,0-11.5,5.1-11.5,11.4v84.2v81.8v53c0,6.3-5.1,11.4-11.5,11.4h-14.4
		c-6.3,0-11.5-5.1-11.5-11.4V111.8c0-6.3,5.1-11.4,11.5-11.4h61.2c12.5,0,24.2,2.3,35.1,6.9c10.9,4.6,20.5,11.2,28.7,19.6
		c8.2,8.7,14.6,18.6,19.1,29.7s6.8,22.8,6.8,35.2c0,11.8-2,22.9-5.9,33.3c-4,10.4-9.6,19.7-17,27.8c-7.4,8.1-16,14.8-25.9,20
		c-4.3,2.3-8.7,4.1-13.1,5.6c-7.8,2.6-10.5,12.2-5.1,18.3l56.8,64.4c6.5,7.4,1.2,18.9-8.6,18.9h-19.5c-3.4,0-6.6-1.5-8.8-4.1
		l-57.5-67.7C675.4,261.1,736.9,241.1,736.9,241.1z"/>
	<path class="st0" d="M971.1,380.9c-19,0-37-3.6-54.2-11c-17.1-7.3-32.4-17.4-45.7-30.3s-23.6-27.9-30.8-44.9s-10.8-35-10.8-54.1
		s3.7-37.4,11-55c7.4-17.5,17.6-32.6,30.6-45.3c13-12.9,28.1-23,45.3-30.3c17.1-7.3,35.3-11,54.6-11s37.5,3.7,54.8,11
		c17.3,7.3,32.4,17.4,45.5,30.3c13,12.9,23.2,28.1,30.6,45.5s11,35.7,11,54.8c0,19.9-4,38.8-11.9,56.4c-4.5,10-9.9,19.2-16.4,27.6
		c-5.7,7.5-0.4,18.3,9.1,18.3h7.7c6.3,0,11.5,5.1,11.5,11.4v15.1c0,6.3-5.1,11.4-11.5,11.4H971.1V380.9z M931.3,145.3
		c-12.6,5.2-23.7,12.6-33.4,22.1c-9.3,9.3-16.7,20.3-22.1,33.1c-5.4,12.8-8.1,26.2-8.1,40.2c0,13.8,2.6,26.9,7.9,39.4
		c5.2,12.5,12.7,23.5,22.3,33.1c9.6,9.5,20.8,16.9,33.4,22.1c12.6,5.2,25.9,7.8,39.7,7.8c13.9,0,27.1-2.6,39.7-7.8
		s23.7-12.6,33.4-22.1c2.2-2.2,4.3-4.5,6.3-6.8c6.6-7.9,12-16.6,16-26.2c5.2-12.5,7.9-25.6,7.9-39.4c0-14-2.7-27.4-8.1-40.2
		s-12.7-23.8-22.1-33.1c-9.6-9.5-20.8-16.9-33.4-22.1s-25.9-7.8-39.7-7.8C957.2,137.5,943.9,140.1,931.3,145.3z"/>
	<path class="st0" d="M1231.6,147.2v221.5c0,6.3-5.1,11.4-11.5,11.4h-14.4c-6.3,0-11.5-5.1-11.5-11.4V147.2
		c0-6.3-5.1-11.4-11.5-11.4h-45.5c-6.3,0-11.5-5.1-11.5-11.4v-13c0-6.3,5.1-11.4,11.5-11.4h151.3c6.3,0,11.5,5.1,11.5,11.4v13
		c0,6.3-5.1,11.4-11.5,11.4H1243C1236.7,135.8,1231.6,140.9,1231.6,147.2z"/>
	<path class="st0" d="M1391.2,371.5c-17.1-7.2-32.2-17.3-45.3-30.5c-13-12.9-23.2-28-30.6-45.3s-11-35.4-11-54.5s3.6-37.1,10.8-54.1
		c7.2-17,17.5-32.1,30.8-45.3c13-12.9,28.1-23,45.3-30.3c17.1-7.3,35.3-11,54.6-11c19.3,0,37.5,3.7,54.8,11s32.4,17.4,45.5,30.3
		c13,12.9,23.2,27.9,30.6,45.1c7.4,17.1,11,35.2,11,54.3s-3.7,37.3-11,54.5c-7.4,17.3-17.6,32.4-30.6,45.3s-28.2,23-45.5,30.3
		s-35.6,11-54.8,11C1426.5,382.2,1408.3,378.6,1391.2,371.5z M1406,146.5c-12.6,5.2-23.7,12.6-33.4,22.1
		c-9.6,9.5-17.1,20.6-22.3,33.1c-5.2,12.5-7.9,25.6-7.9,39.4c0,14,2.7,27.5,8.1,40.2c5.4,12.8,12.7,23.8,22.1,33.1
		c9.6,9.5,20.8,16.9,33.4,22.1s25.9,7.8,39.7,7.8c13.9,0,27.1-2.6,39.7-7.8s23.7-12.6,33.4-22.1c9.3-9.3,16.7-20.3,22.1-33.1
		s8.1-26.2,8.1-40.2c0-13.8-2.6-26.9-7.9-39.4c-5.2-12.5-12.7-23.5-22.3-33.1c-9.6-9.5-20.8-16.9-33.4-22.1s-25.9-7.8-39.7-7.8
		C1431.9,138.7,1418.6,141.3,1406,146.5z"/>
	<path class="st0" d="M1700.1,371.5c-17.1-7.2-32.2-17.3-45.3-30.5c-13-12.9-23.2-28-30.6-45.3s-11-35.4-11-54.5s3.6-37.1,10.8-54.1
		c7.2-17,17.5-32.1,30.8-45.3c13-12.9,28.1-23,45.3-30.3c17.1-7.3,35.3-11,54.6-11c19.3,0,37.5,3.7,54.8,11s32.4,17.4,45.5,30.3
		c13,12.9,23.2,27.9,30.6,45.1c7.4,17.1,11,35.2,11,54.3s-3.7,37.3-11,54.5c-7.4,17.3-17.6,32.4-30.6,45.3s-28.2,23-45.5,30.3
		s-35.6,11-54.8,11C1735.5,382.2,1717.3,378.6,1700.1,371.5z M1715,146.5c-12.6,5.2-23.7,12.6-33.4,22.1
		c-9.6,9.5-17.1,20.6-22.3,33.1c-5.2,12.5-7.9,25.6-7.9,39.4c0,14,2.7,27.5,8.1,40.2c5.4,12.8,12.7,23.8,22.1,33.1
		c9.6,9.5,20.8,16.9,33.4,22.1s25.9,7.8,39.7,7.8c13.9,0,27.1-2.6,39.7-7.8s23.7-12.6,33.4-22.1c9.3-9.3,16.7-20.3,22.1-33.1
		c5.4-12.8,8.1-26.2,8.1-40.2c0-13.8-2.6-26.9-7.9-39.4c-5.2-12.5-12.7-23.5-22.3-33.1c-9.6-9.5-20.8-16.9-33.4-22.1
		s-25.9-7.8-39.7-7.8C1740.8,138.7,1727.6,141.3,1715,146.5z"/>
	<path class="st0" d="M1926.4,368.7V111.4c0-6.3,5.1-11.4,11.5-11.4h13.6c6.3,0,11.5,5.1,11.5,11.4v219.4c0,6.3,5.1,11.4,11.5,11.4
		h62c6.3,0,11.5,5.1,11.5,11.4v15.1c0,6.3-5.1,11.4-11.5,11.4h-98.6C1931.6,380.1,1926.4,375,1926.4,368.7z"/>
	<path class="st0" d="M2093.8,296.3c5.2,0,9.9,3.5,11.1,8.5c2.7,10.7,7.3,19,13.6,24.8c11,10.1,25.9,15.2,44.6,15.2
		c17.8,0,32-4.1,42.5-12.2s15.7-18.7,15.7-31.6c0-5.9-0.8-11-2.3-15.4c-1.6-4.3-4.5-8.2-8.7-11.6c-9.6-7.3-27.6-11.9-54-13.9
		c-26.9-2.2-47.3-10-61.2-23.2s-20.8-31.7-20.8-55.6c0-24.1,7.5-43.7,22.5-58.5c15.9-15.7,38-23.6,66.3-23.6
		c29.5,0,52.4,8.8,68.8,26.5c11.7,12.5,19.6,28.1,23.9,46.8c1.6,7.1-3.9,13.9-11.2,13.9h-15c-5.4,0-9.9-3.7-11.2-8.9
		c-1.6-7-4.1-13-7.3-18.1c-5.1-7.6-11.4-13.1-18.9-16.6s-17.1-5.3-28.7-5.3c-19.3,0-32.7,4.1-40.4,12.2c-7.4,7.3-11,17.8-11,31.6
		c0,7.9,1.1,14.3,3.4,19.2c2.3,4.9,5.7,8.9,10.2,12c6.8,4.8,18,7.9,33.6,9.3c15.9,1.4,29.3,3.6,40.2,6.5s20.5,6.9,28.7,12
		c20.7,12.9,31,33.1,31,60.7c0,10.7-2.1,20.8-6.4,30.3c-4.3,9.5-10.2,18.1-17.9,25.7c-9.1,8.7-19.8,15.2-32.1,19.4
		s-25.1,6.3-38.5,6.3c-30,0-54-8.4-71.8-25.3c-15.3-15.2-24.5-35.4-27.6-60.7L2093.8,296.3z"/>
</g>
<g>
	<path class="st0" d="M99.2,279.2v63.3c0,12.1,15.6,16.9,22.4,6.9l42.4-63.3c5.5-8.2-0.3-19.2-10.1-19.2h-42.4
		C104.7,266.9,99.2,272.4,99.2,279.2z"/>
	<path class="st0" d="M99.2,213.3V111.5c0-6.8,5.5-12.3,12.2-12.3h154.7c9.8,0,15.6,11,10.1,19.2L208,220.1
		c-2.3,3.4-6.1,5.4-10.1,5.4h-86.6C104.7,225.6,99.2,220.1,99.2,213.3z"/>
	<path class="st0" d="M289.1,279.2v91.2c0,6.8-5.5,12.3-12.2,12.3H171.7c-9.8,0-15.6-11-10.1-19.2l61.1-91.2
		c2.3-3.4,6.1-5.4,10.1-5.4h44.1C283.6,266.9,289.1,272.4,289.1,279.2z"/>
</g>
</svg>
