<?xml version="1.0" encoding="utf-8"?>
<!-- Generator: Adobe Illustrator 25.2.3, SVG Export Plug-In . SVG Version: 6.00 Build 0)  -->
<svg version="1.1" id="Capa_1" xmlns="http://www.w3.org/2000/svg" xmlns:xlink="http://www.w3.org/1999/xlink" x="0px" y="0px"
	 viewBox="0 0 765.4 666.1" style="enable-background:new 0 0 765.4 666.1;" xml:space="preserve">
<style type="text/css">
	.st0{fill:none;stroke:#36A9E1;stroke-miterlimit:10;}
</style>
<g>
	<path d="M119.8,538.5l-8.9,25.3c-0.5,1.4-1.8,2.3-3.2,2.3h-5c-2.4,0-4-2.3-3.2-4.5l27.4-77.9c0.5-1.4,1.8-2.3,3.2-2.3h8
		c1.5,0,2.8,0.9,3.2,2.3l27.4,77.9c0.8,2.2-0.9,4.5-3.2,4.5h-5c-1.5,0-2.8-0.9-3.2-2.3l-8.9-25.3l-6.1-17.5l-4.9-13.9
		c-1.1-3.1-5.4-3.1-6.5,0L126,521L119.8,538.5z"/>
	<path d="M204.8,524c2-0.8,3.7-2,5.2-3.4c1.5-1.5,2.6-3.3,3.4-5.2c0.8-2,1.2-4,1.2-6.3c0-4.3-1.5-8.2-4.6-11.5
		c-1.5-1.4-3.2-2.6-5.2-3.4s-4-1.3-6.2-1.3h-7.2c-1.9,0-3.5,1.5-3.5,3.4v25.5v24.8v16.1c0,1.9-1.6,3.4-3.5,3.4H180
		c-1.9,0-3.5-1.5-3.5-3.4v-77.8c0-1.9,1.6-3.4,3.5-3.4h18.5c3.8,0,7.3,0.7,10.6,2.1c3.3,1.4,6.2,3.4,8.7,5.9c2.5,2.6,4.4,5.6,5.8,9
		s2.1,6.9,2.1,10.7c0,3.6-0.6,6.9-1.8,10.1c-1.2,3.1-2.9,6-5.2,8.4c-2.2,2.5-4.9,4.5-7.9,6.1c-1.3,0.7-2.6,1.3-4,1.7
		c-2.4,0.8-3.2,3.7-1.5,5.6l17.2,19.5c2,2.2,0.4,5.7-2.6,5.7H214c-1,0-2-0.4-2.7-1.2l-17.4-20.5C186.2,530,204.8,524,204.8,524z"/>
	<path d="M275.8,566.4c-5.8,0-11.2-1.1-16.4-3.3c-5.2-2.2-9.8-5.3-13.8-9.2c-4-3.9-7.1-8.4-9.3-13.6c-2.2-5.1-3.3-10.6-3.3-16.4
		s1.1-11.3,3.3-16.7c2.2-5.3,5.3-9.9,9.3-13.7c3.9-3.9,8.5-7,13.7-9.2c5.2-2.2,10.7-3.3,16.5-3.3c5.8,0,11.4,1.1,16.6,3.3
		c5.2,2.2,9.8,5.3,13.8,9.2c3.9,3.9,7,8.5,9.3,13.8c2.2,5.3,3.3,10.8,3.3,16.6c0,6-1.2,11.7-3.6,17.1c-1.4,3-3,5.8-5,8.4
		c-1.7,2.3-0.1,5.6,2.8,5.6h2.3c1.9,0,3.5,1.5,3.5,3.4v4.6c0,1.9-1.6,3.4-3.5,3.4L275.8,566.4L275.8,566.4z M263.7,495
		c-3.8,1.6-7.2,3.8-10.1,6.7c-2.8,2.8-5.1,6.1-6.7,10s-2.4,7.9-2.4,12.2c0,4.2,0.8,8.1,2.4,11.9s3.8,7.1,6.8,10
		c2.9,2.9,6.3,5.1,10.1,6.7c3.8,1.6,7.8,2.4,12,2.4c4.2,0,8.2-0.8,12-2.4c3.8-1.6,7.2-3.8,10.1-6.7c0.7-0.7,1.3-1.4,1.9-2.1
		c2-2.4,3.6-5,4.9-7.9c1.6-3.8,2.4-7.8,2.4-11.9c0-4.3-0.8-8.3-2.4-12.2c-1.6-3.9-3.9-7.2-6.7-10c-2.9-2.9-6.3-5.1-10.1-6.7
		s-7.8-2.4-12-2.4C271.6,492.6,267.6,493.4,263.7,495z"/>
	<path d="M354.7,495.5v67.1c0,1.9-1.6,3.4-3.5,3.4h-4.4c-1.9,0-3.5-1.5-3.5-3.4v-67.1c0-1.9-1.6-3.4-3.5-3.4H326
		c-1.9,0-3.5-1.5-3.5-3.4v-4c0-1.9,1.6-3.4,3.5-3.4h45.8c1.9,0,3.5,1.5,3.5,3.4v4c0,1.9-1.6,3.4-3.5,3.4H358
		C356.3,492.1,354.7,493.6,354.7,495.5z"/>
	<path d="M403.1,563.5c-5.2-2.2-9.8-5.3-13.7-9.3c-3.9-3.9-7-8.5-9.3-13.7c-2.2-5.2-3.3-10.7-3.3-16.5s1.1-11.3,3.3-16.4
		s5.3-9.7,9.3-13.7c3.9-3.9,8.5-7,13.7-9.2s10.7-3.3,16.5-3.3s11.4,1.1,16.6,3.3c5.2,2.2,9.8,5.3,13.8,9.2c3.9,3.9,7,8.5,9.3,13.7
		c2.2,5.2,3.3,10.7,3.3,16.5s-1.1,11.3-3.3,16.5s-5.3,9.8-9.3,13.7c-4,3.9-8.5,7-13.8,9.2c-5.2,2.2-10.8,3.3-16.6,3.3
		C413.8,566.8,408.3,565.7,403.1,563.5z M407.6,495.3c-3.8,1.6-7.2,3.8-10.1,6.7c-2.9,2.9-5.2,6.2-6.8,10s-2.4,7.8-2.4,11.9
		c0,4.3,0.8,8.3,2.4,12.2c1.6,3.9,3.9,7.2,6.7,10c2.9,2.9,6.3,5.1,10.1,6.7s7.8,2.4,12,2.4s8.2-0.8,12-2.4s7.2-3.8,10.1-6.7
		c2.8-2.8,5.1-6.1,6.7-10c1.6-3.9,2.4-7.9,2.4-12.2c0-4.2-0.8-8.1-2.4-11.9c-1.6-3.8-3.8-7.1-6.8-10c-2.9-2.9-6.3-5.1-10.1-6.7
		s-7.8-2.4-12-2.4C415.4,493,411.4,493.8,407.6,495.3z"/>
	<path d="M496.7,563.5c-5.2-2.2-9.8-5.3-13.7-9.3c-3.9-3.9-7-8.5-9.3-13.7c-2.2-5.2-3.3-10.7-3.3-16.5s1.1-11.3,3.3-16.4
		s5.3-9.7,9.3-13.7c3.9-3.9,8.5-7,13.7-9.2s10.7-3.3,16.5-3.3s11.4,1.1,16.6,3.3c5.2,2.2,9.8,5.3,13.8,9.2c3.9,3.9,7,8.5,9.3,13.7
		c2.2,5.2,3.3,10.7,3.3,16.5s-1.1,11.3-3.3,16.5s-5.3,9.8-9.3,13.7c-4,3.9-8.5,7-13.8,9.2c-5.2,2.2-10.8,3.3-16.6,3.3
		C507.4,566.8,501.9,565.7,496.7,563.5z M501.2,495.3c-3.8,1.6-7.2,3.8-10.1,6.7c-2.9,2.9-5.2,6.2-6.8,10s-2.4,7.8-2.4,11.9
		c0,4.3,0.8,8.3,2.4,12.2c1.6,3.9,3.9,7.2,6.7,10c2.9,2.9,6.3,5.1,10.1,6.7s7.8,2.4,12,2.4s8.2-0.8,12-2.4s7.2-3.8,10.1-6.7
		c2.8-2.8,5.1-6.1,6.7-10c1.6-3.9,2.4-7.9,2.4-12.2c0-4.2-0.8-8.1-2.4-11.9c-1.6-3.8-3.8-7.1-6.8-10c-2.9-2.9-6.3-5.1-10.1-6.7
		s-7.8-2.4-12-2.4C509,493,505,493.8,501.2,495.3z"/>
	<path d="M565.3,562.7v-78c0-1.9,1.6-3.4,3.5-3.4h4.1c1.9,0,3.5,1.5,3.5,3.4v66.5c0,1.9,1.6,3.4,3.5,3.4h18.8c1.9,0,3.5,1.5,3.5,3.4
		v4.6c0,1.9-1.6,3.4-3.5,3.4h-29.9C566.8,566.1,565.3,564.6,565.3,562.7z"/>
	<path d="M616,540.7c1.6,0,3,1,3.4,2.6c0.8,3.2,2.2,5.7,4.1,7.5c3.3,3.1,7.9,4.6,13.5,4.6c5.4,0,9.7-1.2,12.9-3.7s4.8-5.7,4.8-9.6
		c0-1.8-0.2-3.3-0.7-4.7c-0.5-1.3-1.4-2.5-2.6-3.5c-2.9-2.2-8.4-3.6-16.4-4.2c-8.2-0.7-14.3-3-18.5-7s-6.3-9.6-6.3-16.8
		c0-7.3,2.3-13.2,6.8-17.7c4.8-4.8,11.5-7.1,20.1-7.1c8.9,0,15.9,2.7,20.9,8c3.5,3.8,6,8.5,7.2,14.2c0.5,2.2-1.2,4.2-3.4,4.2h-4.6
		c-1.6,0-3-1.1-3.4-2.7c-0.5-2.1-1.2-3.9-2.2-5.5c-1.5-2.3-3.5-4-5.7-5c-2.3-1.1-5.2-1.6-8.7-1.6c-5.8,0-9.9,1.2-12.2,3.7
		c-2.2,2.2-3.3,5.4-3.3,9.6c0,2.4,0.3,4.3,1,5.8s1.7,2.7,3.1,3.6c2.1,1.4,5.5,2.4,10.2,2.8c4.8,0.4,8.9,1.1,12.2,2s6.2,2.1,8.7,3.6
		c6.3,3.9,9.4,10,9.4,18.4c0,3.2-0.6,6.3-1.9,9.2c-1.3,2.9-3.1,5.5-5.4,7.8c-2.7,2.6-6,4.6-9.7,5.9s-7.6,1.9-11.7,1.9
		c-9.1,0-16.4-2.6-21.8-7.7c-4.6-4.6-7.4-10.7-8.4-18.4L616,540.7z"/>
</g>
<g>
	<path d="M287.7,279.2v63.3c0,12.1,15.6,16.9,22.4,6.9l42.4-63.3c5.5-8.2-0.3-19.2-10.1-19.2H300
		C293.2,266.9,287.7,272.4,287.7,279.2z"/>
	<path d="M287.7,213.3V111.6c0-6.8,5.5-12.3,12.2-12.3h154.7c9.8,0,15.6,11,10.1,19.2l-68.2,101.7c-2.3,3.4-6.1,5.4-10.1,5.4h-86.6
		C293.2,225.6,287.7,220.1,287.7,213.3z"/>
	<path d="M477.6,279.2v91.2c0,6.8-5.5,12.3-12.2,12.3H360.2c-9.8,0-15.6-11-10.1-19.2l61.1-91.2c2.3-3.4,6.1-5.4,10.1-5.4h44.1
		C472.1,266.9,477.6,272.4,477.6,279.2z"/>
</g>
</svg>
