<?xml version="1.0" encoding="utf-8"?>
<!-- Generator: Adobe Illustrator 25.2.3, SVG Export Plug-In . SVG Version: 6.00 Build 0)  -->
<svg version="1.1" id="Capa_1" xmlns="http://www.w3.org/2000/svg" xmlns:xlink="http://www.w3.org/1999/xlink" x="0px" y="0px"
	 viewBox="0 0 256 256" style="enable-background:new 0 0 256 256;" xml:space="preserve">
<style type="text/css">
	.st0{fill:#FFFFFF;}
</style>
<g>
	<path d="M176.4,223.3c0,8.8-6,14.7-14.8,14.7c-48.9,0-97.7,0-146.6,0c-9.1,0-15-6-15-15.1c0-25.4,0-50.8,0-76.2
		c0-25.1,0-50.2,0.1-75.4c0-2.6,0.5-5.4,1.6-7.7c6.5-15,17.2-26.5,30-36.3c7.7-5.9,16-10.7,25.6-12.8c1.6-0.4,3.3-0.4,5-0.4
		c33,0,65.9,0,98.9,0c9.4,0,15.3,5.8,15.3,15.2c0,19.2,0,38.3,0,57.5L176.4,223.3z M166.8,29c0-3.7-2-5.5-5.9-5.5
		c-33,0-65.9,0.1-98.9,0.1c-3.9,0-7,1.5-9.4,4.8c-4.8,6.7-7.3,14-7.4,22.2c0,7.1,1.8,13.9,4.2,20.5c1.3,3.4,0.4,5.6-2.9,7
		c-7.4,3.3-15,5.3-23.1,3.7C19,81,14.5,79.5,9.6,78.2c0,0.5-0.1,1.1-0.1,1.8c0,47.4,0,94.7,0,142.1c0,4.7,1.8,6.4,6.6,6.4
		c48.2,0,96.3,0,144.5,0c4.6,0,6.3-1.7,6.3-6.3L166.8,29z M38.9,70.9c-5.1-22.4-3.4-24.4-0.8-36.5c-11.7,9.1-21.3,19.1-27.4,32.4
		C19.6,72.5,28.8,74.1,38.9,70.9z"/>
	<path class="st0" d="M166.8,82.3c0-17.8,0-35.5,0-53.3c0-3.7-2-5.5-5.9-5.5c-33,0-65.9,0.1-98.9,0.1c-3.9,0-7,1.5-9.4,4.8
		c-4.8,6.7-7.3,14-7.4,22.2c0,7.1,1.8,13.9,4.2,20.5c1.3,3.4,0.4,5.6-2.9,7c-7.4,3.3-15,5.3-23.1,3.7C19,81,14.5,79.5,9.6,78.2
		c0,0.5-0.1,1.1-0.1,1.8c0,47.4,0,94.7,0,142.1c0,4.7,1.8,6.4,6.6,6.4c48.2,0,96.3,0,144.5,0c4.6,0,6.3-1.7,6.3-6.3L166.8,82.3z"/>
	<path class="st0" d="M38.9,70.9c-10,3.2-19.2,1.5-28.2-4.1c6-13.2,15.7-23.3,27.3-32.3C35.5,46.6,33.7,48.6,38.9,70.9z"/>
</g>
<g>
	<path d="M160.7,39.7c7.2,0,14.3,0,21.5,0c0.7,0.2,1.4,0.4,2.1,0.7c3.6,1.7,5.4,4.7,6.3,8.5c0.8,3.4,1.8,6.7,2.3,10.1
		c0.4,3.2,1.8,5.1,5,5.8c0.7,0.1,1.1,0.2,1.8-0.1c4-2.4,8-4.8,12-7.2c5-2.9,9.2-2.4,13.3,1.7c3.9,3.9,7.7,7.7,11.6,11.6
		c4.3,4.3,4.8,8.4,1.7,13.6c-1.7,3-3.5,5.9-5.3,8.9c-0.7,1.2-2,2.5-2.1,3.7c-0.1,1.3,0.9,2.7,1.5,4c0.2,0.4,0.8,0.9,1.2,1
		c4.2,1.1,8.3,2.2,12.5,3c4.7,1,8.3,3.3,9.9,8c0,7.6,0,15.1,0,22.7c-1.5,4.1-4.4,6.6-8.7,7.7c-3.4,0.8-6.9,1.6-10.3,2.5
		c-1.4,0.3-3.1,0.3-4.1,1.1c-1,0.9-1.4,2.6-1.9,3.9c-0.2,0.5-0.1,1.2,0.1,1.6c2.4,4.2,5,8.3,7.4,12.5c2.6,4.5,2,8.8-1.7,12.4
		c-4.1,4.1-8.2,8.3-12.4,12.3c-1.2,1.2-2.7,2.1-4.3,2.8c-3,1.2-5.8,0.3-8.5-1.2c-3.1-1.8-6.3-3.4-9.2-5.5c-2.7-2-5.1-2.3-7.8-0.5
		c-0.4,0.3-0.9,0.7-1,1.2c-1.1,4.1-2.2,8.2-3.1,12.4c-1,4.6-3.4,8-8,9.5c-7.5,0-15,0-22.4,0c-4.6-1.5-7-4.7-8.1-9.3
		c-0.7-3.2-1.7-6.4-2.3-9.6c-0.5-2.8-1.6-4.7-4.5-5.3c-0.1,0-0.2-0.1-0.3-0.2c-0.7-0.5-1.3-0.3-2,0.2c-4,2.4-7.9,4.9-12,7.2
		c-4.9,2.8-9,2.3-13-1.7s-8-7.9-11.9-12c-1.2-1.3-2.3-2.9-3-4.6c-1.2-3-0.3-5.8,1.3-8.5c2.1-3.5,4.1-7,6.3-10.4
		c1.2-1.8,1.5-3.3,0.3-5.1c-0.3-0.4-0.4-0.9-0.5-1.3c-0.2-0.7-0.7-1-1.3-1.2c-4.2-1-8.3-2.1-12.5-3.1c-4.6-1.1-8-3.5-9.3-8.3
		c0-7.2,0-14.5,0-21.7c0.3-0.8,0.5-1.6,0.9-2.3c1.7-3.2,4.4-5,7.9-5.9c3.3-0.8,6.6-1.8,9.9-2.4c3-0.5,5-1.8,5.7-4.9
		c0.2-0.8,0.3-1.4-0.2-2.1c-2.5-4.1-5-8.2-7.4-12.4c-2.5-4.3-2-8.5,1.4-12c4.1-4.3,8.3-8.5,12.6-12.6c4.1-4,8-4.3,13-1.4
		c3.1,1.8,6.1,3.6,9.1,5.4c1.2,0.7,2.4,1.9,3.6,2c1.3,0.1,2.7-0.8,4-1.5c0.5-0.2,0.9-0.8,1.1-1.2c1-4.2,2.1-8.4,3-12.7
		C153.1,44.6,155.5,41,160.7,39.7z M112.8,78.5c2.9,4.9,5.8,9.6,8.6,14.3c1.4,2.3,1.6,4.7,0.5,7.1c-0.9,2.1-1.8,4.3-2.6,6.5
		c-1,2.7-2.9,4.4-5.7,5c-4.9,1.2-9.7,2.4-14.6,3.6c-1.1,0.3-1.5,0.6-1.5,1.8c0.1,5,0.1,10.1,0,15.1c0,1.2,0.4,1.6,1.4,1.9
		c5,1.2,9.9,2.4,14.8,3.7c2.6,0.6,4.4,2.2,5.4,4.7c0.9,2.2,1.7,4.4,2.7,6.6c1.1,2.6,1,5-0.5,7.5c-2.7,4.3-5.3,8.7-7.9,13.1
		c-0.4,0.7-0.5,1.1,0.2,1.7c3.8,3.7,7.5,7.5,11.3,11.3c0.6,0.6,1,0.6,1.6,0.2c4.4-2.7,8.8-5.3,13.2-8c2.4-1.5,4.8-1.6,7.4-0.5
		c2,0.9,4,1.8,6,2.5c3.1,1.1,4.8,3.1,5.5,6.3c1.1,4.8,2.3,9.5,3.5,14.3c0.2,1.1,0.7,1.4,1.8,1.4c5.1-0.1,10.1-0.1,15.2,0
		c1.2,0,1.6-0.3,1.8-1.4c1.1-4.9,2.4-9.7,3.6-14.6c0.7-2.7,2.2-4.6,4.8-5.6c2.2-0.9,4.5-1.8,6.7-2.7c2.5-1,4.9-0.9,7.3,0.6
		c4.4,2.6,8.8,5.2,13.1,7.9c0.8,0.5,1.3,0.4,1.9-0.2c3.6-3.7,7.3-7.4,11-11c0.6-0.6,0.7-1.1,0.2-1.8c-2.7-4.3-5.3-8.7-7.9-13.1
		c-1.5-2.4-1.7-4.9-0.5-7.5c0.9-2.1,1.8-4.3,2.6-6.5c1-2.6,2.8-4.2,5.6-4.9c5.2-1.2,10.4-2.5,15.6-3.7c0.9-0.2,1.2-0.6,1.2-1.5
		c0-5.1-0.1-10.2,0-15.3c0-1.1-0.3-1.5-1.4-1.8c-5.1-1.2-10.1-2.5-15.2-3.6c-2.9-0.7-4.8-2.3-5.8-5.1c-0.8-2.1-1.6-4.2-2.5-6.2
		c-1.2-2.6-1-5,0.5-7.5c2.7-4.3,5.2-8.8,7.9-13.1c0.5-0.8,0.4-1.3-0.3-1.9c-2.3-2.2-4.6-4.5-6.8-6.8c-1.6-1.6-3.3-3.3-5-5
		c-0.5,0.3-0.9,0.5-1.3,0.7c-4.3,2.6-8.6,5.2-12.9,7.8c-2.3,1.4-4.7,1.6-7.2,0.5c-2.1-0.9-4.1-1.8-6.2-2.6c-2.9-1.1-4.6-3-5.3-6
		c-1.1-5.1-2.4-10.2-3.6-15.2c-0.2-0.8-0.5-1.2-1.5-1.2c-5.1,0-10.3,0.1-15.4,0c-1.3,0-1.6,0.5-1.9,1.6c-1.2,5-2.4,10.1-3.5,15.1
		c-0.6,2.8-2.3,4.7-5,5.7c-2.1,0.8-4.1,1.6-6.1,2.5c-2.7,1.2-5.3,1-7.8-0.5c-4.3-2.7-8.7-5.2-13-7.8c-0.5-0.3-0.9-0.6-1.5-0.1
		C121,70.3,116.9,74.4,112.8,78.5z"/>
	<path class="st0" d="M112.8,78.5c4.1-4.1,8.2-8.1,12.2-12.2c0.6-0.6,1-0.2,1.5,0.1c4.3,2.6,8.7,5.2,13,7.8c2.5,1.6,5.1,1.8,7.8,0.5
		c2-0.9,4.1-1.7,6.1-2.5c2.7-1,4.4-2.9,5-5.7c1.2-5,2.4-10.1,3.5-15.1c0.2-1.1,0.6-1.6,1.9-1.6c5.1,0.1,10.3,0.1,15.4,0
		c0.9,0,1.3,0.3,1.5,1.2c1.2,5.1,2.4,10.1,3.6,15.2c0.7,3,2.4,5,5.3,6c2.1,0.8,4.2,1.7,6.2,2.6c2.5,1.1,4.9,0.9,7.2-0.5
		c4.3-2.6,8.6-5.2,12.9-7.8c0.4-0.2,0.8-0.5,1.3-0.7c1.7,1.7,3.3,3.3,5,5c2.3,2.3,4.5,4.6,6.8,6.8c0.7,0.6,0.8,1.1,0.3,1.9
		c-2.7,4.3-5.2,8.7-7.9,13.1c-1.5,2.4-1.6,4.9-0.5,7.5c0.9,2.1,1.8,4.1,2.5,6.2c1,2.7,2.9,4.4,5.8,5.1c5.1,1.2,10.1,2.4,15.2,3.6
		c1,0.2,1.4,0.7,1.4,1.8c-0.1,5.1-0.1,10.2,0,15.3c0,0.9-0.2,1.3-1.2,1.5c-5.2,1.2-10.4,2.5-15.6,3.7c-2.7,0.6-4.5,2.3-5.6,4.9
		c-0.8,2.2-1.7,4.3-2.6,6.5c-1.1,2.6-0.9,5,0.5,7.5c2.7,4.4,5.2,8.7,7.9,13.1c0.5,0.8,0.4,1.2-0.2,1.8c-3.7,3.6-7.4,7.3-11,11
		c-0.7,0.7-1.1,0.7-1.9,0.2c-4.3-2.7-8.7-5.3-13.1-7.9c-2.3-1.4-4.7-1.6-7.3-0.6c-2.2,0.9-4.4,1.8-6.7,2.7c-2.6,1-4.2,2.9-4.8,5.6
		c-1.2,4.9-2.4,9.7-3.6,14.6c-0.3,1.1-0.7,1.5-1.8,1.4c-5.1-0.1-10.1-0.1-15.2,0c-1.1,0-1.5-0.3-1.8-1.4c-1.1-4.8-2.4-9.5-3.5-14.3
		c-0.7-3.1-2.5-5.2-5.5-6.3c-2-0.7-4-1.6-6-2.5c-2.6-1.1-5-0.9-7.4,0.5c-4.4,2.7-8.8,5.3-13.2,8c-0.6,0.4-1.1,0.4-1.6-0.2
		c-3.7-3.8-7.5-7.5-11.3-11.3c-0.6-0.6-0.6-1-0.2-1.7c2.7-4.4,5.2-8.8,7.9-13.1c1.5-2.4,1.7-4.8,0.5-7.5c-1-2.2-1.8-4.4-2.7-6.6
		c-1-2.5-2.8-4.1-5.4-4.7c-4.9-1.2-9.9-2.5-14.8-3.7c-1.1-0.3-1.5-0.7-1.4-1.9c0.1-5,0.1-10.1,0-15.1c0-1.2,0.4-1.6,1.5-1.8
		c4.9-1.2,9.7-2.4,14.6-3.6c2.8-0.7,4.7-2.3,5.7-5c0.8-2.2,1.7-4.3,2.6-6.5c1.1-2.5,0.9-4.8-0.5-7.1
		C118.6,88.1,115.7,83.3,112.8,78.5z M156.6,110.9c1.1-0.3,2-0.6,2.9-0.8c3.2-0.7,5.7,1,6.1,4.3c0.1,1.2,0.2,2.3,0.2,3.5
		c0,9.9,0,19.8,0,29.7c0,2.3,0.2,4.6,0.5,6.8c1,7,6.7,11.1,13.5,9.9c6.5-1.1,11.5-8.5,10.5-15.5c-0.4,0-0.8,0-1.2,0
		c-0.9-0.1-1.3,0.1-1.5,1.2c-0.2,1.5-0.6,2.9-1.1,4.3c-0.9,2.4-2.7,3.6-4.8,3.4c-2.5-0.2-4-1.6-4.5-4.2c-0.3-1.5-0.5-3-0.5-4.5
		c0-15.3,0-30.6,0-46c0-0.5,0-1,0-1.8c-1.5,0.3-2.8,0.4-3.9,0.8c-5.3,2.1-10.6,4.3-16,6.5c-0.3,0.1-0.6,0.3-1,0.5
		C156.1,109.4,156.3,110.1,156.6,110.9z M170.5,94.1c3.9,0,7.1-3.2,7.1-7c0-3.9-3.2-7.1-7.1-7.1c-3.9,0-7,3.2-7.1,7.1
		C163.4,90.9,166.6,94.1,170.5,94.1z"/>
	<path d="M156.6,110.9c-0.3-0.8-0.5-1.4-0.8-2.2c0.4-0.2,0.7-0.4,1-0.5c5.3-2.2,10.6-4.4,16-6.5c1.1-0.5,2.4-0.5,3.9-0.8
		c0,0.8,0,1.3,0,1.8c0,15.3,0,30.6,0,46c0,1.5,0.2,3.1,0.5,4.5c0.5,2.6,2.1,4,4.5,4.2c2.2,0.2,4-1,4.8-3.4c0.5-1.4,0.9-2.8,1.1-4.3
		c0.1-1,0.6-1.3,1.5-1.2c0.4,0,0.8,0,1.2,0c1,7-4,14.4-10.5,15.5c-6.9,1.2-12.6-2.9-13.5-9.9c-0.3-2.3-0.5-4.6-0.5-6.8
		c-0.1-9.9,0-19.8,0-29.7c0-1.2-0.1-2.3-0.2-3.5c-0.4-3.3-2.8-5-6.1-4.3C158.6,110.3,157.6,110.6,156.6,110.9z"/>
	<path d="M170.5,94.1c-3.9,0-7.1-3.2-7.1-7.1s3.2-7.1,7.1-7.1c3.9,0,7.1,3.2,7.1,7.1S174.3,94.1,170.5,94.1z"/>
</g>
</svg>
