<?xml version="1.0" encoding="utf-8"?>
<!-- Generator: Adobe Illustrator 25.2.3, SVG Export Plug-In . SVG Version: 6.00 Build 0)  -->
<svg version="1.1" id="Capa_1" xmlns="http://www.w3.org/2000/svg" xmlns:xlink="http://www.w3.org/1999/xlink" x="0px" y="0px"
	 viewBox="0 0 388.3 481.9" style="enable-background:new 0 0 388.3 481.9;" xml:space="preserve">
<style type="text/css">
	.st0{fill:#FFFFFF;}
</style>
<g>
	<path class="st0" d="M99.2,279.2v63.3c0,12.1,15.6,16.9,22.4,6.9l42.4-63.3c5.5-8.2-0.3-19.2-10.1-19.2h-42.4
		C104.6,266.9,99.2,272.4,99.2,279.2z"/>
	<path class="st0" d="M99.2,213.3V111.6c0-6.8,5.5-12.3,12.2-12.3h154.7c9.8,0,15.6,11,10.1,19.2L208,220.2
		c-2.3,3.4-6.1,5.4-10.1,5.4h-86.6C104.6,225.6,99.2,220.1,99.2,213.3z"/>
	<path class="st0" d="M289.1,279.2v91.2c0,6.8-5.5,12.3-12.2,12.3H171.7c-9.8,0-15.6-11-10.1-19.2l61.1-91.2
		c2.3-3.4,6.1-5.4,10.1-5.4h44.1C283.6,266.9,289.1,272.4,289.1,279.2z"/>
</g>
</svg>
