<?xml version="1.0" encoding="utf-8"?>
<!-- Generator: Adobe Illustrator 25.2.3, SVG Export Plug-In . SVG Version: 6.00 Build 0) -->
<svg version="1.1" id="Capa_1" xmlns="http://www.w3.org/2000/svg" xmlns:xlink="http://www.w3.org/1999/xlink" x="0px" y="0px"
	 viewBox="0 0 768 256" style="enable-background:new 0 0 768 256;" xml:space="preserve">
<path d="M748.2,39.6H531.8c-10.9,0-19.8-8.9-19.8-19.8l0,0C512,8.9,520.9,0,531.8,0h216.4C759.1,0,768,8.9,768,19.8l0,0
	C768,30.7,759.1,39.6,748.2,39.6z"/>
<path d="M748.2,147.8H531.8c-10.9,0-19.8-8.9-19.8-19.8l0,0c0-10.9,8.9-19.8,19.8-19.8h216.4c10.9,0,19.8,8.9,19.8,19.8l0,0
	C768,138.9,759.1,147.8,748.2,147.8z"/>
<path d="M748.2,256H531.8c-10.9,0-19.8-8.9-19.8-19.8l0,0c0-10.9,8.9-19.8,19.8-19.8h216.4c10.9,0,19.8,8.9,19.8,19.8l0,0
	C768,247.1,759.1,256,748.2,256z"/>
</svg>
