<?xml version="1.0" encoding="utf-8"?>
<!-- Generator: Adobe Illustrator 25.2.3, SVG Export Plug-In . SVG Version: 6.00 Build 0)  -->
<svg version="1.1" id="Capa_1" xmlns="http://www.w3.org/2000/svg" xmlns:xlink="http://www.w3.org/1999/xlink" x="0px" y="0px"
	 viewBox="0 0 256 256" style="enable-background:new 0 0 256 256;" xml:space="preserve">
<style type="text/css">
	.st0{fill:#FFFFFF;}
</style>
<path class="st0" d="M236.2,39.6H19.8C8.9,39.6,0,30.7,0,19.8l0,0C0,8.9,8.9,0,19.8,0h216.4C247.1,0,256,8.9,256,19.8l0,0
	C256,30.7,247.1,39.6,236.2,39.6z"/>
<path class="st0" d="M236.2,147.8H19.8C8.9,147.8,0,138.9,0,128l0,0c0-10.9,8.9-19.8,19.8-19.8h216.4c10.9,0,19.8,8.9,19.8,19.8l0,0
	C256,138.9,247.1,147.8,236.2,147.8z"/>
<path class="st0" d="M236.2,256H19.8C8.9,256,0,247.1,0,236.2l0,0c0-10.9,8.9-19.8,19.8-19.8h216.4c10.9,0,19.8,8.9,19.8,19.8l0,0
	C256,247.1,247.1,256,236.2,256z"/>
</svg>
