<?xml version="1.0" encoding="utf-8"?>
<!-- Generator: Adobe Illustrator 25.2.3, SVG Export Plug-In . SVG Version: 6.00 Build 0)  -->
<svg version="1.1" id="Capa_1" xmlns="http://www.w3.org/2000/svg" xmlns:xlink="http://www.w3.org/1999/xlink" x="0px" y="0px"
	 viewBox="0 0 256 256" style="enable-background:new 0 0 256 256;" xml:space="preserve">
<style type="text/css">
	.st0{display:none;fill:#1D1D1B;}
	.st1{fill:#FFFFFF;}
</style>
<rect x="-33" y="-12.9" class="st0" width="340.8" height="280.2"/>
<path class="st1" d="M173.4,39.6H19.8C8.9,39.6,0,30.7,0,19.8l0,0C0,8.9,8.9,0,19.8,0h153.6c10.9,0,19.8,8.9,19.8,19.8l0,0
	C193.2,30.7,184.3,39.6,173.4,39.6z"/>
<path class="st1" d="M173.4,256H19.8C8.9,256,0,247.1,0,236.2l0,0c0-10.9,8.9-19.8,19.8-19.8h153.6c10.9,0,19.8,8.9,19.8,19.8l0,0
	C193.2,247.1,184.3,256,173.4,256z"/>
<path class="st1" d="M236.2,147.8H82.6c-10.9,0-19.8-8.9-19.8-19.8l0,0c0-10.9,8.9-19.8,19.8-19.8h153.6c10.9,0,19.8,8.9,19.8,19.8
	l0,0C256,138.9,247.1,147.8,236.2,147.8z"/>
</svg>
