<?xml version="1.0" encoding="utf-8"?>
<!-- Generator: Adobe Illustrator 25.2.3, SVG Export Plug-In . SVG Version: 6.00 Build 0)  -->
<svg version="1.1" id="Capa_1" xmlns="http://www.w3.org/2000/svg" xmlns:xlink="http://www.w3.org/1999/xlink" x="0px" y="0px"
	 viewBox="0 0 256 256" style="enable-background:new 0 0 256 256;" xml:space="preserve">
<style type="text/css">
	.st0{fill:none;}
	.st1{fill:#132034;}
	.st2{fill:#529FD7;}
</style>
<circle class="st0" cx="128" cy="128" r="128"/>
<g id="Surfaces">
	<g id="Photo_Surface">
		<g id="Outline_no_shadow">
			<path class="st1" d="M60.3,25.5h135.3c20.5,0,37.1,16.6,37.1,37.1v130.1c0,20.5-16.6,37.1-37.1,37.1H60.3
				c-20.5,0-37.1-16.6-37.1-37.1V62.6C23.2,42.1,39.8,25.5,60.3,25.5z"/>
		</g>
	</g>
</g>
<g id="Outlined_Mnemonics_Logos">
	<g id="Ps">
		<path class="st2" d="M70,168.4V78.6c0-0.6,0.3-1,0.9-1c1.5,0,2.9,0,4.9-0.1c2.1-0.1,4.3-0.1,6.6-0.2c2.4-0.1,4.9-0.1,7.6-0.2
			c2.7-0.1,5.3-0.1,7.9-0.1c7.2,0,13.1,0.9,18,2.7c4.4,1.5,8.4,3.9,11.7,7.2c2.8,2.8,5,6.2,6.4,10c1.3,3.7,2,7.4,2,11.3
			c0,7.5-1.7,13.7-5.2,18.6c-3.5,4.9-8.4,8.6-14.1,10.7c-5.9,2.2-12.5,3-19.6,3c-2.1,0-3.5,0-4.4-0.1s-2.1-0.1-3.8-0.1v28
			c0.1,0.6-0.3,1.1-1,1.2c-0.1,0-0.2,0-0.3,0H71.1C70.4,169.6,70,169.2,70,168.4z M89,94.5v29.3c1.2,0.1,2.4,0.2,3.4,0.2h4.6
			c3.4,0,6.8-0.5,10-1.6c2.8-0.8,5.2-2.4,7.2-4.6c1.8-2.2,2.7-5.2,2.7-9c0.1-2.7-0.6-5.4-2-7.8c-1.5-2.3-3.6-4-6.1-5
			c-3.2-1.3-6.7-1.8-10.3-1.7c-2.3,0-4.3,0-5.9,0.1C90.9,94.3,89.7,94.4,89,94.5L89,94.5z"/>
		<path class="st2" d="M190.5,118.5c-2.6-1.4-5.4-2.4-8.4-3c-3.2-0.7-6.5-1.1-9.8-1.1c-1.7-0.1-3.6,0.2-5.2,0.6
			c-1.1,0.3-2.1,0.9-2.7,1.7c-0.4,0.7-0.7,1.6-0.7,2.4c0,0.8,0.3,1.6,0.9,2.3c0.8,1,1.8,1.7,3,2.4c2,1,4.1,2,6.2,2.9
			c4.7,1.6,9.3,3.8,13.4,6.4c2.9,1.8,5.2,4.3,6.9,7.2c1.4,2.8,2.1,5.8,2,9c0.1,4.1-1.1,8.2-3.4,11.6c-2.4,3.5-5.8,6.2-9.8,7.8
			c-4.3,1.8-9.5,2.8-15.8,2.8c-4,0-7.9-0.3-11.9-1.1c-3.1-0.5-6.1-1.5-8.9-2.8c-0.6-0.3-1-1-1-1.7v-15.2c0-0.3,0.1-0.6,0.3-0.8
			c0.3-0.2,0.5-0.1,0.8,0.1c3.4,2,7,3.4,10.8,4.3c3.3,0.9,6.8,1.3,10.3,1.3c3.3,0,5.7-0.4,7.2-1.2c1.4-0.6,2.4-2.1,2.4-3.7
			c0-1.2-0.7-2.4-2.1-3.5c-1.4-1.1-4.3-2.4-8.6-4.1c-4.5-1.6-8.6-3.7-12.4-6.3c-2.7-1.9-5-4.5-6.6-7.4c-1.4-2.8-2.1-5.8-2-8.9
			c0-3.8,1-7.3,3-10.6c2.2-3.5,5.4-6.3,9.2-8c4.1-2.1,9.3-3.1,15.5-3.1c3.6,0,7.2,0.3,10.8,0.8c2.6,0.3,5.2,1,7.5,2
			c0.3,0.1,0.7,0.4,0.9,0.8c0.1,0.3,0.2,0.7,0.2,1v14.2c0,0.3-0.2,0.7-0.4,0.9C191.3,118.7,190.8,118.7,190.5,118.5z"/>
	</g>
</g>
</svg>
