<?xml version="1.0" encoding="utf-8"?>
<!-- Generator: Adobe Illustrator 25.2.3, SVG Export Plug-In . SVG Version: 6.00 Build 0)  -->
<svg version="1.1" id="Capa_1" xmlns="http://www.w3.org/2000/svg" xmlns:xlink="http://www.w3.org/1999/xlink" x="0px" y="0px"
	 viewBox="0 0 256 256" style="enable-background:new 0 0 256 256;" xml:space="preserve">
<style type="text/css">
	.st0{fill:none;}
	.st1{fill:#629A31;}
	.st2{fill:#80AD52;}
	.st3{fill:#EE7914;}
	.st4{fill:#F1903D;}
	.st5{fill:#F2EA6D;}
	.st6{fill:#EEE54D;}
	.st7{fill:url(#SVGID_1_);}
</style>
<circle class="st0" cx="128" cy="128" r="128"/>
<g>
	<g>
		<path class="st1" d="M185.4,210.8c-0.2-0.2-0.5-0.3-0.7-0.6c-15.6-15.6-31.2-31-46.7-46.6c-0.3-0.3-0.7-0.6-0.9-1
			c0-0.5,0-0.9,0-1.4c0-8.7,0-17.3,0-26c0-0.5,0-0.9,0-1.4c1.4,1.2,2.5,2.4,3.8,3.6c3.1,2.9,5.9,6,9,8.8c3,2.8,5.7,5.7,8.7,8.4
			c3.6,3.3,6.9,6.8,10.4,10.2c2.4,2.3,4.7,4.7,7.2,7c3.1,2.9,6,6,9.1,8.9c2.9,2.7,5.7,5.7,8.5,8.4c3.1,2.9,6,6,9.1,8.9
			c2.9,2.7,5.4,5.5,8.3,8.2c1.4,1.2,2.5,2.5,3.8,3.8c0.1,0.1,0.5,0.2,0.3,0.6c-1.2,0-2.4,0-3.6,0
			C203.2,210.8,194.3,210.8,185.4,210.8z"/>
		<path class="st2" d="M185.4,210.8c8.9,0,17.8,0,26.5,0c1.2,0,2.4,0,3.6,0c0.1-0.3-0.1-0.5-0.3-0.6c-1.3-1.3-2.5-2.7-3.8-3.8
			c-2.9-2.7-5.5-5.5-8.3-8.2c-3.1-2.9-6-6-9.1-8.9c-3-2.7-5.7-5.7-8.5-8.4c-3.1-2.9-6-6-9.1-8.9c-2.4-2.3-4.7-4.7-7.2-7
			c-3.6-3.3-6.9-6.8-10.4-10.2c-2.9-2.8-5.7-5.8-8.7-8.4c-3.1-2.9-5.9-6-9-8.8c-1.3-1.2-2.4-2.4-3.8-3.6c0-0.2,0-0.3,0-0.6
			c6.3,0,12.6,0,18.9,0c3.1,0,6.3,0,9.5,0c0.2,0.2,0.6,0.5,0.8,0.8c14.8,14.7,29.5,29.2,44.3,43.8c1.6,1.6,3.2,3.2,4.8,4.7
			c0.3,0.3,0.6,0.7,0.6,1.3c0,8.7,0,17.4,0,26.1c0,0.9,0,0.9-0.9,0.9c-9.6,0-19.2,0-28.7,0C186,210.9,185.7,211.1,185.4,210.8z"/>
		<path class="st3" d="M125.2,150.7c-1.3-1.3-2.7-2.5-3.9-3.9c-6.7-6.7-13.5-13.4-20.2-20.1c-0.5-0.5-0.7-0.8-0.7-1.5
			c0-8.8,0-17.7,0-26.4c0-0.2,0-0.5,0-0.7c1.3,0.9,2.4,2.2,3.5,3.2c4.5,4.5,9.1,8.8,13.6,13.4c2.4,2.5,5.1,4.7,7.5,7.3
			c0.1,0.1,0.1,0.1,0.2,0.2c0,0.1,0.1,0.2,0.1,0.3c0,0.5,0,0.8,0,1.3c0,8.5,0,17.1,0,25.7C125.3,149.9,125.4,150.4,125.2,150.7z"/>
		<path class="st4" d="M125.3,122.1c-0.1-0.1-0.2-0.1-0.2-0.2c-2.4-2.5-5.1-4.7-7.5-7.3c-4.5-4.5-9.1-8.9-13.6-13.4
			c-1.2-1.2-2.2-2.3-3.5-3.2c0.2-0.3,0.5-0.2,0.7-0.2c9.3,0,18.6,0,27.9,0c0.5,0,0.8,0.1,1.2,0.5c7.6,7.5,15.2,15.1,22.8,22.6
			c0.1,0.1,0.2,0.3,0.3,0.5c-0.5,0-0.9,0-1.4,0c-8.5,0-17,0-25.5,0c-0.2,0-0.6,0-0.8,0C125.4,121.5,125.3,121.8,125.3,122.1z"/>
		<path class="st5" d="M125.3,122.1c0-0.3,0.1-0.7,0.6-0.6c0.2,0,0.6,0,0.8,0c8.5,0,17,0,25.5,0c0.5,0,0.9,0,1.4,0
			c1,1,2.2,2.1,3.2,3.1c2.8,2.8,5.7,5.5,8.4,8.3c0.1,0.1,0.2,0.3,0.3,0.5c-3.1,0-6.3,0-9.5,0c-6.3,0-12.6,0-18.9,0
			c-0.5,0-0.8-0.2-1-0.6c-1-1-2-2-3-3c-2.3-2.4-4.8-4.5-7.2-6.9c-0.2-0.2-0.3-0.5-0.7-0.5C125.3,122.4,125.3,122.3,125.3,122.1z"/>
		<path class="st6" d="M125.4,122.6c0.3,0,0.5,0.2,0.7,0.5c2.3,2.4,4.8,4.5,7.2,6.9c0.9,1,2,2,3,3c0.3,0.3,0.6,0.6,1,0.6
			c0,0.2,0,0.3,0,0.6c0,0.5,0,0.9,0,1.4c0,8.7,0,17.3,0,26c0,0.5,0,0.9,0,1.4c-1.2-1.2-2.3-2.3-3.5-3.5c-2.8-2.8-5.7-5.7-8.4-8.4
			c0.2-0.5,0.1-0.9,0.1-1.3c0-8.5,0-17.1,0-25.7C125.3,123.4,125.3,122.9,125.4,122.6z"/>
	</g>
	
		<linearGradient id="SVGID_1_" gradientUnits="userSpaceOnUse" x1="117.6539" y1="238.4306" x2="117.6539" y2="48.5151" gradientTransform="matrix(1 0 0 -1 0 256)">
		<stop  offset="0" style="stop-color:#93AF23"/>
		<stop  offset="1" style="stop-color:#5A9532"/>
	</linearGradient>
	<path class="st7" d="M158.3,199.4c-12.5,5.2-26.2,8.1-40.6,8.1c-55.5,0-100.4-42.5-100.4-95s45-95,100.4-95S218,60,218,112.5
		c0,16.7-4.6,32.5-12.7,46.2l-30.1-30c1.4-5.2,2.1-10.6,2.1-16.3c0-34.2-27.1-61.7-60.5-61.7s-60.5,27.7-60.5,61.7
		s27.1,61.7,60.5,61.7c4.8,0,9.6-0.6,14.1-1.7L158.3,199.4"/>
</g>
</svg>
