<?xml version="1.0" encoding="utf-8"?>
<!-- Generator: Adobe Illustrator 25.2.3, SVG Export Plug-In . SVG Version: 6.00 Build 0)  -->
<svg version="1.1" id="Capa_1" xmlns="http://www.w3.org/2000/svg" xmlns:xlink="http://www.w3.org/1999/xlink" x="0px" y="0px"
	 viewBox="0 0 256 256" style="enable-background:new 0 0 256 256;" xml:space="preserve">
<style type="text/css">
	.st0{fill:none;}
	.st1{fill:#1A408B;}
	.st2{fill:#3864AC;}
	.st3{fill:#6C97CF;}
	.st4{fill:#FFFFFF;}
</style>
<circle class="st0" cx="128" cy="128" r="128"/>
<g>
	<g>
		<path class="st1" d="M47.3,57.5h167.1v164H52.2c-2.6,0-4.8-2.2-4.8-4.8V57.5H47.3z"/>
		<path class="st2" d="M200.9,163.8H60.8V27.2h135.1c2.7,0,5,2.3,5,5V163.8z"/>
		<polygon class="st3" points="60.8,163.8 31,181.6 31,44.9 60.8,27.2 		"/>
	</g>
	<g>
		<path class="st4" d="M104,133.5V57.9h27.1c0,0,21.4-1,27.4,12.9c0,0,1.6,4,1.6,11.7c0,0,0.2,8.2-2.5,11.7c0,0-3.9,5.7-9.6,8.1
			l8,15c0,0,1.8,3.6,4.1,4.3l3.3,0.1v11.7c0,0-6.4,3-15.5,0c0,0-4.6-2.4-6.9-6.9l-9.9-20.4h-8.3v27.3H104z M141.1,89.8V75.2
			c0-2.5-1.9-4.4-4.4-4.4h-13.9v23.4h13.9C139.2,94.3,141.1,92.2,141.1,89.8z"/>
		<g>
			<path class="st4" d="M95.5,205.9v-28.7h10.2c0,0,8.1-0.3,10.4,4.9c0,0,0.6,1.5,0.6,4.4c0,0,0.1,3.1-0.9,4.4c0,0-1.5,2.2-3.6,3.1
				l3.1,5.7c0,0,0.7,1.4,1.6,1.6h1.3v4.4c0,0-2.4,1.1-5.9,0c0,0-1.7-0.9-2.6-2.6l-3.8-7.7h-3.2v10.4h-7.1V205.9z M109.6,188.8v-4.7
				c0-1.1-0.9-2.2-2.2-2.2h-4.8v8.9h4.8C108.6,191,109.6,190.1,109.6,188.8z"/>
			<polygon class="st4" points="137.5,206.1 127.6,206.1 119.1,177.2 126.8,177.2 132.6,199.7 137.7,177.2 145.2,177.2 			"/>
			<polygon class="st4" points="162.1,182.6 162.1,206.1 154.7,206.1 154.7,182.6 147.1,182.6 147.1,177.2 169.8,177.2 169.8,182.7 
							"/>
		</g>
	</g>
</g>
</svg>
