<?xml version="1.0" encoding="utf-8"?>
<!-- Generator: Adobe Illustrator 25.2.3, SVG Export Plug-In . SVG Version: 6.00 Build 0)  -->
<svg version="1.1" id="Capa_1" xmlns="http://www.w3.org/2000/svg" xmlns:xlink="http://www.w3.org/1999/xlink" x="0px" y="0px"
	 viewBox="0 0 256 256" style="enable-background:new 0 0 256 256;" xml:space="preserve">
<style type="text/css">
	.st0{fill:none;}
	.st1{fill:#00609E;}
</style>
<circle class="st0" cx="128" cy="128" r="128"/>
<path class="st1" d="M36.7,105.3l63.8,36.6v11l-36.4-20.8L41.2,145l59.2,34.1v10.5L37,153.2c0.1,4.3,4.1,17.4,11.5,27.6
	c7.5,10.4,16.1,14.7,16.1,14.7l58.5,33.8V128.6L36.7,79.1V105.3z M219.3,73.9l-64.7-37.3c0,0-10.2-6-26.6-6c-17,0-26.9,6.2-26.9,6.2
	L41.2,71.1l91.2,52.4v105.9l60-34.3c0,0,10.7-5.9,18.9-20c7.1-12.3,8-24.4,8-24.4V73.9z M121.8,91.2c0,0,13.3-2.5,24.7,4.1l18,10.4
	c0,0,0,9.1,0,22.7c0,10.8-9.2,22.2-9.2,22.2v-39.9L121.8,91.2z M174.8,178.5l-19.5,11.2v-10.5l15.2-8.8
	c14.4-10.5,16.9-25.8,16.9-31.2V92.1L146,68.2c0,0-6.3-4.2-17.6-4.2s-17.5,3.8-17.5,3.8l-14.5,8.4l-9.2-5.3l20.1-11.5
	c0,0,7.9-4.3,21.1-4.3c12.1,0,21.6,4.7,21.6,4.7l46.8,27v51.5C196.8,146.5,193.1,165.8,174.8,178.5L174.8,178.5z"/>
</svg>
