<?xml version="1.0" encoding="utf-8"?>
<!-- Generator: Adobe Illustrator 25.2.3, SVG Export Plug-In . SVG Version: 6.00 Build 0)  -->
<svg version="1.1" id="Capa_1" xmlns="http://www.w3.org/2000/svg" xmlns:xlink="http://www.w3.org/1999/xlink" x="0px" y="0px"
	 viewBox="0 0 768 256" style="enable-background:new 0 0 768 256;" xml:space="preserve">
<style type="text/css">
	.st0{fill:#FFFFFF;}
</style>
<path class="st0" d="M723.1,248.3L519.7,44.9c-10.2-10.2-10.2-27,0-37.2l0,0c10.2-10.2,27-10.2,37.2,0l203.4,203.4
	c10.2,10.2,10.2,27,0,37.2l0,0C750.1,258.6,733.3,258.6,723.1,248.3z"/>
<path class="st0" d="M519.7,211.1L723.1,7.7c10.2-10.2,27-10.2,37.2,0l0,0c10.2,10.2,10.2,27,0,37.2L556.9,248.3
	c-10.2,10.2-27,10.2-37.2,0l0,0C509.4,238.1,509.4,221.3,519.7,211.1z"/>
</svg>
